<?xml version="1.0" encoding="UTF-8"?>
<svg width="59px" height="41px" viewBox="0 0 59 41" version="1.1" xmlns="http://www.w3.org/2000/svg" xmlns:xlink="http://www.w3.org/1999/xlink">
    <!-- Generator: sketchtool 63.1 (101010) - https://sketch.com -->
    <title>2212FCBC-6ABF-4473-8F2A-F75D7EA517DC</title>
    <desc>Created with sketchtool.</desc>
    <g id="Page-1" stroke="none" stroke-width="1" fill="none" fill-rule="evenodd">
        <g id="1-Food-Future-Foundation---Home" transform="translate(-1308.000000, -1151.000000)" fill="#6BB46D" fill-rule="nonzero">
            <path d="M1352.97541,1151 C1360.06831,1151 1367,1156.04365 1367,1165.96825 C1367,1179.14683 1358.29508,1188.42063 1341.69126,1192 L1341.69126,1192 L1340.56284,1188.42063 C1350.87978,1183.70238 1355.23224,1177.51984 1355.07104,1171.0119 C1354.26503,1171.6627 1352.4918,1172.47619 1350.39617,1172.47619 C1344.9153,1172.47619 1340.72404,1168.40873 1340.72404,1161.7381 C1340.72404,1155.06746 1346.36612,1151 1352.97541,1151 Z M1320.41257,1151 C1327.50546,1151 1334.43716,1156.04365 1334.43716,1165.96825 C1334.43716,1179.14683 1325.73224,1188.42063 1309.12842,1192 L1309.12842,1192 L1308,1188.42063 C1318.31694,1183.70238 1322.6694,1177.51984 1322.5082,1171.0119 C1321.70219,1171.6627 1319.92896,1172.47619 1317.83333,1172.47619 C1312.35246,1172.47619 1308.1612,1168.40873 1308.1612,1161.7381 C1308.1612,1155.06746 1313.80328,1151 1320.41257,1151 Z" id="Combined-Shape"></path>
        </g>
    </g>
</svg>