<?xml version="1.0" encoding="UTF-8"?>
<svg width="59px" height="41px" viewBox="0 0 59 41" version="1.1" xmlns="http://www.w3.org/2000/svg" xmlns:xlink="http://www.w3.org/1999/xlink">
    <!-- Generator: sketchtool 63.1 (101010) - https://sketch.com -->
    <title>02F71611-E15B-4CA3-88F7-0A869BA43A8C</title>
    <desc>Created with sketchtool.</desc>
    <g id="Page-1" stroke="none" stroke-width="1" fill="none" fill-rule="evenodd">
        <g id="1-Food-Future-Foundation---Home" transform="translate(-745.000000, -981.000000)" fill="#6BB46D" fill-rule="nonzero">
            <path d="M789.97541,981 C797.068306,981 804,986.043651 804,995.968254 C804,1009.14683 795.295082,1018.42063 778.691257,1022 L778.691257,1022 L777.562842,1018.42063 C787.879781,1013.70238 792.23224,1007.51984 792.071038,1001.0119 C791.265027,1001.6627 789.491803,1002.47619 787.396175,1002.47619 C781.915301,1002.47619 777.724044,998.40873 777.724044,991.738095 C777.724044,985.06746 783.36612,981 789.97541,981 Z M757.412568,981 C764.505464,981 771.437158,986.043651 771.437158,995.968254 C771.437158,1009.14683 762.73224,1018.42063 746.128415,1022 L746.128415,1022 L745,1018.42063 C755.31694,1013.70238 759.669399,1007.51984 759.508197,1001.0119 C758.702186,1001.6627 756.928962,1002.47619 754.833333,1002.47619 C749.352459,1002.47619 745.161202,998.40873 745.161202,991.738095 C745.161202,985.06746 750.803279,981 757.412568,981 Z" id="Combined-Shape-Copy" transform="translate(774.500000, 1001.500000) scale(-1, -1) translate(-774.500000, -1001.500000) "></path>
        </g>
    </g>
</svg>