<?xml version="1.0" encoding="UTF-8"?>
<svg width="121px" height="15px" viewBox="0 0 121 15" version="1.1" xmlns="http://www.w3.org/2000/svg" xmlns:xlink="http://www.w3.org/1999/xlink">
    <!-- Generator: sketchtool 63.1 (101010) - https://sketch.com -->
    <title>E05C31B8-C021-4943-9F7C-73CA0546F7D5</title>
    <desc>Created with sketchtool.</desc>
    <g id="Page-1" stroke="none" stroke-width="1" fill="none" fill-rule="evenodd">
        <g id="1-Food-Future-Foundation---Home" transform="translate(-465.000000, -3637.000000)" fill="#DEDEDE" fill-rule="nonzero">
            <g id="2" transform="translate(0.000000, 3095.000000)">
                <g id="Group-13-Copy-5" transform="translate(201.000000, 460.000000)">
                    <g id="Group-13">
                        <g id="Group-17">
                            <path id="Path-5" d="M371.176391,82.1461575 C371.306039,82.1461575 371.433906,82.1763428 371.549866,82.234323 L371.549866,82.234323 L383.879452,88.3991162 C384.291981,88.6053807 384.459192,89.107012 384.252927,89.519541 C384.172118,89.6811587 384.04107,89.8122071 383.879452,89.8930159 L383.879452,89.8930159 L371.549866,96.0578091 C371.137337,96.2640736 370.635706,96.0968632 370.429441,95.6843342 C370.371461,95.5683739 370.341276,95.4405068 370.341276,95.3108592 L370.341276,95.3108592 L370.341,90.146 L278.492577,90.1463826 C278.018335,93.4610908 275.221886,96.0266354 271.804148,96.1420985 L271.563498,96.1461575 C267.697505,96.1461575 264.563498,93.0121508 264.563498,89.1461575 C264.563498,85.2801643 267.697505,82.1461575 271.563498,82.1461575 C275.089967,82.1461575 278.007375,84.7538592 278.492608,88.1461493 L370.341,88.146 L370.341276,82.9812729 C370.341276,82.55553 370.65986,82.2041964 371.071636,82.1526643 Z"></path>
                        </g>
                    </g>
                </g>
            </g>
        </g>
    </g>
</svg>