<?xml version="1.0" encoding="UTF-8"?>
<svg width="90px" height="71px" viewBox="0 0 90 71" version="1.1" xmlns="http://www.w3.org/2000/svg" xmlns:xlink="http://www.w3.org/1999/xlink">
    <!-- Generator: sketchtool 63.1 (101010) - https://sketch.com -->
    <title>9B98BE5A-BA21-4BE0-B230-04A2680548BB</title>
    <desc>Created with sketchtool.</desc>
    <defs>
        <polygon id="path-1" points="0 0.5512 89.9168 0.5512 89.9168 60 0 60"></polygon>
        <polygon id="path-3" points="0.4151 0.33 51.5011 0.33 51.5011 28.3449 0.4151 28.3449"></polygon>
    </defs>
    <g id="Page-1" stroke="none" stroke-width="1" fill="none" fill-rule="evenodd">
        <g id="2B-Food-Future-Foundation---Vision-2030-UN-Food-Systems-Summit-2021" transform="translate(-413.000000, -1439.000000)">
            <g id="Group-4-Copy" transform="translate(0.000000, 1160.000000)">
                <g id="Group-13-Copy-4" transform="translate(348.000000, 245.000000)">
                    <g id="Group-13" transform="translate(16.000000, 33.000000)">
                        <g transform="translate(49.000000, 0.000000)">
                            <path d="M46.3898,33.9454 C53.4098,33.9454 59.1208,39.6564 59.1208,46.6764 C59.1208,53.6964 53.4098,59.4084 46.3898,59.4084 C39.3698,59.4084 33.6588,53.6964 33.6588,46.6764 C33.6588,39.6564 39.3698,33.9454 46.3898,33.9454 M30.8718,46.6764 C30.8718,55.2334 37.8328,62.1954 46.3898,62.1954 C54.9468,62.1954 61.9078,55.2334 61.9078,46.6764 C61.9078,38.1204 54.9468,31.1584 46.3898,31.1584 C37.8328,31.1584 30.8718,38.1204 30.8718,46.6764" id="Fill-1" fill="#6BB46D"></path>
                            <path d="M77.6044,28.4279 C77.6104,28.4279 77.6154,28.4259 77.6204,28.4259 C77.6264,28.4259 77.6314,28.4279 77.6364,28.4279 C78.4064,28.4279 79.0304,27.8039 79.0304,27.0349 L79.0304,13.6139 C79.0304,12.8449 78.4064,12.2209 77.6364,12.2209 C77.6314,12.2209 77.6264,12.2219 77.6204,12.2229 C77.6154,12.2219 77.6104,12.2209 77.6044,12.2209 C76.8344,12.2209 76.2114,12.8449 76.2114,13.6139 L76.2114,27.0349 C76.2114,27.8039 76.8344,28.4279 77.6044,28.4279" id="Fill-3" fill="#6BB46D"></path>
                            <path d="M82.2057,28.4279 C82.2117,28.4279 82.2167,28.4259 82.2217,28.4259 C82.2277,28.4259 82.2327,28.4279 82.2377,28.4279 C83.0077,28.4279 83.6317,27.8039 83.6317,27.0349 L83.6317,13.6139 C83.6317,12.8449 83.0077,12.2209 82.2377,12.2209 C82.2327,12.2209 82.2277,12.2219 82.2217,12.2229 C82.2167,12.2219 82.2117,12.2209 82.2057,12.2209 C81.4367,12.2209 80.8127,12.8449 80.8127,13.6139 L80.8127,27.0349 C80.8127,27.8039 81.4367,28.4279 82.2057,28.4279" id="Fill-5" fill="#6BB46D"></path>
                            <g id="Group-9" transform="translate(0.000000, 11.670100)">
                                <mask id="mask-2" fill="white">
                                    <use xlink:href="#path-1"></use>
                                </mask>
                                <g id="Clip-8"></g>
                                <path d="M7.3658,55.6892 L7.3658,4.1612 C7.3658,3.7072 7.7978,3.3372 8.3278,3.3372 C8.6778,3.3372 9.0008,3.5022 9.1708,3.7682 C12.7418,9.3412 14.6288,15.7232 14.6288,22.2272 L14.6288,26.8842 L13.0908,26.8842 L9.8228,26.8842 C9.0538,26.8842 8.4298,27.5072 8.4298,28.2772 C8.4298,29.0462 9.0538,29.6702 9.8228,29.6702 L10.7768,29.6702 L10.7768,55.6892 C10.7768,56.5302 10.0118,57.2132 9.0718,57.2132 C8.1308,57.2132 7.3658,56.5302 7.3658,55.6892 M88.5228,57.2132 L84.4478,57.2132 C84.8738,56.4122 85.1138,55.5172 85.0948,54.5742 L84.4988,24.7682 C86.8028,23.2422 88.1998,20.6742 88.1998,17.8742 L88.1998,1.9442 C88.1998,1.1742 87.5758,0.5512 86.8068,0.5512 C86.0368,0.5512 85.4128,1.1742 85.4128,1.9442 L85.4128,17.8742 C85.4128,19.9292 84.2768,21.7962 82.4468,22.7472 C81.9768,22.9922 81.6858,23.4822 81.6968,24.0112 L82.3088,54.6302 C82.3238,55.3432 82.0638,56.0102 81.5778,56.5062 C80.6828,57.4172 79.1598,57.4182 78.2648,56.5062 C77.7788,56.0102 77.5188,55.3432 77.5328,54.6302 L78.1448,24.0112 C78.1558,23.4822 77.8648,22.9922 77.3948,22.7472 C75.5648,21.7962 74.4288,19.9292 74.4288,17.8742 L74.4288,1.9442 C74.4288,1.1742 73.8048,0.5512 73.0348,0.5512 C72.2658,0.5512 71.6418,1.1742 71.6418,1.9442 L71.6418,17.8742 C71.6418,20.6742 73.0398,23.2422 75.3428,24.7682 L74.7468,54.5742 C74.7278,55.5172 74.9688,56.4112 75.3948,57.2132 L57.8358,57.2132 C65.8738,53.0532 71.3828,44.6642 71.3828,35.0062 C71.3828,23.8092 63.9808,14.3082 53.8138,11.1392 L52.4458,13.6392 C61.7568,16.2822 68.5958,24.8602 68.5958,35.0062 C68.5958,47.2512 58.6348,57.2132 46.3898,57.2132 C34.1448,57.2132 24.1838,47.2512 24.1838,35.0062 C24.1838,25.9192 29.6698,18.0902 37.5038,14.6562 L35.9798,12.2862 C27.3808,16.2412 21.3968,24.9382 21.3968,35.0062 C21.3968,44.6642 26.9058,53.0532 34.9438,57.2132 L13.2598,57.2132 C13.4478,56.7382 13.5638,56.2272 13.5638,55.6892 L13.5638,29.6702 L15.2398,29.6702 C16.4398,29.6702 17.4158,28.7142 17.4158,27.5392 L17.4158,22.2272 C17.4158,15.1892 15.3768,8.2862 11.5178,2.2642 C10.8298,1.1912 9.6368,0.5512 8.3278,0.5512 C6.2608,0.5512 4.5788,2.1702 4.5788,4.1612 L4.5788,55.6892 C4.5788,56.2272 4.6948,56.7382 4.8828,57.2132 L1.3928,57.2132 C0.6238,57.2132 -0.0002,57.8372 -0.0002,58.6062 C-0.0002,59.3762 0.6238,60.0002 1.3928,60.0002 L88.5228,60.0002 C89.2928,60.0002 89.9168,59.3762 89.9168,58.6062 C89.9168,57.8372 89.2928,57.2132 88.5228,57.2132" id="Fill-7" fill="#6BB46D" mask="url(#mask-2)"></path>
                            </g>
                            <g id="Group-12" transform="translate(19.000000, 0.670100)">
                                <mask id="mask-4" fill="white">
                                    <use xlink:href="#path-3"></use>
                                </mask>
                                <g id="Clip-11"></g>
                                <path d="M2.0631,28.3449 C2.5181,28.3449 2.9301,28.1599 3.2281,27.8619 L3.2281,27.8619 L3.2351,27.8559 L14.4221,16.6689 L24.7931,27.0379 C25.4341,27.6799 26.4821,27.6799 27.1231,27.0379 L48.2051,5.9559 L48.2051,9.3939 C48.2051,10.3009 48.9471,11.0419 49.8531,11.0419 C50.7601,11.0419 51.5011,10.3009 51.5011,9.3939 L51.5011,1.9779 C51.5011,1.0679 50.7631,0.3299 49.8531,0.3299 L42.4381,0.3299 C41.5311,0.3299 40.7901,1.0719 40.7901,1.9779 C40.7901,2.8849 41.5311,3.6259 42.4381,3.6259 L45.8761,3.6259 L25.9581,23.5439 L15.5871,13.1729 C14.9451,12.5319 13.8991,12.5319 13.2571,13.1729 L0.9191,25.5119 C0.6081,25.8109 0.4151,26.2319 0.4151,26.6969 C0.4151,27.6069 1.1531,28.3449 2.0631,28.3449" id="Fill-10" fill="#6BB46D" mask="url(#mask-4)"></path>
                            </g>
                        </g>
                    </g>
                </g>
            </g>
        </g>
    </g>
</svg>