<?xml version="1.0" encoding="UTF-8"?>
<svg width="62px" height="66px" viewBox="0 0 62 66" version="1.1" xmlns="http://www.w3.org/2000/svg" xmlns:xlink="http://www.w3.org/1999/xlink">
    <!-- Generator: sketchtool 63.1 (101010) - https://sketch.com -->
    <title>32D2A2DD-6FF9-4A7D-B9E3-256CCF9DDD78</title>
    <desc>Created with sketchtool.</desc>
    <g id="Page-1" stroke="none" stroke-width="1" fill="none" fill-rule="evenodd">
        <g id="1-Food-Future-Foundation---Home" transform="translate(-435.000000, -1847.000000)" fill="#6BB46D">
            <g id="Group-4" transform="translate(0.000000, 1565.000000)">
                <g id="Group-13-Copy-4" transform="translate(348.000000, 246.000000)">
                    <g id="Group-13" transform="translate(16.000000, 36.000000)">
                        <g id="Group-18" transform="translate(71.000000, 0.000000)">
                            <path d="M46.0847946,57.4758745 C44.1553159,57.9890077 42.5886416,57.1255227 41.6165064,56.3099632 C39.3373713,54.3921176 36.0236477,54.3908781 33.739582,56.3087237 C31.7657285,57.9700028 30.0248424,57.8758044 27.9716896,57.0098405 L27.9716896,37.6661241 C27.9716896,29.7716403 26.7341279,28.2785137 24.564286,20.9496332 C25.6728324,20.6443148 26.870539,20.4724441 28.1393275,20.4398052 C31.7110819,20.3117285 35.0161771,22.49523 36.5064282,25.9202494 C36.7102233,26.3871097 37.169173,26.689536 37.6774279,26.689536 C38.185272,26.689536 38.6446325,26.3871097 38.8480167,25.9202494 C40.3395005,22.49523 43.6470609,20.310489 47.2155284,20.4398052 C56.5679124,20.6843904 58.801851,27.8744523 59.3010667,32.1389939 C60.4445376,41.9095951 54.9215279,55.1064552 46.0847946,57.4758745 L46.0847946,57.4758745 Z M23.6196796,63.4297894 L4.35200999,63.4297894 C3.36220712,63.4297894 2.55606629,62.6204272 2.55606629,61.6251471 L2.55606629,57.7407041 L25.4156233,57.7407041 L25.4156233,61.6251471 C25.4156233,62.6204272 24.6094825,63.4297894 23.6196796,63.4297894 L23.6196796,63.4297894 Z M2.55606629,55.1704935 L25.4156233,55.1704935 L25.4156233,39.1485089 L2.55606629,39.1485089 L2.55606629,55.1704935 Z M8.65553649,8.56461427 L19.3161531,8.56461427 C20.8129783,21.9730075 25.2451093,26.8911536 25.406584,36.5782983 L2.56510559,36.5782983 C2.72493677,26.9853519 7.16733972,21.8957483 8.65553649,8.56461427 L8.65553649,8.56461427 Z M8.47475058,2.57021058 L19.496939,2.57021058 C20.4357931,2.57021058 21.1996136,3.33825776 21.1996136,4.28230713 C21.1996136,5.22594336 20.4357931,5.99399054 19.496939,5.99399054 L8.47475058,5.99399054 C7.53630733,5.99399054 6.77371948,5.22594336 6.77371948,4.28230713 C6.77371948,3.33825776 7.53630733,2.57021058 8.47475058,2.57021058 L8.47475058,2.57021058 Z M40.9636228,9.09675239 C42.9567875,7.90687833 45.3259047,7.57057365 47.7324117,8.12130355 C47.0618603,10.5109673 45.638993,12.4436863 43.6470609,13.6347998 C41.6551289,14.8246739 39.2888878,15.1609785 36.8774502,14.6098355 C37.5475907,12.2201718 38.9716907,10.2874527 40.9636228,9.09675239 L40.9636228,9.09675239 Z M61.8398761,31.837807 C60.8254206,23.1769287 55.5193541,18.0864987 47.2829122,17.8691815 C43.8866023,17.7803541 40.7594169,19.2077898 38.5608136,21.6738864 C38.3397617,20.4051005 37.9864075,18.9057766 37.4440497,17.3151464 C40.250751,17.7014423 42.7932584,17.1350126 44.9528283,15.8435035 C47.9008713,14.0814157 49.8714378,11.0959887 50.5045993,7.43629967 C50.6118383,6.8124421 50.2510882,6.20263164 49.6544947,5.99894834 C46.1558764,4.81196635 42.6050767,5.12430829 39.6570337,6.88763553 C37.5899111,8.12378246 36.0162519,9.97097929 35.0342557,12.2209981 C34.1710029,10.8658637 33.1195685,9.55534968 31.8335232,8.37869645 C31.312942,7.90192052 30.5043359,7.93951724 30.0289511,8.46421864 C29.5531555,8.9885069 29.5905453,9.80200065 30.1135918,10.2787766 C33.4129347,13.2984951 34.9738567,17.437439 35.7187769,20.6277888 C33.6175515,18.8169492 30.9185,17.8030773 28.0731762,17.8691815 C26.5944296,17.9084308 25.1912844,18.1117009 23.8818192,18.4727947 C22.8451763,14.6114881 22.1651748,11.1063174 21.8294882,7.85730025 C22.9873398,7.09131883 23.7556799,5.77667326 23.7556799,4.28230713 C23.7556799,1.92156396 21.8446906,0 19.496939,0 L8.47475058,0 C6.12699896,0 4.21724231,1.92156396 4.21724231,4.28230713 C4.21724231,5.77667326 4.98517157,7.09090568 6.14220141,7.85730025 C4.6745485,22.0614217 0,25.8190275 0,37.6661241 L0,61.6251471 C0,64.037121 1.95207699,66 4.35200999,66 L23.6196796,66 C26.0196126,66 27.9716896,64.037121 27.9716896,61.6251471 L27.9716896,59.7486166 C30.6995025,60.6525903 33.1483299,60.15557 35.3793924,58.2802789 C36.7126885,57.1610537 38.6458652,57.1594011 39.9762851,58.2815184 C42.0084832,59.9861782 44.4071835,60.5819416 46.7438415,59.9584971 C56.7848555,57.2664071 63.1029123,42.6313694 61.8398761,31.837807 L61.8398761,31.837807 Z" id="Fill-1"></path>
                            <path d="M14.6587683,44.9114669 C15.6482283,46.492027 16.3704283,47.947927 16.3704283,48.445187 C16.3704283,49.388647 15.6017683,50.157307 14.6587683,50.157307 C13.7139283,50.157307 12.9457283,49.388647 12.9457283,48.445187 C12.9457283,47.949307 13.6693083,46.492027 14.6587683,44.9114669 M14.6587683,53.0189671 C17.1809483,53.0189671 19.2320884,50.967827 19.2320884,48.445187 C19.2320884,46.406467 16.6206683,42.6211269 15.8198083,41.5102269 C15.5516283,41.1357869 15.1183083,40.9149869 14.6587683,40.9149869 C14.1992283,40.9149869 13.7672883,41.1357869 13.4977283,41.5088469 C12.6968682,42.6211269 10.0836082,46.406467 10.0836082,48.445187 C10.0836082,50.967827 12.1365882,53.0189671 14.6587683,53.0189671" id="Fill-4"></path>
                        </g>
                    </g>
                </g>
            </g>
        </g>
    </g>
</svg>