<?xml version="1.0" encoding="UTF-8"?>
<svg width="99px" height="103px" viewBox="0 0 99 103" version="1.1" xmlns="http://www.w3.org/2000/svg" xmlns:xlink="http://www.w3.org/1999/xlink">
    <!-- Generator: sketchtool 63.1 (101010) - https://sketch.com -->
    <title>9282C52C-F8C8-439C-AE84-784620416DA7</title>
    <desc>Created with sketchtool.</desc>
    <defs>
        <polygon id="path-1" points="0 0.142484996 98.8768169 0.142484996 98.8768169 62.3698931 0 62.3698931"></polygon>
    </defs>
    <g id="Page-1" stroke="none" stroke-width="1" fill="none" fill-rule="evenodd">
        <g id="1-Food-Future-Foundation---Home" transform="translate(-1002.000000, -3584.000000)">
            <g id="2" transform="translate(0.000000, 3095.000000)">
                <g id="Group-13-Copy-5" transform="translate(201.000000, 460.000000)">
                    <g id="Group-13">
                        <g id="Group-17">
                            <g id="Group-35-Copy-2" transform="translate(770.000000, 0.000000)">
                                <g id="Group-12" transform="translate(31.000000, 29.000000)">
                                    <g id="Group-3" transform="translate(0.000000, 39.881939)">
                                        <mask id="mask-2" fill="white">
                                            <use xlink:href="#path-1"></use>
                                        </mask>
                                        <g id="Clip-2"></g>
                                        <path d="M5.95940081,34.1815939 C7.64822076,37.3784238 9.6967707,40.3954937 12.0479306,43.1488037 L12.1130306,43.2250337 C12.4164806,43.5788836 12.7365206,43.9413436 13.0645406,44.3019136 L13.2325406,44.4839836 C13.4910506,44.7651736 13.7541806,45.0440536 14.0198306,45.3197836 C14.0198306,45.3197836 14.2142906,45.5230636 14.2640606,45.5740936 C14.5160605,45.8319736 14.7951505,46.1102236 15.1170805,46.4241736 C15.2582005,46.5615135 15.4001605,46.6971735 15.5423305,46.8322035 C15.7145305,46.9960035 15.8888305,47.1583335 16.0637605,47.3200335 C16.3464205,47.5812735 16.6313905,47.8385235 16.9197205,48.0926235 L16.9837705,48.1491135 C17.0801605,48.2341635 17.1765505,48.3192135 17.2737805,48.4034235 C17.4907105,48.5907435 17.7082704,48.7763835 17.9277204,48.9597135 L18.0285204,49.0424535 C18.5155104,49.4467035 19.0048104,49.8379334 19.4838204,50.2060634 C26.7067702,55.7496433 35.2737199,59.1751632 44.2749496,60.1239431 L44.2990996,60.1264631 C44.6000296,60.1579631 44.9015896,60.1861031 45.2039896,60.2123531 L45.4788796,60.2346131 C45.7000096,60.2522531 45.9181996,60.2684231 46.1365996,60.2829131 C46.2665896,60.2917331 46.3969996,60.2999231 46.5271995,60.3076931 C46.7080095,60.3181931 46.8888195,60.3274331 47.0698395,60.3360431 L47.1206595,60.3385631 C47.2565295,60.3450731 47.3926095,60.3515831 47.5284795,60.3568331 C47.6582595,60.3618731 47.7895095,60.3656531 47.9207595,60.3694331 L48.0996795,60.3746831 C48.2363895,60.3786731 48.3733095,60.3828731 48.5102295,60.3851831 C48.5940195,60.3868631 48.8951595,60.3895931 48.8951595,60.3895931 L49.0345995,60.3910631 C49.1692095,60.3925331 49.3036095,60.3942131 49.4384295,60.3942131 C49.5732495,60.3942131 49.7076494,60.3925331 49.8422594,60.3910631 C49.8422594,60.3910631 50.2826294,60.3868631 50.3674694,60.3851831 C50.5035494,60.3828731 50.6404694,60.3786731 50.7771794,60.3746831 L50.9560994,60.3694331 C51.0873494,60.3656531 51.2185994,60.3618731 51.3494294,60.3568331 C51.4842494,60.3515831 51.6203294,60.3450731 51.7561994,60.3385631 L51.8065994,60.3362531 C51.9880394,60.3274331 52.1688494,60.3181931 52.3494494,60.3076931 C52.4798594,60.2999231 52.6100594,60.2917331 52.7406794,60.2829131 C52.9586593,60.2684231 53.1768493,60.2522531 53.3946193,60.2348231 L53.6718193,60.2123531 C53.9750593,60.1861031 54.2768293,60.1579631 54.5779693,60.1264631 L54.6019093,60.1239431 C63.603139,59.1751632 72.1700887,55.7496433 79.3764485,50.2184534 L79.4024885,50.1985034 C79.8712085,49.8385634 80.3605085,49.4473335 80.8470785,49.0435035 L80.9487185,48.9601335 C81.1687985,48.7763835 81.3863585,48.5905335 81.6026585,48.4036335 C81.7011484,48.3183735 81.7990084,48.2320635 81.8964484,48.1459635 L81.9573484,48.0924135 C82.2452584,47.8385235 82.5304384,47.5812735 82.8126784,47.3204535 C82.9880284,47.1583335 83.1623284,46.9960035 83.3349484,46.8317835 C83.4769084,46.6971735 83.6188684,46.5613035 83.7593584,46.4243836 C84.0793984,46.1123236 84.3586984,45.8340736 84.6130084,45.5738836 C84.6625684,45.5230636 84.8563984,45.3204136 84.8563984,45.3204136 C85.1228883,45.0438436 85.3858083,44.7651736 85.6447383,44.4833536 L85.8118983,44.3023336 C86.1399183,43.9415536 86.4603783,43.5790936 86.7642483,43.2248237 L86.8276683,43.1502737 C89.1800882,40.3954937 91.2286382,37.3784238 92.9174581,34.1815939 L93.4057081,33.257384 L80.1687785,33.257384 C79.9050185,33.257384 79.6570085,33.154484 79.4705285,32.968214 L49.4384295,2.93548491 L19.4063304,32.968214 C19.2198504,33.154484 18.9718404,33.257384 18.7080804,33.257384 L5.47115083,33.257384 L5.95940081,34.1815939 Z M49.4384295,0.142484996 L80.5778585,31.282334 L94.3343281,31.282334 L94.499178,30.904334 C95.483448,28.6476741 96.302868,26.3009242 96.934758,23.9287643 C97.050048,23.4967943 97.441698,23.1952343 97.8877379,23.1952343 C97.9734179,23.1952343 98.0593079,23.2065743 98.1435179,23.2290443 C98.3982479,23.2966643 98.6111879,23.4598343 98.7434879,23.6881043 C98.8755779,23.9163743 98.9110679,24.1824442 98.8432379,24.4373842 C97.074828,31.073594 94.0386481,37.1869038 89.8182782,42.6078437 L89.8092482,42.6191837 C89.6244482,42.8564837 89.4434282,43.0851737 89.2603082,43.3121836 L89.2212482,43.3602736 C88.8911282,43.7680936 88.5544982,44.1721336 88.2212282,44.5587436 L88.1082482,44.6918836 L87.9328983,44.8907536 C87.7674183,45.0797536 87.6013083,45.2679136 87.4333083,45.4548136 L87.3039483,45.5961436 C87.1128483,45.8063536 86.9209083,46.0148836 86.7268683,46.2215236 L86.6544183,46.2983836 C83.8681384,49.2541335 80.7303185,51.8782934 77.3270586,54.0977833 C70.5965588,58.4872032 62.810389,61.2501731 54.8102293,62.0880731 L54.7843993,62.0903831 C54.4708693,62.1233531 54.1569193,62.1527531 53.8423393,62.1796331 L53.5558993,62.2031531 C53.3282593,62.2212131 53.0999893,62.2384331 52.8712993,62.2535531 C52.7373194,62.2623731 52.6033394,62.2709831 52.4695694,62.2787531 C52.2793094,62.2900931 52.0890494,62.2997531 51.8983694,62.3087831 C51.7419194,62.3163431 51.5854694,62.3239031 51.4285994,62.3297831 C51.2776094,62.3356631 51.1264094,62.3400731 50.9752094,62.3442731 L50.8202294,62.3491031 C50.6830994,62.3530931 50.5457594,62.3572931 50.4084194,62.3600231 C50.3139194,62.3614931 49.9625894,62.3644331 49.9625894,62.3644331 L49.7832494,62.3667431 C49.6683794,62.3684231 49.5535095,62.3698931 49.4384295,62.3698931 C49.3233495,62.3698931 49.2084795,62.3684231 49.0936095,62.3667431 L48.7534095,62.3629631 C48.6582795,62.3621231 48.5629395,62.3614931 48.4678095,62.3598131 C48.3310995,62.3572931 48.1937595,62.3530931 48.0566295,62.3491031 L47.9005995,62.3442731 C47.7496095,62.3400731 47.5988295,62.3356631 47.4482595,62.3297831 C47.2913895,62.3239031 47.1349395,62.3163431 46.9784895,62.3087831 C46.7878095,62.2997531 46.5973395,62.2900931 46.4070796,62.2787531 C46.2735196,62.2709831 46.1395396,62.2623731 46.0057696,62.2535531 C45.7766596,62.2384331 45.5485996,62.2212131 45.3201196,62.2031531 L45.0355696,62.1798431 C44.7199396,62.1527531 44.4059896,62.1233531 44.0924596,62.0903831 L44.0666296,62.0880731 C36.0664699,61.2501731 28.2803001,58.4872032 21.5498003,54.0977833 C18.1465404,51.8782934 15.0087205,49.2541335 12.2228606,46.2988036 L12.1502006,46.2219436 C11.9559506,46.0148836 11.7640106,45.8063536 11.5733306,45.5967736 L11.4420806,45.4531336 C11.2755506,45.2679136 11.1092307,45.0797536 10.9437507,44.8905436 L10.7684007,44.6916736 L10.6564707,44.5597936 C10.3223607,44.1721336 9.98573069,43.7680936 9.6543507,43.3583836 L9.6176007,43.3136536 C9.43301071,43.0851737 9.25241071,42.8562737 9.07286072,42.6259037 L9.05879072,42.6082637 C4.83842085,37.1873238 1.80203094,31.073804 0.033620999,24.4373842 C-0.0342089989,24.1824442 0.00128099996,23.9163743 0.133370996,23.6881043 C0.265670992,23.4598343 0.478610985,23.2966643 0.733550977,23.2290443 C0.817760974,23.2063643 0.903650972,23.1952343 0.989330969,23.1952343 C1.43516096,23.1952343 1.82702094,23.4965843 1.94189094,23.9285543 C2.57399092,26.3009242 3.39341089,28.6476741 4.37768086,30.904334 L4.54253086,31.282334 L18.2990004,31.282334 L48.4510095,1.12990496 L49.4384295,0.142484996 Z" id="Fill-1" fill="#212629" mask="url(#mask-2)"></path>
                                    </g>
                                    <path d="M50.3529584,12.9389816 L67.1762679,12.9389816 L64.656268,7.89835175 C64.517878,7.62199176 64.517878,7.29166177 64.656058,7.01551178 L67.1760579,1.97488194 L50.3529584,1.97488194 L50.3529584,12.9389816 Z M48.3781185,41.0119907 L48.3781185,0.987461969 C48.3781185,0.442931986 48.8210085,4.19999987e-05 49.3655385,4.19999987e-05 L68.7741579,4.19999987e-05 C69.1187678,4.19999987e-05 69.4327178,0.175181995 69.6141578,0.468131985 C69.7951778,0.761501976 69.8113478,1.12081197 69.6574178,1.42888196 L66.6432879,7.45693177 L69.6572078,13.4849816 C69.8113478,13.7930516 69.7951778,14.1523616 69.6139478,14.4457315 C69.4329278,14.7386815 69.1187678,14.9136115 68.7741579,14.9136115 L50.3529584,14.9136115 L50.3529584,41.0119907 L48.3781185,41.0119907 Z" id="Fill-4" fill="#6BB46D"></path>
                                    <path d="M20.3255424,42.4083017 C19.7810124,42.4083017 19.3381224,41.9654117 19.3381224,41.4208817 L19.3381224,37.5570918 L15.4734925,37.5570918 C14.9289625,37.5570918 14.4858625,37.1142018 14.4858625,36.5696719 C14.4858625,36.0251419 14.9289625,35.5822519 15.4734925,35.5822519 L19.3381224,35.5822519 L19.3381224,31.717622 C19.3381224,31.173092 19.7810124,30.730202 20.3255424,30.730202 C20.8700723,30.730202 21.3129623,31.173092 21.3129623,31.717622 L21.3129623,35.5822519 L25.1775922,35.5822519 C25.7221222,35.5822519 26.1652222,36.0251419 26.1652222,36.5696719 C26.1652222,37.1142018 25.7221222,37.5570918 25.1775922,37.5570918 L21.3129623,37.5570918 L21.3129623,41.4208817 C21.3129623,41.9654117 20.8700723,42.4083017 20.3255424,42.4083017" id="Fill-6" fill="#212629"></path>
                                    <path d="M78.5513165,42.4083017 C78.0067866,42.4083017 77.5638966,41.9654117 77.5638966,41.4208817 L77.5638966,37.5570918 L73.6992667,37.5570918 C73.1547367,37.5570918 72.7116367,37.1142018 72.7116367,36.5696719 C72.7116367,36.0251419 73.1547367,35.5822519 73.6992667,35.5822519 L77.5638966,35.5822519 L77.5638966,31.717622 C77.5638966,31.173092 78.0067866,30.730202 78.5513165,30.730202 C79.0958465,30.730202 79.5387365,31.173092 79.5387365,31.717622 L79.5387365,35.5822519 L83.4033664,35.5822519 C83.9478964,35.5822519 84.3909964,36.0251419 84.3909964,36.5696719 C84.3909964,37.1142018 83.9478964,37.5570918 83.4033664,37.5570918 L79.5387365,37.5570918 L79.5387365,41.4208817 C79.5387365,41.9654117 79.0958465,42.4083017 78.5513165,42.4083017" id="Fill-8" fill="#212629"></path>
                                    <path d="M49.4384295,87.6957033 C48.8938995,87.6957033 48.4510095,87.2528133 48.4510095,86.7082833 L48.4510095,63.213484 L38.8151598,72.8493337 C38.6284698,73.0356037 38.3806698,73.1385037 38.1169098,73.1385037 C37.8531498,73.1385037 37.6051398,73.0356037 37.4186598,72.8493337 C37.0337298,72.4641937 37.0337298,71.8377638 37.4186598,71.4526238 L48.7401795,60.1311041 C48.7641195,60.1071641 48.7880595,60.0857441 48.8128395,60.0653741 L48.8928495,60.0063641 L48.9732795,59.9584841 L49.0648395,59.9156441 L49.1530395,59.8841441 L49.2450195,59.8612541 L49.3327995,59.8484441 C49.3729095,59.8438241 49.4056695,59.8421441 49.4384295,59.8421441 C49.4709795,59.8421441 49.5037395,59.8438241 49.5362895,59.8469741 L49.6305795,59.8610441 L49.7080694,59.8805741 L49.7983694,59.9108141 L49.8334394,59.9255141 L49.9060994,59.9597441 L49.9867394,60.0082541 L50.0562494,60.0601241 C50.0900594,60.0867941 50.1139994,60.1084241 50.1366794,60.1311041 L61.4584091,71.4526238 C61.6448891,71.6393138 61.7475791,71.8873238 61.7475791,72.1510837 C61.7475791,72.4146337 61.6448891,72.6626437 61.4584091,72.8493337 C61.2719291,73.0356037 61.0239191,73.1385037 60.7601591,73.1385037 C60.4963991,73.1385037 60.2485991,73.0356037 60.0619091,72.8493337 L50.4258494,63.213484 L50.4258494,86.7082833 C50.4258494,87.2528133 49.9829594,87.6957033 49.4384295,87.6957033" id="Fill-10" fill="#212629"></path>
                                </g>
                            </g>
                        </g>
                    </g>
                </g>
            </g>
        </g>
    </g>
</svg>