<?xml version="1.0" encoding="UTF-8"?>
<svg width="100px" height="100px" viewBox="0 0 100 100" version="1.1" xmlns="http://www.w3.org/2000/svg" xmlns:xlink="http://www.w3.org/1999/xlink">
    <!-- Generator: sketchtool 63.1 (101010) - https://sketch.com -->
    <title>E1D070A0-4577-4795-B0C3-8BDEB93B8D4F</title>
    <desc>Created with sketchtool.</desc>
    <g id="Page-1" stroke="none" stroke-width="1" fill="none" fill-rule="evenodd">
        <g id="1-Food-Future-Foundation---Home" transform="translate(-297.000000, -3585.000000)">
            <g id="2" transform="translate(0.000000, 3095.000000)">
                <g id="Group-13-Copy-5" transform="translate(201.000000, 460.000000)">
                    <g id="Group-13">
                        <g id="Group-17">
                            <g id="Group-35-Copy" transform="translate(66.000000, 0.000000)">
                                <g id="Group-25" transform="translate(30.000000, 30.000000)">
                                    <path d="M37.2577155,60.4800024 C36.7616355,60.4812624 36.3600554,60.8837424 36.3600554,61.3800024 L36.3600554,80.0100032 C36.3600554,80.9528432 35.5928954,81.7200032 34.6500554,81.7200032 C33.7070353,81.7200032 32.9400553,80.9528432 32.9400553,80.0100032 L32.9400553,68.0400027 C32.9400553,67.5428427 32.5370353,67.1400027 32.0400547,67.1400027 C32.0090953,67.1400027 31.9801153,67.1461227 31.9500553,67.1490027 C31.9199953,67.1461227 31.8908353,67.1400027 31.8600553,67.1400027 C31.3628952,67.1400027 30.9600552,67.5428427 30.9600552,68.0400027 L30.9600552,80.0100032 C30.9600552,80.9528432 30.1928952,81.7200032 29.2500552,81.7200032 C28.3070351,81.7200032 27.5400547,80.9528432 27.5400547,80.0100032 L27.5400547,68.0400027 C27.5400547,67.5428427 27.1370351,67.1400027 26.6400551,67.1400027 C26.142895,67.1400027 25.740055,67.5428427 25.740055,68.0400027 L25.740055,80.0100032 C25.740055,80.9528432 24.972895,81.7200032 24.030055,81.7200032 C23.0870349,81.7200032 22.3200549,80.9528432 22.3200549,80.0100032 L22.3200549,77.7587431 C22.3508349,77.6268031 22.3522749,77.4880231 22.3200549,77.3505031 L22.3200549,68.0400027 C22.3200549,67.5428427 21.9170349,67.1400027 21.4200549,67.1400027 C20.9228948,67.1400027 20.5200548,67.5428427 20.5200548,68.0400027 L20.5200548,76.8555031 C20.4899948,76.8571231 20.4602948,76.8600031 20.4300548,76.8600031 C19.4938748,76.8600031 18.6896347,76.102383 18.5400547,75.089343 L18.5400547,63.6559225 C18.5960347,63.5385625 18.6300547,63.4087825 18.6300547,63.2700025 C18.6300547,62.3545225 18.9675548,58.1947223 20.5267148,56.0610022 C20.6392148,55.9069222 20.7000548,55.7209822 20.7000548,55.5300022 L20.7000548,38.1600015 L37.2600555,38.1600015 L37.2600555,51.6756621 C37.2600555,51.9602421 37.3945155,52.2279021 37.6229355,52.3978221 C40.1002756,54.2403022 41.6626757,57.2101223 41.9065757,60.4683024 L37.2577155,60.4800024 Z M39.0600556,51.234662 L39.0600556,37.2600015 C39.0600556,36.7628415 38.6570355,36.3600014 38.1600555,36.3600014 L19.8000548,36.3600014 C19.3028948,36.3600014 18.9000548,36.7628415 18.9000548,37.2600015 L18.9000548,55.2481222 C17.3923747,57.5211623 16.9254547,61.1047824 16.8440947,62.7681625 C16.7798347,62.8921825 16.7400547,63.0307825 16.7400547,63.1800025 L16.7400547,75.150003 C16.7400547,75.187263 16.7422147,75.224523 16.7468947,75.261423 C16.9889947,77.1989431 18.5722747,78.6600031 20.4300548,78.6600031 C20.4602948,78.6600031 20.4898148,78.6562231 20.5200548,78.6555031 L20.5200548,80.0100032 C20.5200548,81.9453633 22.0945149,83.5200033 24.030055,83.5200033 C25.066675,83.5200033 25.996915,83.0656833 26.6400551,82.3485633 C27.2830151,83.0656833 28.2132551,83.5200033 29.2500552,83.5200033 C30.3347352,83.5200033 31.3056552,83.0250033 31.9500553,82.2495633 C32.5942753,83.0250033 33.5653753,83.5200033 34.6500554,83.5200033 C36.5854155,83.5200033 38.1600555,81.9453633 38.1600555,80.0100032 L38.1600555,62.2776625 L42.8422157,62.2659625 C43.3384757,62.2647025 43.7400547,61.8622225 43.7400547,61.3659624 C43.7400547,57.3570023 41.9985557,53.6056221 39.0600556,51.234662 L39.0600556,51.234662 Z" id="Fill-1" fill="#212629"></path>
                                    <path d="M19.8000008,22.3200009 C20.2969808,22.3200009 20.7000008,21.9171609 20.7000008,21.4200009 L20.7000008,0.900000036 C20.7000008,0.402840016 20.2969808,0 19.8000008,0 C19.3030208,0 18.9000008,0.402840016 18.9000008,0.900000036 L18.9000008,21.4200009 C18.9000008,21.9171609 19.3030208,22.3200009 19.8000008,22.3200009" id="Fill-3" fill="#212629"></path>
                                    <path d="M38.1600015,18.7200007 C38.6569815,18.7200007 39.0600016,18.3171607 39.0600016,17.8200007 L39.0600016,0.900000036 C39.0600016,0.402840016 38.6569815,0 38.1600015,0 C37.6630215,0 37.2600015,0.402840016 37.2600015,0.900000036 L37.2600015,17.8200007 C37.2600015,18.3171607 37.6630215,18.7200007 38.1600015,18.7200007" id="Fill-5" fill="#212629"></path>
                                    <path d="M61.7400025,37.2600015 L47.8643419,37.2600015 C47.5797619,37.2600015 47.3119219,37.3946415 47.1420019,37.6228815 C45.2995218,40.1002216 42.3298817,41.6626217 39.0715216,41.9063417 L39.0600016,37.2576615 C39.0587416,36.7614015 38.6560815,36.3600014 38.1600015,36.3600014 L19.5300008,36.3600014 C18.5871607,36.3600014 17.8200007,35.5928414 17.8200007,34.6500014 C17.8200007,33.7071613 18.5871607,32.9400013 19.5300008,32.9400013 L31.5000013,32.9400013 C31.9969813,32.9400013 32.4000013,32.5371613 32.4000013,32.0400007 C32.4000013,32.0092213 32.3938813,31.9800613 32.3910013,31.9500013 C32.3938813,31.9199413 32.4000013,31.8907813 32.4000013,31.8600013 C32.4000013,31.3628412 31.9969813,30.9600012 31.5000013,30.9600012 L19.5300008,30.9600012 C18.5871607,30.9600012 17.8200007,30.1928412 17.8200007,29.2500012 C17.8200007,28.3071611 18.5871607,27.5400007 19.5300008,27.5400007 L31.5000013,27.5400007 C31.9969813,27.5400007 32.4000013,27.1371611 32.4000013,26.6400011 C32.4000013,26.142841 31.9969813,25.740001 31.5000013,25.740001 L19.5300008,25.740001 C18.5871607,25.740001 17.8200007,24.972841 17.8200007,24.030001 C17.8200007,23.0871609 18.5871607,22.3200009 19.5300008,22.3200009 L21.7807209,22.3200009 C21.8476809,22.3356609 21.9159009,22.3461009 21.9855609,22.3461009 C22.0532409,22.3461009 22.1214609,22.3358409 22.1891409,22.3200009 L31.5000013,22.3200009 C31.9969813,22.3200009 32.4000013,21.9171609 32.4000013,21.4200009 C32.4000013,20.9228408 31.9969813,20.5200008 31.5000013,20.5200008 L22.6845009,20.5200008 C22.6828809,20.4899408 22.6800009,20.4602408 22.6800009,20.4300008 C22.6800009,19.4938208 23.4376209,18.6895807 24.450661,18.5400007 L35.8840814,18.5400007 C36.0014414,18.5959807 36.1312214,18.6300007 36.2700014,18.6300007 C37.1853015,18.6300007 41.3454616,18.9675008 43.4790017,20.5266608 C43.6330817,20.6393408 43.8190217,20.7000008 44.0100017,20.7000008 L61.7400025,20.7000008 L61.7400025,37.2600015 Z M62.6400025,18.9000008 L44.2918818,18.9000008 C42.0188417,17.3925007 38.4352215,16.9255807 36.7718415,16.8440407 C36.6478215,16.7797807 36.5092215,16.7400007 36.3600014,16.7400007 L24.390001,16.7400007 C24.352741,16.7400007 24.315481,16.7423407 24.278401,16.7468407 C22.3410609,16.9889407 20.8800008,18.5722207 20.8800008,20.4300008 C20.8800008,20.4602408 20.8836008,20.4899408 20.8845008,20.5200008 L19.5300008,20.5200008 C17.5946407,20.5200008 16.0200006,22.0946409 16.0200006,24.030001 C16.0200006,25.066621 16.4743207,25.996861 17.1914407,26.6400011 C16.4743207,27.2831411 16.0200006,28.2133811 16.0200006,29.2500012 C16.0200006,30.3346812 16.5150007,31.3056012 17.2904407,31.9500013 C16.5150007,32.5944013 16.0200006,33.5653213 16.0200006,34.6500014 C16.0200006,36.5853615 17.5946407,38.1600015 19.5300008,38.1600015 L37.2623415,38.1600015 L37.2740415,42.8423417 C37.2753015,43.3386017 37.6779615,43.7400007 38.1740415,43.7400007 C42.1830017,43.7400007 45.9343818,41.9985017 48.3051619,39.0600016 L62.6400025,39.0600016 C63.1369825,39.0600016 63.5400025,38.6571615 63.5400025,38.1600015 L63.5400025,19.8000008 C63.5400025,19.3028408 63.1369825,18.9000008 62.6400025,18.9000008 L62.6400025,18.9000008 Z" id="Fill-7" fill="#212629"></path>
                                    <path d="M99.900004,19.8000008 C99.900004,19.3028408 99.496984,18.9000008 99.0000039,18.9000008 L78.4800031,18.9000008 C77.9830231,18.9000008 77.5800031,19.3028408 77.5800031,19.8000008 C77.5800031,20.2971608 77.9830231,20.7000008 78.4800031,20.7000008 L99.0000039,20.7000008 C99.496984,20.7000008 99.900004,20.2971608 99.900004,19.8000008" id="Fill-9" fill="#402870"></path>
                                    <path d="M99.0000039,37.2600015 L82.0800033,37.2600015 C81.5830232,37.2600015 81.1800032,37.6628415 81.1800032,38.1600015 C81.1800032,38.6571615 81.5830232,39.0600016 82.0800033,39.0600016 L99.0000039,39.0600016 C99.496984,39.0600016 99.900004,38.6571615 99.900004,38.1600015 C99.900004,37.6628415 99.496984,37.2600015 99.0000039,37.2600015" id="Fill-11" fill="#402870"></path>
                                    <path d="M21.4200009,79.0200031 L0.900000036,79.0200031 C0.403020016,79.0200031 0,79.4228432 0,79.9200032 C0,80.4171632 0.403020016,80.8200032 0.900000036,80.8200032 L21.4200009,80.8200032 C21.9169809,80.8200032 22.3200009,80.4171632 22.3200009,79.9200032 C22.3200009,79.4228432 21.9169809,79.0200031 21.4200009,79.0200031" id="Fill-15" fill="#212629"></path>
                                    <path d="M0.900000036,62.4600025 L17.8200007,62.4600025 C18.3169807,62.4600025 18.7200007,62.0571625 18.7200007,61.5600024 C18.7200007,61.0628424 18.3169807,60.6600024 17.8200007,60.6600024 L0.900000036,60.6600024 C0.403020016,60.6600024 0,61.0628424 0,61.5600024 C0,62.0571625 0.403020016,62.4600025 0.900000036,62.4600025" id="Fill-17" fill="#212629"></path>
                                    <path d="M81.3600032,35.8841534 C81.3040232,36.0015134 81.2700032,36.1312934 81.2700032,36.2700734 C81.2700032,37.1853735 80.9325032,41.3453536 79.3733432,43.4788937 C79.2606631,43.6331537 79.2000031,43.8190937 79.2000031,44.0100737 L79.2000031,61.7400745 L62.6400025,61.7400745 L62.6400025,47.8642339 C62.6400025,47.5796539 62.5053625,47.3118139 62.2771225,47.1420739 C59.7997824,45.2995938 58.2373823,42.3297737 57.9934823,39.0715936 L62.6423425,39.0600736 C63.1384225,39.0588136 63.5400025,38.6561535 63.5400025,38.1600735 L63.5400025,19.5300728 C63.5400025,18.5870527 64.3071626,17.8200727 65.2500026,17.8200727 C66.1928426,17.8200727 66.9600027,18.5870527 66.9600027,19.5300728 L66.9600027,31.5000733 C66.9600027,31.9970533 67.3630227,32.4000733 67.8600027,32.4000733 C67.8907827,32.4000733 67.9199427,32.3939533 67.9500027,32.3908933 C67.9800627,32.3939533 68.0092227,32.4000733 68.0400027,32.4000733 C68.5369827,32.4000733 68.9400027,31.9970533 68.9400027,31.5000733 L68.9400027,19.5300728 C68.9400027,18.5870527 69.7071628,17.8200727 70.6500028,17.8200727 C71.5928428,17.8200727 72.3600029,18.5870527 72.3600029,19.5300728 L72.3600029,31.5000733 C72.3600029,31.9970533 72.7630229,32.4000733 73.2600029,32.4000733 C73.7569829,32.4000733 74.1600029,31.9970533 74.1600029,31.5000733 L74.1600029,19.5300728 C74.1600029,18.5870527 74.927163,17.8200727 75.870003,17.8200727 C76.8128431,17.8200727 77.5800031,18.5870527 77.5800031,19.5300728 L77.5800031,21.7813329 C77.5490431,21.9132729 77.5477831,22.0522329 77.5800031,22.1895729 L77.5800031,31.5000733 C77.5800031,31.9970533 77.9830231,32.4000733 78.4800031,32.4000733 C78.9769831,32.4000733 79.3800032,31.9970533 79.3800032,31.5000733 L79.3800032,22.6843929 C79.4100632,22.6827729 79.4397632,22.6800729 79.4700032,22.6800729 C80.4061832,22.6800729 81.2104232,23.4376929 81.3600032,24.450553 L81.3600032,35.8841534 Z M83.1529833,24.278473 C82.9110633,22.3411329 81.3277832,20.8800728 79.4700032,20.8800728 C79.4397632,20.8800728 79.4100632,20.8836728 79.3800032,20.8843928 L79.3800032,19.5300728 C79.3800032,17.5947127 77.8053631,16.0200726 75.870003,16.0200726 C74.833383,16.0200726 73.9031429,16.4743927 73.2600029,17.1913327 C72.6168629,16.4743927 71.6866228,16.0200726 70.6500028,16.0200726 C69.5653228,16.0200726 68.5944027,16.5148927 67.9500027,17.2903327 C67.3056027,16.5148927 66.3346826,16.0200726 65.2500026,16.0200726 C63.3146425,16.0200726 61.7400025,17.5947127 61.7400025,19.5300728 L61.7400025,37.2622335 L57.0576623,37.2741135 C56.5615822,37.2753735 56.1600022,37.6778535 56.1600022,38.1741135 C56.1600022,42.1828937 57.9013223,45.9342738 60.8400024,48.3052339 L60.8400024,62.6400745 C60.8400024,63.1370545 61.2430224,63.5400745 61.7400025,63.5400745 L80.1000032,63.5400745 C80.5969832,63.5400745 81.0000032,63.1370545 81.0000032,62.6400745 L81.0000032,44.2919538 C82.5075033,42.0189137 82.9744233,38.4351135 83.0559633,36.7717335 C83.1202233,36.6478935 83.1600022,36.5092935 83.1600022,36.3600734 L83.1600022,24.390073 C83.1600022,24.352813 83.1576633,24.315373 83.1529833,24.278473 L83.1529833,24.278473 Z" id="Fill-19" fill="#6BB46D"></path>
                                    <path d="M80.1000032,77.5800031 C79.6030232,77.5800031 79.2000031,77.9828431 79.2000031,78.4800031 L79.2000031,99.0000039 C79.2000031,99.497164 79.6030232,99.900004 80.1000032,99.900004 C80.5969832,99.900004 81.0000032,99.497164 81.0000032,99.0000039 L81.0000032,78.4800031 C81.0000032,77.9828431 80.5969832,77.5800031 80.1000032,77.5800031" id="Fill-21" fill="#6BB46D"></path>
                                    <path d="M61.7400025,81.1800032 C61.2428424,81.1800032 60.8400024,81.5830232 60.8400024,82.0800033 L60.8400024,99.0000039 C60.8400024,99.496984 61.2428424,99.900004 61.7400025,99.900004 C62.2371625,99.900004 62.6400025,99.496984 62.6400025,99.0000039 L62.6400025,82.0800033 C62.6400025,81.5830232 62.2371625,81.1800032 61.7400025,81.1800032" id="Fill-23" fill="#6BB46D"></path>
                                    <path d="M67.5090747,67.9500027 C67.5060147,67.9800627 67.5000747,68.0092227 67.5000747,68.0400027 C67.5000747,68.5371627 67.9029147,68.9400027 68.4000747,68.9400027 L80.3700752,68.9400027 C81.3129152,68.9400027 82.0800753,69.7071628 82.0800753,70.6500028 C82.0800753,71.5928428 81.3129152,72.3600029 80.3700752,72.3600029 L68.4000747,72.3600029 C67.9029147,72.3600029 67.5000747,72.7628429 67.5000747,73.2600029 C67.5000747,73.7571629 67.9029147,74.1600029 68.4000747,74.1600029 L80.3700752,74.1600029 C81.3129152,74.1600029 82.0800753,74.927163 82.0800753,75.870003 C82.0800753,76.8128431 81.3129152,77.5800031 80.3700752,77.5800031 L78.1189951,77.5800031 C77.9870551,77.5490431 77.8480951,77.5477831 77.7105751,77.5800031 L68.4000747,77.5800031 C67.9029147,77.5800031 67.5000747,77.9828431 67.5000747,78.4800031 C67.5000747,78.9771631 67.9029147,79.3800032 68.4000747,79.3800032 L77.2155751,79.3800032 C77.2171951,79.4100632 77.2200751,79.4397632 77.2200751,79.4700032 C77.2200751,80.4061832 76.462455,81.2104232 75.449415,81.3600032 L64.0158145,81.3600032 C63.8984545,81.3040232 63.7686745,81.2700032 63.6300745,81.2700032 C62.7145945,81.2700032 58.5546143,80.9325032 56.4210742,79.3733432 C56.2668142,79.2606631 56.0808742,79.2000031 55.8900742,79.2000031 L38.1600735,79.2000031 L38.1600735,62.6400025 L52.0357341,62.6400025 C52.3203141,62.6400025 52.5879741,62.5053625 52.7578941,62.2771225 C54.6005542,59.7997824 57.5701943,58.2373823 60.8283744,57.9936623 L60.8400744,62.6423425 C60.8411544,63.1386025 61.2438144,63.5400025 61.7400745,63.5400025 L80.3700752,63.5400025 C81.3129152,63.5400025 82.0800753,64.3071626 82.0800753,65.2500026 C82.0800753,66.1928426 81.3129152,66.9600027 80.3700752,66.9600027 L68.4000747,66.9600027 C67.9029147,66.9600027 67.5000747,67.3628427 67.5000747,67.8600027 C67.5000747,67.8907827 67.5060147,67.9199427 67.5090747,67.9500027 M83.8800753,70.6500028 C83.8800753,69.5653228 83.3850753,68.5944027 82.6096353,67.9500027 C83.3850753,67.3056027 83.8800753,66.3346826 83.8800753,65.2500026 C83.8800753,63.3146425 82.3054353,61.7400025 80.3700752,61.7400025 L62.6377345,61.7400025 L62.6258545,57.0576623 C62.6247745,56.5614022 62.2221145,56.1600022 61.7258545,56.1600022 C57.7170743,56.1600022 53.9655141,57.9015023 51.5947341,60.8400024 L37.2600735,60.8400024 C36.7629135,60.8400024 36.3600734,61.2428424 36.3600734,61.7400025 L36.3600734,80.1000032 C36.3600734,80.5971632 36.7629135,81.0000032 37.2600735,81.0000032 L55.6080142,81.0000032 C57.8810543,82.5075033 61.4648544,82.9744233 63.1282345,83.0559633 C63.2520745,83.1202233 63.3906745,83.1600022 63.5400745,83.1600022 L75.510075,83.1600022 C75.547335,83.1600022 75.584595,83.1576633 75.621495,83.1531633 C77.5590151,82.9110633 79.0200751,81.3277832 79.0200751,79.4700032 C79.0200751,79.4397632 79.0162951,79.4100632 79.0155751,79.3800032 L80.3700752,79.3800032 C82.3054353,79.3800032 83.8800753,77.8053631 83.8800753,75.870003 C83.8800753,74.833383 83.4255753,73.9031429 82.7086353,73.2600029 C83.4255753,72.6168629 83.8800753,71.6866228 83.8800753,70.6500028" id="Fill-13" fill="#212629"></path>
                                </g>
                            </g>
                        </g>
                    </g>
                </g>
            </g>
        </g>
    </g>
</svg>