<?xml version="1.0" encoding="UTF-8"?>
<svg width="100px" height="78px" viewBox="0 0 100 78" version="1.1" xmlns="http://www.w3.org/2000/svg" xmlns:xlink="http://www.w3.org/1999/xlink">
    <!-- Generator: sketchtool 63.1 (101010) - https://sketch.com -->
    <title>3189C6B7-99FA-4C5A-BDFE-00E5DAE01BE8</title>
    <desc>Created with sketchtool.</desc>
    <g id="Page-1" stroke="none" stroke-width="1" fill="none" fill-rule="evenodd">
        <g id="1-Food-Future-Foundation---Home" transform="translate(-649.000000, -3596.000000)">
            <g id="2" transform="translate(0.000000, 3095.000000)">
                <g id="Group-13-Copy-5" transform="translate(201.000000, 460.000000)">
                    <g id="Group-13">
                        <g id="Group-17">
                            <g id="Group-16" transform="translate(418.000000, 0.000000)">
                                <g id="Group-15" transform="translate(30.000000, 41.000000)">
                                    <path d="M18.7486223,6.00841056 C16.1647193,6.00841056 14.0626222,8.11050758 14.0626222,10.6944106 C14.0626222,13.2783136 16.1647193,15.3804106 18.7486223,15.3804106 C21.3325253,15.3804106 23.4346223,13.2783136 23.4346223,10.6944106 C23.4346223,8.11050758 21.3325253,6.00841056 18.7486223,6.00841056 M18.7486223,17.5104107 C14.9902372,17.5104107 11.9326222,14.4527956 11.9326222,10.6944106 C11.9326222,6.93602557 14.9902372,3.87841054 18.7486223,3.87841054 C22.5070073,3.87841054 25.5646223,6.93602557 25.5646223,10.6944106 C25.5646223,14.4527956 22.5070073,17.5104107 18.7486223,17.5104107" id="Fill-1" fill="#212629"></path>
                                    <path d="M49.7401652,6.11503836 C47.1562621,6.11503836 45.0541651,8.21713538 45.0541651,10.8010384 C45.0541651,13.3849414 47.1562621,15.4870384 49.7401652,15.4870384 C52.3240682,15.4870384 54.4261652,13.3849414 54.4261652,10.8010384 C54.4261652,8.21713538 52.3240682,6.11503836 49.7401652,6.11503836 M49.7401652,17.6170385 C45.9817801,17.6170385 42.9241651,14.5594234 42.9241651,10.8010384 C42.9241651,7.04265337 45.9817801,3.98503834 49.7401652,3.98503834 C53.4985502,3.98503834 56.5561652,7.04265337 56.5561652,10.8010384 C56.5561652,14.5594234 53.4985502,17.6170385 49.7401652,17.6170385" id="Fill-3" fill="#6BB46D"></path>
                                    <path d="M81.0511229,6.11491056 C78.4672198,6.11491056 76.3651228,8.21700758 76.3651228,10.8009106 C76.3651228,13.3848136 78.4672198,15.4869106 81.0511229,15.4869106 C83.6350259,15.4869106 85.7371229,13.3848136 85.7371229,10.8009106 C85.7371229,8.21700758 83.6350259,6.11491056 81.0511229,6.11491056 M81.0511229,17.6169107 C77.2927378,17.6169107 74.2351228,14.5592956 74.2351228,10.8009106 C74.2351228,7.04252557 77.2927378,3.98491054 81.0511229,3.98491054 C84.8095079,3.98491054 87.8671229,7.04252557 87.8671229,10.8009106 C87.8671229,14.5592956 84.8095079,17.6169107 81.0511229,17.6169107" id="Fill-5" fill="#212629"></path>
                                    <g id="Group-9" transform="translate(65.178001, 0.140154)" fill="#212629">
                                        <path d="M0.0684795007,0.259753502 C2.42617652,-0.441016504 4.91508155,0.907060509 5.61585155,3.26497053 L9.06368259,14.8653766 L11.8258666,18.1157567 L23.5410797,18.1157567 C23.6923097,18.1157567 23.8360847,18.1472807 23.9664407,18.2041517 C25.7494637,18.3913787 27.2485578,19.6223057 27.7678518,21.3699707 L34.2515718,43.1850049 C34.5910938,44.3275369 34.4654238,45.5335429 33.8977788,46.5815029 C33.3301338,47.62925 32.3884608,48.393281 31.2461418,48.73259 C28.8880188,49.432508 26.3995398,48.085283 25.6985567,45.7273729 L24.6060797,42.0514189 L24.6060797,47.396015 L25.3530707,72.7928572 C25.3882157,73.9867222 24.9522047,75.1132792 24.1251257,75.9648532 C23.2982597,76.8166402 22.1849087,77.2856662 20.9906177,77.2856662 C18.5468687,77.2856662 16.5003647,75.2983762 16.4283707,72.8556922 L16.2200567,65.7717381 L16.0117427,72.8559052 C15.9397487,75.2985892 13.8932446,77.2856662 11.4494956,77.2856662 C10.2552046,77.2856662 9.14206659,76.8166402 8.31498758,75.9650662 C7.48790857,75.1132792 7.05189757,73.9869352 7.08704257,72.7930702 L7.77950557,49.245494 C7.77929257,49.235057 7.77907957,49.224407 7.77907957,49.213757 L7.77907957,26.3011338 L1.16457751,18.5176877 C0.917071509,18.3830717 0.733039507,18.1558007 0.652738506,17.8857167 L0.0631545006,15.9014087 L1.55862751,13.4568076 L2.58017552,16.8944147 L9.65560959,25.2199457 C9.81919359,25.4124977 9.90907959,25.6568087 9.90907959,25.9096397 L9.90907959,49.150922 C9.91099659,49.182233 9.91142259,49.213544 9.91057059,49.245281 L9.21597759,72.8556922 C9.19808559,73.4687062 9.42067059,74.0461492 9.84304959,74.4810952 C10.2656416,74.9160412 10.8360556,75.1556662 11.4494956,75.1556662 C12.7528426,75.1556662 13.8442546,74.0957782 13.8825946,72.7930702 L14.5771876,49.182446 C14.5940146,48.606707 15.0655966,48.148757 15.6417616,48.148757 L16.7985647,48.148757 C17.3745167,48.148757 17.8460987,48.606707 17.8629257,49.182446 L18.5575187,72.7930702 C18.5958587,74.0957782 19.6872707,75.1556662 20.9906177,75.1556662 C21.6040577,75.1556662 22.1746847,74.9160412 22.5970637,74.4810952 C23.0194427,74.0461492 23.2420277,73.4687062 23.2241357,72.8556922 L22.4765057,47.443088 C22.4762927,47.432438 22.4760797,47.422001 22.4760797,47.411564 L22.4760797,34.7297568 C22.4760797,34.2008778 22.8643787,33.7518738 23.3877197,33.6758328 C23.9114867,33.5989398 24.4113977,33.9190788 24.5619887,34.4262318 L27.7403748,45.1203229 C27.9178038,45.7173619 28.3169658,46.2096049 28.8645888,46.5061009 C29.4119988,46.8025969 30.0422658,46.8684139 30.6393048,46.6907719 C31.8715098,46.3248379 32.5759008,45.0240469 32.2097538,43.7920549 L25.7262467,21.9770207 C25.4342237,20.9942387 24.5498477,20.3241407 23.5259567,20.3096567 C23.4034817,20.3077397 23.2861187,20.2855877 23.1770627,20.2457567 L11.3334106,20.2457567 C11.0209396,20.2457567 10.7242306,20.1085847 10.5218806,19.8704507 L7.29514357,16.0737257 C7.19929357,15.9608357 7.12815157,15.8294147 7.08597757,15.6875566 L3.57424653,3.87202054 L0.0684795007,0.259753502 Z" id="Fill-7"></path>
                                    </g>
                                    <path d="M36.1640349,17.0344835 L43.948759,26.1945485 C44.112343,26.3871006 44.202229,26.6316246 44.202229,26.8842426 L44.202229,47.5518458 C44.202229,47.5622828 44.202016,47.5727198 44.20159,47.5833698 L43.459924,72.801718 C43.422436,74.080357 44.384557,75.19669 45.605047,75.29041 C46.249798,75.340039 46.867711,75.130021 47.3461091,74.699761 C47.8247201,74.269288 48.0988511,73.677787 48.1178081,73.034527 L48.8153831,49.3225148 C48.8322101,48.7469888 49.3037921,48.2888258 49.8797441,48.2888258 L51.0365471,48.2888258 C51.6127121,48.2888258 52.0842941,48.7469888 52.1011211,49.3225148 L52.7957141,72.938464 C52.8334151,74.217529 53.8596491,75.2755 55.0833341,75.297013 C55.7312801,75.313201 56.3347091,75.063139 56.7866951,74.605189 C57.2393201,74.147239 57.4783061,73.540828 57.4593491,72.897355 L56.7677381,49.3853498 C56.7668861,49.3538258 56.7673121,49.3227278 56.7692291,49.2916298 L56.7692291,26.0497085 C56.7692291,25.7970905 56.8589021,25.5525665 57.0224861,25.3600145 L64.0979202,17.0344835 L67.5736542,5.34057035 C67.7508702,4.74374435 67.6852662,4.11347734 67.3885572,3.56585433 C67.0920612,3.01823133 66.6000312,2.61906932 66.0029922,2.44164032 C64.7705742,2.07378932 63.4702092,2.77988433 63.1040622,4.01208934 L59.5923312,15.8276255 C59.5501572,15.9694835 59.4790152,16.1009045 59.3831652,16.2137945 L56.1564281,20.0107325 C55.9540781,20.2486535 55.6573691,20.3858255 55.3448981,20.3858255 L44.91727,20.3858255 C44.604799,20.3858255 44.30809,20.2486535 44.10574,20.0107325 L40.879003,16.2137945 C40.783153,16.1009045 40.711798,15.9694835 40.669624,15.8276255 L37.158106,4.01208934 C36.980464,3.41526333 36.5813019,2.92302033 36.0338919,2.62652432 C35.4864819,2.33024132 34.8562149,2.26442432 34.2591759,2.44164032 C33.6621369,2.61906932 33.1701069,3.01823133 32.8733979,3.56585433 C32.5766889,4.11347734 32.5110849,4.74374435 32.6885139,5.34057035 L36.1640349,17.0344835 Z M45.794191,77.427652 C45.677467,77.427652 45.560104,77.423179 45.442315,77.414233 C43.065022,77.231905 41.259208,75.178585 41.330989,72.738883 L42.072229,47.5362968 L42.072229,27.2757366 L34.7484369,18.6577565 C34.5009309,18.5231405 34.3168989,18.2958695 34.2365979,18.0257855 L30.6469089,5.94740736 C30.3073869,4.80508835 30.4330569,3.59908233 31.0007019,2.55112232 C31.5683469,1.50337531 32.5100199,0.739344307 33.6523389,0.399822304 C34.7944449,0.0607263006 36.0006639,0.186183302 37.048411,0.753615307 C38.096158,1.32126031 38.860189,2.26293332 39.199711,3.40525233 L42.647329,15.0056584 L45.409726,18.2558255 L54.8524421,18.2558255 L57.6146261,15.0056584 L61.0624572,3.40525233 C61.7632272,1.04712931 64.2519192,-0.301160703 66.6098292,0.399822304 C68.9679523,1.10059231 70.3160293,3.58928433 69.6152593,5.94740736 L66.0255702,18.0257855 C65.9452692,18.2958695 65.7612372,18.5231405 65.5137312,18.6577565 L58.8992292,26.4412026 L58.8992292,49.3538258 C58.8992292,49.3642628 58.8990162,49.3744868 58.8985902,49.3849238 L59.5884972,72.834733 C59.6247072,74.065873 59.1676092,75.226297 58.3017642,76.102366 C57.4361321,76.978435 56.2806071,77.453212 55.0458461,77.426587 C52.6619501,77.384626 50.7385601,75.440788 50.6667791,73.001299 L50.4582521,65.9122329 L50.2469561,73.097149 C50.2107461,74.328076 49.6863401,75.459745 48.7704401,76.283629 C47.9425091,77.028064 46.896892,77.427652 45.794191,77.427652 L45.794191,77.427652 Z" id="Fill-10" fill="#6BB46D"></path>
                                    <g id="Group-14" transform="translate(0.000000, 0.140154)" fill="#212629">
                                        <path d="M30.8642967,3.90535504 L27.3525657,15.7208911 C27.3103917,15.8627492 27.2392497,15.9941702 27.1433997,16.1070602 L23.9166626,19.9037852 C23.7143126,20.1419192 23.4176036,20.2790912 23.1051326,20.2790912 L11.2614805,20.2790912 C11.1524245,20.3189222 11.0350615,20.3410742 10.9125865,20.3429912 C9.88869549,20.3574752 9.00431949,21.0275732 8.71229648,22.0103552 L2.22878942,43.8253894 C1.86264242,45.0573814 2.56703342,46.3581724 3.79923844,46.7241064 C4.39627744,46.9017484 5.02654445,46.8359314 5.57395445,46.5394354 C6.12157746,46.2429394 6.52073946,45.7506964 6.69816846,45.1536574 L9.87655449,34.4595663 C10.0271455,33.9524133 10.5270565,33.6322743 11.0508235,33.7091673 C11.5741645,33.7852083 11.9624635,34.2342123 11.9624635,34.7630913 L11.9624635,47.4448985 C11.9624635,47.4553355 11.9622505,47.4657725 11.9620375,47.4764225 L11.2144075,72.8890267 C11.1965155,73.5020407 11.4191005,74.0794837 11.8414795,74.5144297 C12.2638585,74.9493757 12.8344855,75.1890007 13.4479255,75.1890007 C14.7512725,75.1890007 15.8426846,74.1291127 15.8810246,72.8264047 L16.5756176,49.2157805 C16.5924446,48.6400415 17.0640266,48.1820915 17.6399786,48.1820915 L18.7967816,48.1820915 C19.3729466,48.1820915 19.8445286,48.6400415 19.8613556,49.2157805 L20.5559486,72.8264047 C20.5942886,74.1291127 21.6857006,75.1890007 22.9890476,75.1890007 C23.6024876,75.1890007 24.1729016,74.9493757 24.5954936,74.5144297 C25.0178726,74.0794837 25.2404576,73.5020407 25.2225656,72.8890267 L24.5279726,49.2786155 C24.5271206,49.2468785 24.5275466,49.2155675 24.5294636,49.1842565 L24.5294636,25.9429742 C24.5294636,25.6901432 24.6193496,25.4458322 24.7829336,25.2532802 L31.8583677,16.9277492 L32.8799157,13.4901421 L34.3753887,15.9347432 L33.7858047,17.9190512 C33.7055037,18.1891352 33.5214717,18.4164062 33.2739657,18.5510222 L26.6594637,26.3344683 L26.6594637,49.2470915 C26.6594637,49.2577415 26.6592507,49.2683915 26.6590377,49.2788285 L27.3515007,72.8264047 C27.3866457,74.0202697 26.9504217,75.1466137 26.1235556,75.9984007 C25.2964766,76.8499747 24.1833386,77.3190007 22.9890476,77.3190007 C20.5452986,77.3190007 18.4987946,75.3319237 18.4268006,72.8892397 L18.2184866,65.8050726 L18.0101726,72.8890267 C17.9381786,75.3317107 15.8916746,77.3190007 13.4479255,77.3190007 C12.2536345,77.3190007 11.1402835,76.8499747 10.3134175,75.9981877 C9.48633849,75.1466137 9.05032749,74.0200567 9.08547249,72.8261917 L9.83246349,47.4293495 L9.83246349,42.0847534 L8.73998648,45.7607074 C8.03900348,48.1186175 5.55052445,49.4658425 3.19240143,48.7659245 C2.05008242,48.4266155 1.10840941,47.6625845 0.540764405,46.6148374 C-0.0268806003,45.5668774 -0.152550601,44.3608714 0.186971402,43.2183394 L6.67069146,21.4033052 C7.18998547,19.6556402 8.68907948,18.4247132 10.4721025,18.2374862 C10.6024585,18.1808282 10.7462335,18.1490912 10.8974635,18.1490912 L22.6126766,18.1490912 L25.3748606,14.8987111 L28.8226917,3.29830503 C29.5234617,0.940395009 32.0123667,-0.407682004 34.3700637,0.293088003 L30.8642967,3.90535504 Z" id="Fill-12"></path>
                                    </g>
                                </g>
                            </g>
                        </g>
                    </g>
                </g>
            </g>
        </g>
    </g>
</svg>