<?xml version="1.0" encoding="UTF-8"?>
<svg width="16px" height="16px" viewBox="0 0 16 16" version="1.1" xmlns="http://www.w3.org/2000/svg" xmlns:xlink="http://www.w3.org/1999/xlink">
    <!-- Generator: sketchtool 63.1 (101010) - https://sketch.com -->
    <title>C0E5DAC4-E508-42C5-BD48-E55A2AC7F2B1</title>
    <desc>Created with sketchtool.</desc>
    <g id="Page-1" stroke="none" stroke-width="1" fill="none" fill-rule="evenodd">
        <g id="1-Food-Future-Foundation---Home" transform="translate(-1190.000000, -4353.000000)" fill="#D0D0D0" fill-rule="nonzero">
            <g id="Group-Copy-8" transform="translate(0.000000, 4313.000000)">
                <g id="Group-9" transform="translate(90.000000, 40.000000)">
                    <g id="Group-7" transform="translate(0.000000, -0.000000)">
                        <path d="M1108.80562,10.3793911 L1107.19438,10.3793911 L1107.19438,7.98126464 L1108.80562,7.98126464 L1108.80562,5.99531616 C1108.80562,5.22092116 1109.07416,4.55893833 1109.61124,4.00936768 C1110.14832,3.45979703 1110.80406,3.18501171 1111.57845,3.18501171 L1111.57845,3.18501171 L1113.60187,3.18501171 L1113.60187,5.58313817 L1111.99063,5.58313817 C1111.76581,5.58313817 1111.57845,5.66432475 1111.42857,5.82669789 C1111.27869,5.98907104 1111.20375,6.17017955 1111.20375,6.37002342 L1111.20375,6.37002342 L1111.20375,7.98126464 L1113.60187,7.98126464 L1113.60187,10.3793911 L1111.20375,10.3793911 L1111.20375,15.9625293 L1116,15.9625293 L1116,-4.54747351e-13 L1100,-4.54747351e-13 L1100,15.9625293 L1108.80562,15.9625293 L1108.80562,10.3793911 Z" id="ï‚"></path>
                    </g>
                </g>
            </g>
        </g>
    </g>
</svg>