<?xml version="1.0" encoding="UTF-8"?>
<svg width="74px" height="77px" viewBox="0 0 74 77" version="1.1" xmlns="http://www.w3.org/2000/svg" xmlns:xlink="http://www.w3.org/1999/xlink">
    <!-- Generator: sketchtool 63.1 (101010) - https://sketch.com -->
    <title>D3436C44-B655-4AE8-B6A9-8FA338058DD0</title>
    <desc>Created with sketchtool.</desc>
    <g id="Page-1" stroke="none" stroke-width="1" fill="none" fill-rule="evenodd">
        <g id="1-Food-Future-Foundation---Home" transform="translate(-683.000000, -1843.000000)" fill="#6BB46D">
            <g id="Group-4" transform="translate(0.000000, 1565.000000)">
                <g id="Group-13-Copy-5" transform="translate(606.000000, 246.000000)">
                    <g id="Group-13" transform="translate(16.000000, 32.000000)">
                        <g id="Group-6" transform="translate(61.000000, 0.000000)">
                            <path d="M60.1354122,74.0759338 C54.2349524,74.0759338 49.4361525,69.2758439 49.4361525,63.3766741 C49.4361525,60.1207142 50.8990125,57.0788943 53.4506324,55.0329543 C53.7112124,54.8226843 53.8634324,54.5053444 53.8634324,54.1699444 L53.8634324,8.77484571 C53.8634324,5.31764581 56.6769223,2.5041559 60.1354122,2.5041559 C63.5939021,2.5041559 66.407392,5.31764581 66.407392,8.77484571 L66.407392,54.1699444 C66.407392,54.5053444 66.559612,54.8226843 66.821482,55.0329543 C69.3718119,57.0788943 70.8346719,60.1207142 70.8346719,63.3766741 C70.8346719,69.2758439 66.035872,74.0759338 60.1354122,74.0759338 L60.1354122,74.0759338 Z M12.4363736,57.8154843 C13.7947436,56.6635143 15.0976436,56.3190843 16.3218535,56.8144443 C18.2207335,57.5832843 20.1518634,57.0195543 21.6160134,55.2703143 C23.8735133,52.5755044 24.5804333,47.7547746 23.0698433,45.3527946 C22.2094133,43.9841047 20.7207534,43.4487547 18.9831234,43.8912247 C17.5899235,44.2459747 17.0378035,44.0666647 16.8314035,43.9312147 C16.4250535,43.6641847 16.2908935,42.8024647 16.1606035,41.9678347 C15.8871235,40.2250448 15.4253035,37.3109349 11.3089137,37.8707949 C9.29651373,38.1468548 8.28644375,37.6411749 8.19743376,37.0593849 C8.06456376,36.1860549 9.29909373,34.6806249 11.9461736,34.230415 C13.6657436,33.938875 18.8992734,33.051355 19.6268334,27.5301552 C20.0538234,24.2870953 19.4307534,21.2710753 18.8657334,19.3838054 C22.1333033,20.0636354 28.3098232,20.9679254 30.8459631,18.7839554 C31.7670231,17.9918954 32.174663,16.8760455 32.0263131,15.5589555 C31.8302331,13.8213256 31.3142331,12.6448456 30.4473531,11.9624356 C29.3444031,11.0929756 28.0311832,11.2568056 26.9733832,11.3883856 C26.4044932,11.4593356 25.7543332,11.5380256 25.5131032,11.3767756 C24.7649033,10.8762556 24.7042733,10.3873457 24.6397733,9.33212569 C24.5920433,8.53490572 24.5223833,7.54805575 23.9044733,6.60635578 C26.5089832,5.8620258 29.2553931,5.45438581 32.0972631,5.45438581 C39.5753928,5.45438581 46.4033626,8.23562573 51.6497925,12.7919056 L51.6497925,22.0760353 C50.2565925,21.4465153 49.0065826,20.2055354 48.8143726,18.6639854 C48.4364026,15.6505455 46.9258126,13.5155956 44.8708427,13.0924756 C43.5240827,12.8086756 40.8383028,13.0808656 37.9577329,17.9828654 C37.0598929,19.5115154 36.8999329,21.2414053 37.5230029,22.7300653 C38.2402429,24.4470552 39.9120828,25.7151252 42.2302128,26.3033652 C42.9539027,26.4865452 43.8491627,26.8619352 43.9923527,27.6088452 C44.1445727,28.4073551 43.4944127,29.5631951 42.4804727,30.2946251 C42.1502328,30.5332751 41.0021328,31.268575 40.0333428,30.7280651 C39.5457228,30.4558751 39.0980928,30.1901351 38.6736829,29.9398751 C36.0420829,28.3841351 33.965183,27.1547652 30.5041131,29.1091151 C28.2414532,30.3875051 26.9295232,32.963635 27.3797332,35.2340349 C27.7293232,36.9871449 29.0502831,38.1700748 30.9156231,38.3984048 C31.9244031,38.5196648 32.522963,39.5465048 32.731943,40.3875848 C32.944793,41.2480148 32.753873,41.8259347 32.649383,41.9007547 C31.0085031,42.6618547 29.6798031,44.3349847 29.0954331,46.3757646 C28.4710732,48.5494145 28.7922831,50.8365845 29.9752131,52.6529044 C31.2871431,54.6653044 32.694533,55.0910043 33.650423,55.0910043 L33.665903,55.0910043 C35.055233,55.0832643 36.4664929,54.1699444 37.4391529,52.6451644 C37.8287329,52.0324144 38.1099529,51.4841644 38.3911729,50.9307545 C38.8620229,50.0109845 39.3057828,49.1428145 40.3442328,47.8863546 C41.0614728,47.0220546 43.2957527,46.5873246 44.6812127,46.4983146 C44.8115027,46.4738046 45.9892726,46.2170946 46.8587326,44.9193546 C47.8043026,43.5093847 48.0094126,41.4660247 47.4740626,38.8473248 C47.1489826,37.2683649 47.6856226,36.3073149 49.0659225,35.9925549 C49.8708825,35.8093749 50.8241925,35.9009649 51.6497925,36.2170149 L51.6497925,53.6526544 C49.4529225,55.5683043 48.0055426,58.1276643 47.4676126,60.9359942 C42.9706727,63.6462841 37.7177929,65.221374 32.0972631,65.221374 C24.5726933,65.221374 17.6957035,62.4207841 12.4363736,57.8154843 L12.4363736,57.8154843 Z M22.4312933,9.46499569 C22.4970833,10.5705257 22.5886733,12.0849856 24.2824433,13.2176056 C25.2112433,13.8393856 26.2922632,13.7026456 27.2468632,13.5852556 C27.9950632,13.4910856 28.7006932,13.4033656 29.0773731,13.7013556 C29.3340831,13.9025956 29.6720631,14.4327855 29.8268631,15.8066355 C29.9120031,16.5612855 29.6436831,16.8979755 29.4024531,17.1069555 C27.5564632,18.6949454 21.0767934,17.7455054 17.4260935,16.7754255 C17.0145835,16.6644855 16.5734035,16.8025155 16.2960535,17.1301755 C16.0199935,17.4552555 15.9567835,17.9119154 16.1335135,18.3014954 C16.1528635,18.3440654 18.0440035,22.5881653 17.4338335,27.2411952 C16.9797535,30.6777551 14.2165736,31.600105 11.5114437,32.059345 C7.65692377,32.713375 5.68709383,35.2869249 6.00959382,37.3947849 C6.24695382,38.9453648 7.86590377,40.5720548 11.6081937,40.0637948 C13.5793136,39.7980548 13.6876736,40.4778848 13.9727636,42.3096847 C14.1675536,43.5571147 14.3881436,44.9709546 15.6110635,45.7797846 C16.5308335,46.3860846 17.8143835,46.4712246 19.5275034,46.0377846 C20.5633734,45.7733346 20.9658534,46.1616246 21.1941834,46.5305646 C22.1874833,48.1082345 21.5192634,51.9382444 19.9196634,53.8500244 C18.6464334,55.3670643 17.5241335,54.9129843 17.1526135,54.7620544 C15.6549235,54.1583344 13.3935536,53.9867644 10.8109737,56.2855443 C10.7374437,56.2107243 10.6664937,56.1346143 10.5942537,56.0585043 C10.0408437,55.4857443 9.51194372,54.8975043 9.01013373,54.2899144 C8.85146374,54.0977044 8.70053374,53.8977544 8.54573375,53.7003844 C8.13680376,53.1792244 7.74593377,52.6490344 7.37441378,52.1059444 C7.16930379,51.8040844 6.97322379,51.4957744 6.7797238,51.1861745 C6.51269381,50.7630545 6.25856381,50.3347745 6.01475382,49.9000445 C5.77739383,49.4756345 5.54906384,49.0460645 5.33234384,48.6087545 C5.12981385,48.2024045 4.93760385,47.7921846 4.75442386,47.3768046 C4.55576387,46.9278846 4.36871387,46.4738046 4.19198388,46.0145646 C3.99848388,45.5075946 3.81530389,44.9980446 3.65018389,44.4820447 C3.5353739,44.1272947 3.4308839,43.7673847 3.3289739,43.4074747 C3.14192391,42.7328047 2.96519391,42.0542647 2.82458392,41.3641147 C2.78459392,41.1706148 2.75492392,40.9745348 2.71880392,40.7797448 C2.57303392,39.9799448 2.44661393,39.1736948 2.36534393,38.3571248 C2.35760393,38.2745648 2.35373393,38.1894248 2.34599393,38.1068648 C2.26343393,37.1922549 2.21312393,36.2699049 2.21312393,35.3385249 C2.21312393,34.6367649 2.24666393,33.941455 2.29439393,33.250015 C2.30471393,33.101665 2.31632393,32.953315 2.32922393,32.804965 C2.44919393,31.384675 2.66849392,29.9863151 2.98454391,28.6189151 C3.00131391,28.5479651 3.01679391,28.4770151 3.03356391,28.4073551 C3.3728339,26.9909352 3.81272389,25.6080552 4.34807387,24.2690353 C4.36226387,24.2316253 4.37774387,24.1929253 4.39322387,24.1542253 C4.66541386,23.4808453 4.96082385,22.8177853 5.28074384,22.1676253 C5.28977384,22.1508553 5.29880384,22.1340853 5.30654384,22.1160253 C5.60582383,21.5123053 5.92832382,20.9214854 6.26630381,20.3396954 C6.31274381,20.2597154 6.35789381,20.1771554 6.40562381,20.0971754 C6.7410238,19.5334454 7.09448379,18.9839054 7.46471378,18.4433954 C7.55759378,18.3079454 7.65563377,18.1750754 7.75109377,18.0422054 C8.04005376,17.6345654 8.34191375,17.2359555 8.65022374,16.8425055 C8.77277374,16.6889955 8.88887374,16.5329055 9.01400373,16.3819755 C9.37262372,15.9446655 9.74672371,15.5202555 10.1298537,15.1048755 C10.3259337,14.8933155 10.5245937,14.6856255 10.7258337,14.4792255 C10.9748037,14.2238055 11.2302237,13.9761256 11.4882237,13.7284456 C11.8249137,13.4072356 12.1680536,13.0950556 12.5202236,12.7893256 C12.7717736,12.5700256 13.0259036,12.3520156 13.2864836,12.1404556 C13.5457736,11.9301856 13.8076436,11.7224956 14.0733836,11.5212556 C14.3636336,11.3006656 14.6603336,11.0891056 14.9596136,10.8788356 C15.3221035,10.6247057 15.6910435,10.3783157 16.0651435,10.1383757 C16.3734535,9.94229568 16.6830535,9.75008568 16.9991035,9.56561569 C17.2403335,9.42242569 17.4828535,9.2805257 17.7292435,9.1450757 C18.2387935,8.86514571 18.7573734,8.59682572 19.2862734,8.34527572 C19.4720334,8.25626573 19.6629534,8.17499573 19.8500034,8.08985573 C20.3466534,7.86668574 20.8484634,7.65512574 21.3593034,7.45775575 C21.4496034,7.42292575 21.5386134,7.38551575 21.6289134,7.35197575 C22.3384133,7.92731574 22.3758233,8.53877572 22.4312933,9.46499569 L22.4312933,9.46499569 Z M51.6497925,33.916945 C50.6268225,33.653785 49.5483825,33.612505 48.5731426,33.834385 C46.0266826,34.416175 44.7444227,36.5575749 45.3068627,39.2923748 C46.1479426,43.4061847 44.5986527,44.1982447 44.2838927,44.3143447 C43.4931227,44.3711047 40.0978428,44.7142446 38.6414329,46.4738046 C37.4430229,47.9173146 36.9231529,48.9389945 36.4200529,49.9258445 C36.1685029,50.4186245 35.9208229,50.9088245 35.5725229,51.4544944 C35.154563,52.1085244 34.402493,52.8734944 33.654293,52.8773644 L33.650423,52.8773644 C32.917703,52.8773644 32.255933,52.0982044 31.8289431,51.4441744 C30.6898731,49.6962245 30.9594831,47.8992546 31.2226431,46.9859346 C31.6277031,45.5746746 32.530703,44.3956147 33.579473,43.9079947 C34.706933,43.3855447 35.242283,42.0155647 34.977833,40.3334048 C34.683713,38.4706448 33.396293,36.4698549 31.1826531,36.2002449 C30.2628831,36.0880149 29.7133431,35.6184549 29.5520931,34.8031749 C29.3250531,33.664105 29.9636031,31.957435 31.5941631,31.0350851 C32.471363,30.5397251 33.179573,30.3230051 33.850373,30.3230051 C34.973963,30.3230051 35.9969329,30.9280151 37.5475129,31.845205 C37.9848229,32.104495 38.4492229,32.379265 38.9536128,32.660485 C40.3726128,33.456415 42.1786128,33.240985 43.7756327,32.089015 C45.2294627,31.0389551 46.5323626,29.1194351 46.1647126,27.1934652 C46.0021726,26.3394852 45.3455627,24.8082552 42.7745927,24.1568053 C41.1466128,23.7452953 40.0075428,22.9351753 39.5650728,21.8760853 C39.2090328,21.0246853 39.3148128,20.0404154 39.8656428,19.1038754 C41.4381528,16.4309955 43.1448227,15.0055455 44.4232127,15.2596755 C45.5042327,15.4828455 46.3659526,16.9276455 46.6175026,18.9400454 C46.9696726,21.7561153 49.2916725,23.7143353 51.6497925,24.4315752 L51.6497925,33.916945 Z M68.621032,53.6526544 L68.621032,8.77484571 C68.621032,4.09730585 64.8142421,0.290515962 60.1354122,0.290515962 C55.4565824,0.290515962 51.6497925,4.09730585 51.6497925,8.77484571 L51.6497925,9.93326568 C46.2292126,5.7523758 39.4567128,3.24203587 32.0972631,3.24203587 C28.3640032,3.24203587 24.7816733,3.88832586 21.4470234,5.06480582 C21.4354134,5.06867582 21.4225134,5.06480582 21.4109034,5.06996582 C21.3657534,5.08544582 21.3218934,5.10608582 21.2767434,5.12285582 C20.6123934,5.36150581 19.9596534,5.6220858 19.3159434,5.9033058 C19.1108334,5.99231579 18.9083034,6.08648579 18.7044834,6.18065579 C18.2013835,6.41285578 17.7034435,6.65666577 17.2145335,6.91337577 C16.9281535,7.06430576 16.6443535,7.21910576 16.3631335,7.37906575 C15.9490435,7.61255575 15.5401135,7.85378574 15.1363436,8.10533573 C14.8628636,8.27690573 14.5906736,8.44976572 14.3223536,8.62907572 C13.8682736,8.93093571 13.4232236,9.2431157 12.9872036,9.56819569 C12.6943736,9.78620568 12.4092836,10.0119557 12.1254836,10.2389957 C11.8429736,10.4647457 11.5643337,10.6943657 11.2895637,10.9278556 C11.0393037,11.1419956 10.7877537,11.3535556 10.5439437,11.5741456 C10.1130837,11.9663056 9.69383371,12.3713656 9.28490373,12.7854556 C9.07592373,12.9970156 8.87339374,13.2124456 8.67086374,13.4304556 C8.33288375,13.7916556 8.00264376,14.1605956 7.68143377,14.5372755 C7.53566378,14.7088455 7.38602378,14.8778355 7.24412379,15.0532755 C6.8429338,15.5447655 6.45851381,16.0504455 6.08570382,16.5664455 C5.97734382,16.7173755 5.86898383,16.8683055 5.76191383,17.0205255 C5.35169384,17.6100554 4.95566385,18.2099054 4.58414386,18.8278154 C4.56995386,18.8510354 4.55705387,18.8755454 4.54286387,18.8987654 C4.15586388,19.5450554 3.79595389,20.2081154 3.4541039,20.8814954 C3.4257239,20.9369654 3.3960539,20.9911453 3.3689639,21.0466153 C3.01679391,21.7509553 2.69042392,22.4681953 2.38985393,23.2009153 C2.38727393,23.2086553 2.38340393,23.2163953 2.38082393,23.2254253 C1.77581395,24.7024752 1.28045396,26.2349952 0.899903973,27.8126651 C0.884423974,27.8758751 0.870233974,27.9390851 0.856043975,28.0022951 C0.505163985,29.4948251 0.258773992,31.0273451 0.125903996,32.592115 C0.111713997,32.746915 0.101393997,32.903005 0.0897839973,33.059095 C0.0368939989,33.812455 -0.000515999985,34.5709749 -0.000515999985,35.3385249 C-0.000515999985,43.3971547 2.93294391,50.9372045 8.29160375,56.8428243 C8.32901375,56.8853943 8.36771375,56.9279643 8.40641375,56.9705343 C8.69795374,57.2878743 8.99594373,57.6000543 9.30167372,57.9083643 C9.38423372,57.9922143 9.46937372,58.0760643 9.55322372,58.1586243 C9.71705371,58.3198742 9.87443371,58.4862842 10.0421337,58.6449542 C10.0601937,58.6630142 10.0859937,58.6694642 10.1066337,58.6862342 C15.8548735,64.1042341 23.5922933,67.435014 32.0972631,67.435014 C37.5707329,67.435014 42.7204127,66.043104 47.2354126,63.6179041 C47.3644126,70.6251839 53.0958824,76.2895737 60.1354122,76.2895737 C67.256212,76.2895737 73.0483118,70.4974739 73.0483118,63.3766741 C73.0483118,59.6253542 71.4409719,56.1126843 68.621032,53.6526544 L68.621032,53.6526544 Z" id="Fill-1"></path>
                            <path d="M60.1354122,66.697263 C58.3049023,66.697263 56.8149523,65.207313 56.8149523,63.3768031 C56.8149523,61.5462932 58.3049023,60.0563432 60.1354122,60.0563432 C61.9659222,60.0563432 63.4558721,61.5462932 63.4558721,63.3768031 C63.4558721,65.207313 61.9659222,66.697263 60.1354122,66.697263 M61.2422322,57.9549333 L61.2422322,8.77626471 C61.2422322,8.16480473 60.7468722,7.66944474 60.1354122,7.66944474 C59.5239522,7.66944474 59.0285923,8.16480473 59.0285923,8.77626471 L59.0285923,57.9549333 C56.5066423,58.4696432 54.6013124,60.7039232 54.6013124,63.3768031 C54.6013124,66.428943 57.0845623,68.9109029 60.1354122,68.9109029 C63.1862621,68.9109029 65.6695121,66.428943 65.6695121,63.3768031 C65.6695121,60.7039232 63.7641821,58.4696432 61.2422322,57.9549333" id="Fill-4"></path>
                        </g>
                    </g>
                </g>
            </g>
        </g>
    </g>
</svg>