<?xml version="1.0" encoding="UTF-8"?>
<svg width="85px" height="72px" viewBox="0 0 85 72" version="1.1" xmlns="http://www.w3.org/2000/svg" xmlns:xlink="http://www.w3.org/1999/xlink">
    <!-- Generator: sketchtool 63.1 (101010) - https://sketch.com -->
    <title>413C4035-5876-405C-ABD3-DCCB08EEFBDF</title>
    <desc>Created with sketchtool.</desc>
    <g id="Page-1" stroke="none" stroke-width="1" fill="none" fill-rule="evenodd">
        <g id="1-Food-Future-Foundation---Home" transform="translate(-162.000000, -1848.000000)" fill="#6BB46D">
            <g id="Group-4" transform="translate(0.000000, 1565.000000)">
                <g id="Group-13-Copy" transform="translate(90.000000, 246.000000)">
                    <g id="Group-13" transform="translate(16.000000, 37.000000)">
                        <g id="Group-12" transform="translate(56.000000, 0.000000)">
                            <path d="M35.0039489,43.9649025 C35.1039917,44.0328803 35.21173,44.0803365 35.3220336,44.1124015 C35.782487,44.2457919 36.2968096,44.0739235 36.577699,43.6545133 C36.9265662,43.1337777 36.7867628,42.4296303 36.2673098,42.0807631 C32.7016819,39.6912794 30.1646992,36.0743475 29.1245106,31.8943542 C28.9718812,31.2864018 28.3562332,30.917013 27.7495634,31.0670772 C27.141611,31.218424 26.7722222,31.834072 26.9222864,32.4420243 C28.1009958,37.1696878 30.9701719,41.2624643 35.0039489,43.9649025" id="Fill-1"></path>
                            <path d="M64.1401311,14.4045644 C65.2149499,14.9086262 66.1486827,16.1873784 66.5796362,17.7431722 C66.705331,18.1920821 66.782287,18.6486877 66.8105042,19.1001629 C66.846417,19.7017023 67.346631,20.1647209 67.9417574,20.1647209 C67.9635616,20.1647209 67.987931,20.1634383 68.0110178,20.1621557 C68.6369266,20.1236777 69.1114886,19.5862683 69.0742932,18.9603595 C69.0358152,18.3524071 68.9332072,17.7380418 68.7651866,17.1352198 C68.154669,14.9291478 66.7861348,13.1399209 65.1046463,12.3524045 C64.5377371,12.0843411 63.8618069,12.3280351 63.5963087,12.8962269 C63.3295279,13.4631361 63.5732219,14.1390662 64.1401311,14.4045644" id="Fill-3"></path>
                            <path d="M30.2637159,17.2589907 C30.3983889,17.3115773 30.5381923,17.3359467 30.6754305,17.3359467 C31.1281883,17.3359467 31.5578593,17.0627529 31.7310102,16.6138429 C32.3902666,14.9233761 33.5215198,13.5869069 34.7592288,13.0366716 C35.3312684,12.7827168 35.5903536,12.1131996 35.3363988,11.54116 C35.082444,10.9678378 34.4129268,10.7087526 33.8396046,10.96399 C32.0401168,11.7617672 30.5022795,13.5214943 29.6185681,15.7916963 C29.3915479,16.3739967 29.6801329,17.0319705 30.2637159,17.2589907" id="Fill-5"></path>
                            <path d="M44.4214391,32.2990144 L64.6211061,32.2990144 C65.2482975,32.2990144 65.7562071,31.7911049 65.7562071,31.1651961 C65.7562071,30.5392873 65.2482975,30.0313777 64.6211061,30.0313777 L44.4214391,30.0313777 C43.7955304,30.0313777 43.2876208,30.5392873 43.2876208,31.1651961 C43.2876208,31.7911049 43.7955304,32.2990144 44.4214391,32.2990144" id="Fill-7"></path>
                            <g id="Group-11" transform="translate(0.000000, 0.053938)">
                                <path d="M82.1400108,53.7903189 C82.0797286,54.9844195 80.5034133,56.3093452 79.9057217,56.7146468 C55.437562,75.544497 27.7295549,70.5282485 9.80137246,63.4059709 C7.9967543,62.6889975 3.77187,62.9609087 1.92364344,62.7967359 L1.92364344,50.1438872 C4.47986518,50.0117794 7.9993195,48.4700942 10.0501969,47.4658184 C21.0010354,42.103268 33.6423407,47.0553864 35.9394773,48.3764644 C38.5752202,49.8950628 40.8736394,51.20588 53.3918151,51.0570984 C53.4174671,51.0570984 55.0489342,51.0019466 56.1211878,52.0895913 C56.8830522,52.8629991 57.2126804,54.0686431 57.104942,55.6744582 C57.0267034,56.806994 56.1404268,57.7022488 54.4717643,58.339701 C51.5679579,59.2298254 45.8193449,59.9775812 34.8826149,58.538504 C34.3503359,58.461548 33.8744913,58.839915 33.8039483,59.3670636 C33.7346879,59.8929296 34.1053593,60.3764697 34.6325079,60.4457301 C38.8496966,61.0010959 42.5910407,61.2794201 45.8373013,61.2794201 C49.5337544,61.2794201 52.5837771,60.9164443 54.9681304,60.1956231 C64.5517174,58.3858746 71.0160213,55.7283274 75.2922096,53.9698829 C78.3961015,52.6949785 80.6380863,51.7676587 81.3524945,52.3666329 C82.1759236,53.0515413 82.148989,53.6069071 82.1400108,53.7903189 M23.0301086,28.5705557 C23.0121522,28.3384051 23.0891082,28.1177979 23.2455854,27.9484947 C23.3982148,27.7830393 23.6059959,27.6919747 23.8304509,27.6919747 L25.3387885,27.6919747 L42.7346919,27.6919747 L42.7513657,27.6919747 L57.1767676,27.6919747 L57.1793328,27.6919747 L72.7244444,27.6919747 L73.9685664,27.6919747 C74.1917388,27.6919747 74.39952,27.7830393 74.5521494,27.9484947 C74.7099092,28.1177979 74.7855826,28.3384051 74.7676262,28.5705557 C74.0121748,38.4273364 67.676131,46.7013889 59.028842,50.4081028 C58.5376062,50.532515 58.0309792,50.6517968 57.5140914,50.7685134 C57.5051132,50.7595352 57.4999828,50.7479918 57.4910046,50.7390136 C55.8005378,49.0228948 53.3918151,49.1370462 53.3302503,49.134481 C41.3597448,49.2781322 39.2896284,48.0878794 36.8988621,46.7103671 C35.8843255,46.1255015 33.3422123,44.9968135 29.8984314,44.1426019 C26.0365229,39.9831302 23.490562,34.5756887 23.0301086,28.5705557 M26.7611919,18.0096275 C28.6581572,11.1669566 33.8719261,6.62013975 38.3700042,7.86554432 C39.1921508,8.09384712 39.9334936,8.50299651 40.5876196,9.0557971 C40.6042934,9.0724709 40.6132716,9.0942751 40.631228,9.1109489 C43.1836019,11.3362598 44.2789423,15.7997077 43.5517081,20.4388718 C43.5388821,20.5106974 43.5260561,20.5838056 43.5145127,20.6556312 C43.4080569,21.28154 43.2759491,21.9112966 43.1015155,22.5372054 C42.9437557,23.1079624 42.7500831,23.680002 42.5281933,24.2481938 C42.5076717,24.3033456 42.4820197,24.3572148 42.4602155,24.4123666 C42.3242599,24.7522555 42.1613697,25.0882967 42.0036099,25.4243379 L26.2738039,25.4243379 C25.8954369,23.083593 26.0608923,20.5401972 26.7611919,18.0096275 M51.4833063,2.43629865 C54.4704817,2.43629865 57.3114406,4.07417881 59.4431217,6.97926774 C59.4238827,6.98696334 59.4072089,6.99850674 59.3879699,7.00620234 C59.2969053,7.04468034 59.2122538,7.09341914 59.1237544,7.13574494 C58.9211036,7.23193994 58.721018,7.33070014 58.5273454,7.44356893 C58.4221722,7.50641633 58.3208468,7.57695933 58.2182388,7.64493713 C58.0502182,7.75524073 57.8834802,7.86810952 57.7231552,7.99252172 C57.617982,8.07460812 57.5166566,8.16182492 57.4153312,8.24904171 C57.2665496,8.37730171 57.1203332,8.50940951 56.9792472,8.64921291 C56.880487,8.7479731 56.784292,8.8480159 56.6893796,8.9519065 C56.5547066,9.0994055 56.4238814,9.25460009 56.296904,9.41492509 C56.2084046,9.52522869 56.1199052,9.63553228 56.0352536,9.75224888 C55.9108414,9.92539988 55.7928422,10.1075291 55.6761256,10.2922235 C55.6017348,10.4102227 55.5260614,10.5256567 55.4555184,10.6487863 C55.3336714,10.8591327 55.2220852,11.0823051 55.1117816,11.3080426 C55.0579124,11.4183462 55.0001954,11.5222368 54.9488914,11.6351056 C54.7936968,11.980125 54.6500457,12.3379704 54.5205031,12.711207 C53.4880101,15.7163387 53.4597929,19.3191621 54.4396993,22.8540076 C54.6231111,23.519677 54.8552616,24.1725204 55.1117816,24.8163855 C55.1579552,24.9343847 55.2015636,25.0511013 55.2503024,25.1678179 C55.2862152,25.2524695 55.3144324,25.3396863 55.3516278,25.4243379 L44.5033973,25.4243379 C44.5136581,25.3999685 44.5226363,25.3743165 44.5316145,25.3499471 C44.6008749,25.1767961 44.6637223,25.0036451 44.7278523,24.8292115 C44.9381987,24.2687154 45.1305887,23.7069366 45.2870659,23.1425926 C45.4679125,22.4897492 45.6038681,21.839471 45.7193021,21.1930406 C45.7500845,21.0198896 45.7783017,20.8467386 45.8039537,20.6748702 C45.8886052,20.120787 45.9527352,19.5718343 45.9912132,19.0280119 C45.9989088,18.9254039 46.0130174,18.8215133 46.0181478,18.7189053 C46.0514954,18.1250615 46.0489302,17.5414785 46.0284086,16.9643085 C46.020713,16.7347231 46.0040392,16.5089855 45.9873654,16.2819653 C45.9604308,15.9112939 45.9206702,15.5470356 45.8706488,15.186625 C45.8270405,14.8621272 45.7770191,14.5427598 45.7154543,14.2272402 C45.6410635,13.8475906 45.5589771,13.4730714 45.4589343,13.108813 C45.3794131,12.8163802 45.2870659,12.5354908 45.1921535,12.2546014 C45.1177627,12.0365594 45.0369589,11.8236478 44.9535899,11.6120188 C44.7983953,11.2182606 44.6278095,10.8398937 44.4392673,10.4743527 C44.3033117,10.2088545 44.1660735,9.94463888 44.0134441,9.69581448 C43.8864667,9.48931589 43.7517937,9.29436069 43.6132729,9.0994055 C43.4298611,8.8403203 43.2361885,8.59406111 43.0335377,8.35678011 C42.9514513,8.26186771 42.8847561,8.14899892 42.8001045,8.05665172 C44.9856549,4.4730674 48.1139162,2.43629865 51.4833063,2.43629865 M60.9129813,8.8672549 C60.9168291,8.8672549 60.9206769,8.8659723 60.9232421,8.8659723 C61.0694585,8.8262117 61.2182401,8.8044075 61.3657391,8.7774729 C61.3875433,8.7736251 61.4054997,8.7710599 61.4298691,8.7672121 C61.4337169,8.7659295 61.4349995,8.7633643 61.4388473,8.7633643 C63.2049875,8.47221411 65.1250396,9.1083837 66.9104188,10.6103083 C68.9959263,12.3636224 70.6158501,15.0339956 71.4751921,18.1327571 C72.1626657,20.6158706 72.2832301,23.1708098 71.8291897,25.4243379 L57.8886106,25.4243379 C57.7423942,25.1383181 57.6000256,24.8522983 57.470483,24.5585829 C57.393527,24.3841494 57.3088754,24.2148462 57.2383324,24.0378474 C57.002334,23.4516992 56.7932702,22.8565728 56.623967,22.2473378 C55.7659076,19.1498589 55.7800162,16.0254453 56.6662928,13.448702 C56.874074,12.8420322 57.1254636,12.2853838 57.4140486,11.7838872 C58.278521,10.2781149 59.4841649,9.26357829 60.9129813,8.8672549 M68.7984059,49.237089 C71.3328235,48.2789868 73.334962,47.5222528 74.7509524,47.505579 L74.8048216,47.505579 C75.7629238,47.505579 76.5042666,47.8223812 77.003198,48.4470074 C77.5162379,49.0883074 77.7111931,50.0143446 77.5931939,50.9904032 C76.7043522,51.3136183 75.7103372,51.7163547 74.5611276,52.1896341 C70.9724129,53.6646241 65.8189262,55.7834792 58.5504322,57.4752286 C58.862104,56.8890804 58.9890814,56.3119104 59.0237116,55.8040008 C59.1096458,54.5290965 58.9416252,53.4376039 58.5760842,52.4974581 C62.7496645,51.5162691 66.0818592,50.2644516 68.7984059,49.237089 M82.5825078,50.88523 C81.7860132,50.224691 80.8214981,50.1233656 79.5478763,50.3965594 C79.5312025,49.2101544 79.1836179,48.0917272 78.5064051,47.2464938 C77.6316719,46.1524361 76.2964854,45.5816791 74.7278656,45.5816791 C72.9719862,45.6022007 70.8300443,46.4128039 68.1173454,47.4376012 C67.9416292,47.5042964 67.7543696,47.5748394 67.573523,47.6428172 C72.8898998,42.9331101 76.4529626,36.2610251 77.0301326,28.7437067 C77.0955451,27.8869299 76.7992646,27.0352835 76.2156816,26.4068095 C75.6731418,25.8206613 74.9176904,25.4820549 74.123761,25.4410117 C74.5508668,22.94892 74.39952,20.1938952 73.6607424,17.5273699 C72.680836,13.9925244 70.8018271,10.9194149 68.3700175,8.8736679 C66.290923,7.12676674 64.007895,6.30333756 61.8031057,6.44698876 C59.201993,2.46066804 55.4850182,0.168661896 51.4833063,0.168661896 C47.4559424,0.168661896 43.6427727,2.56712384 41.0583338,6.61244415 C40.4157512,6.20585996 39.7218646,5.88777517 38.9753914,5.67999397 C33.2691041,4.09983081 26.8060829,9.35720809 24.5769241,17.4042403 C23.8240379,20.120787 23.6290827,22.8629858 23.9869281,25.4243379 L23.8304509,25.4243379 C22.9800872,25.4243379 22.1592232,25.7821833 21.5820532,26.4080921 C20.9997435,27.0365661 20.7034722,27.8882125 20.7688848,28.7437067 C21.1908602,34.2422127 23.2173682,39.2841132 26.3507599,43.4435849 C21.6808134,42.7458505 16.0155693,42.7933067 10.2977386,44.9557703 C8.0762755,45.7945907 5.47131496,48.2546174 0.966823858,48.2135742 L0.961693458,48.2135742 C0.707738664,48.2135742 0.46404467,48.313617 0.283198074,48.4944636 C0.101068878,48.6753102 -0.000256519994,48.9202868 -0.000256519994,49.1755242 L-0.000256519994,63.9151631 C-0.000256519994,64.3281603 0.239589675,64.8117004 0.652586865,64.825809 C3.21650421,64.9130258 7.35545431,64.4948983 9.24600667,65.3362838 C15.5320291,68.1336344 27.6269469,71.8262397 37.886464,71.8262397 C51.1126349,71.8262397 67.1515476,68.9544984 81.0267141,58.2768536 C81.3242773,58.0780506 83.938216,56.2606064 84.0613456,53.8929269 C84.1011062,53.1156713 83.8779338,51.9626139 82.5825078,50.88523" id="Fill-9"></path>
                            </g>
                        </g>
                    </g>
                </g>
            </g>
        </g>
    </g>
</svg>