<?xml version="1.0" encoding="UTF-8"?>
<svg width="14px" height="14px" viewBox="0 0 14 14" version="1.1" xmlns="http://www.w3.org/2000/svg" xmlns:xlink="http://www.w3.org/1999/xlink">
    <!-- Generator: sketchtool 63.1 (101010) - https://sketch.com -->
    <title>D738F007-85BF-4B76-96F6-4248C99F4A36</title>
    <desc>Created with sketchtool.</desc>
    <g id="Page-1" stroke="none" stroke-width="1" fill="none" fill-rule="evenodd">
        <g id="1-Food-Future-Foundation---Home" transform="translate(-1286.000000, -5.000000)">
            <g id="Group-3">
                <g id="palette_black_24dp" transform="translate(1285.000000, 4.000000)">
                    <rect id="Rectangle" x="0" y="0" width="16" height="16"></rect>
                    <path d="M8,1.33333333 C4.32666667,1.33333333 1.33333333,4.32666667 1.33333333,8 C1.33333333,11.6733333 4.32666667,14.6666667 8,14.6666667 C8.92,14.6666667 9.66666667,13.92 9.66666667,13 C9.66666667,12.5933333 9.51333333,12.2 9.24,11.8866667 C9.18666667,11.82 9.15333333,11.7466667 9.15333333,11.6666667 C9.15333333,11.48 9.3,11.3333333 9.48666667,11.3333333 L10.6666667,11.3333333 C12.8733333,11.3333333 14.6666667,9.54 14.6666667,7.33333333 C14.6666667,4.02666667 11.6733333,1.33333333 8,1.33333333 Z M11.6666667,8.66666667 C11.1133333,8.66666667 10.6666667,8.22 10.6666667,7.66666667 C10.6666667,7.11333333 11.1133333,6.66666667 11.6666667,6.66666667 C12.22,6.66666667 12.6666667,7.11333333 12.6666667,7.66666667 C12.6666667,8.22 12.22,8.66666667 11.6666667,8.66666667 Z M9.66666667,6 C9.11333333,6 8.66666667,5.55333333 8.66666667,5 C8.66666667,4.44666667 9.11333333,4 9.66666667,4 C10.22,4 10.6666667,4.44666667 10.6666667,5 C10.6666667,5.55333333 10.22,6 9.66666667,6 Z M3.33333333,7.66666667 C3.33333333,7.11333333 3.78,6.66666667 4.33333333,6.66666667 C4.88666667,6.66666667 5.33333333,7.11333333 5.33333333,7.66666667 C5.33333333,8.22 4.88666667,8.66666667 4.33333333,8.66666667 C3.78,8.66666667 3.33333333,8.22 3.33333333,7.66666667 Z M7.33333333,5 C7.33333333,5.55333333 6.88666667,6 6.33333333,6 C5.78,6 5.33333333,5.55333333 5.33333333,5 C5.33333333,4.44666667 5.78,4 6.33333333,4 C6.88666667,4 7.33333333,4.44666667 7.33333333,5 Z" id="Shape" fill="#FFFFFF" fill-rule="nonzero"></path>
                </g>
            </g>
        </g>
    </g>
</svg>