<?xml version="1.0" encoding="UTF-8"?>
<svg width="14px" height="14px" viewBox="0 0 14 14" version="1.1" xmlns="http://www.w3.org/2000/svg" xmlns:xlink="http://www.w3.org/1999/xlink">
    <!-- Generator: sketchtool 63.1 (101010) - https://sketch.com -->
    <title>723AD4F4-831C-40D8-8C4F-D3B7E9CB23CA</title>
    <desc>Created with sketchtool.</desc>
    <g id="Page-1" stroke="none" stroke-width="1" fill="none" fill-rule="evenodd">
        <g id="1-Food-Future-Foundation---Home" transform="translate(-1205.000000, -6.000000)" fill="#FFFFFF" fill-rule="nonzero">
            <g id="Group-3">
                <path d="M1216.98828,19.6132812 L1218.11328,18.4882812 L1214.38672,14.7617188 L1213.78906,14.7617188 L1213.57812,14.5507812 C1214.35156,13.6367188 1214.73828,12.5820312 1214.73828,11.3867188 C1214.73828,10.0273438 1214.26367,8.87304688 1213.31445,7.92382812 C1212.36523,6.97460938 1211.2168,6.5 1209.86914,6.5 C1208.52148,6.5 1207.37305,6.97460938 1206.42383,7.92382812 C1205.47461,8.87304688 1205,10.0214844 1205,11.3691406 C1205,12.7167969 1205.47461,13.8652344 1206.42383,14.8144531 C1207.37305,15.7636719 1208.52734,16.2382812 1209.88672,16.2382812 C1211.08203,16.2382812 1212.13672,15.8515625 1213.05078,15.078125 L1213.05078,15.078125 L1213.26172,15.2890625 L1213.26172,15.8867188 L1216.98828,19.6132812 Z M1209.88672,14.7617188 C1208.94922,14.7617188 1208.15234,14.4335938 1207.49609,13.7773438 C1206.83984,13.1210938 1206.51172,12.3242188 1206.51172,11.3867188 C1206.51172,10.4492188 1206.83984,9.65234375 1207.49609,8.99609375 C1208.15234,8.33984375 1208.94922,8.01171875 1209.88672,8.01171875 C1210.82422,8.01171875 1211.62109,8.33984375 1212.27734,8.99609375 C1212.93359,9.65234375 1213.26172,10.4492188 1213.26172,11.3867188 C1213.26172,12.3242188 1212.93359,13.1210938 1212.27734,13.7773438 C1211.62109,14.4335938 1210.82422,14.7617188 1209.88672,14.7617188 Z" id=""></path>
            </g>
        </g>
    </g>
</svg>