<?xml version="1.0" encoding="UTF-8"?>
<svg width="17px" height="14px" viewBox="0 0 17 14" version="1.1" xmlns="http://www.w3.org/2000/svg" xmlns:xlink="http://www.w3.org/1999/xlink">
    <!-- Generator: sketchtool 63.1 (101010) - https://sketch.com -->
    <title>96A42F4A-6ECD-4E78-9133-3B2A10C07E54</title>
    <desc>Created with sketchtool.</desc>
    <g id="Page-1" stroke="none" stroke-width="1" fill="none" fill-rule="evenodd">
        <g id="1-Food-Future-Foundation---Home" transform="translate(-1333.000000, -5.000000)" fill="#FFFFFF">
            <g id="Group-3">
                <path d="M1346,5 C1346.55228,5 1347,5.44771525 1347,6 L1347,10 C1347,10.5522847 1346.55228,11 1346,11 L1342,11 L1342,12 L1347,12 L1347,14 L1349,14 C1349.55228,14 1350,14.4477153 1350,15 L1350,18 C1350,18.5522847 1349.55228,19 1349,19 L1344,19 C1343.44772,19 1343,18.5522847 1343,18 L1343,15 C1343,14.4477153 1343.44772,14 1344,14 L1346,14 L1346,13 L1337,13 L1337,14 L1339,14 C1339.55228,14 1340,14.4477153 1340,15 L1340,18 C1340,18.5522847 1339.55228,19 1339,19 L1334,19 C1333.44772,19 1333,18.5522847 1333,18 L1333,15 C1333,14.4477153 1333.44772,14 1334,14 L1336,14 L1336,12 L1341,12 L1341,11 L1337,11 C1336.44772,11 1336,10.5522847 1336,10 L1336,6 C1336,5.44771525 1336.44772,5 1337,5 L1346,5 Z" id="Combined-Shape"></path>
            </g>
        </g>
    </g>
</svg>