<?xml version="1.0" encoding="UTF-8"?>
<svg width="18px" height="14px" viewBox="0 0 18 14" version="1.1" xmlns="http://www.w3.org/2000/svg" xmlns:xlink="http://www.w3.org/1999/xlink">
    <!-- Generator: sketchtool 63.1 (101010) - https://sketch.com -->
    <title>67DEF01B-4C8A-4DCB-8273-B4768BE7ED41</title>
    <desc>Created with sketchtool.</desc>
    <g id="Page-1" stroke="none" stroke-width="1" fill="none" fill-rule="evenodd">
        <g id="1-Food-Future-Foundation---Home" transform="translate(-1168.000000, -5.000000)" fill="#FFFFFF">
            <g id="Group-3">
                <path d="M1175.67307,5.04451075 C1179.63191,5.57296802 1181.94919,8.49650978 1182.62491,13.815136 L1185.3375,13.815136 L1180.49281,18.5508047 L1175.67307,13.815136 L1178.30882,13.815136 C1177.93597,9.98860102 1176.49969,7.82284657 1174,7.31787266 C1171.78046,6.86949427 1169.78046,7.52408154 1168,9.28163446 C1170.71284,6.13617597 1173.27053,4.7238014 1175.67307,5.04451075 Z M1171,10.5906599 C1172.65685,10.5906599 1174,11.9338056 1174,13.5906599 C1174,15.2475141 1172.65685,16.5906599 1171,16.5906599 C1169.34315,16.5906599 1168,15.2475141 1168,13.5906599 C1168,11.9338056 1169.34315,10.5906599 1171,10.5906599 Z" id="Combined-Shape"></path>
            </g>
        </g>
    </g>
</svg>