<?xml version="1.0" encoding="UTF-8"?>
<svg width="16px" height="16px" viewBox="0 0 16 16" version="1.1" xmlns="http://www.w3.org/2000/svg" xmlns:xlink="http://www.w3.org/1999/xlink">
    <!-- Generator: sketchtool 63.1 (101010) - https://sketch.com -->
    <title>9D317888-E78C-4D4B-AD60-0D017EC1FC1B</title>
    <desc>Created with sketchtool.</desc>
    <g id="Page-1" stroke="none" stroke-width="1" fill="none" fill-rule="evenodd">
        <g id="1-Food-Future-Foundation---Home" transform="translate(-1262.000000, -4353.000000)" fill="#D0D0D0" fill-rule="nonzero">
            <g id="Group-Copy-8" transform="translate(0.000000, 4313.000000)">
                <g id="Group-9" transform="translate(90.000000, 40.000000)">
                    <g id="Group-7" transform="translate(0.000000, -0.000000)">
                        <path d="M1186.38876,15.9625293 C1186.83841,15.9625293 1187.21936,15.8064012 1187.53162,15.4941452 C1187.84387,15.1818891 1188,14.813427 1188,14.3887588 L1188,14.3887588 L1188,1.57377049 C1188,1.14910226 1187.84387,0.780640125 1187.53162,0.468384075 C1187.21936,0.156128025 1186.83841,-4.54747351e-13 1186.38876,-4.54747351e-13 L1186.38876,-4.54747351e-13 L1173.61124,-4.54747351e-13 C1173.16159,-4.54747351e-13 1172.78064,0.156128025 1172.46838,0.468384075 C1172.15613,0.780640125 1172,1.14910226 1172,1.57377049 L1172,1.57377049 L1172,14.3887588 C1172,14.813427 1172.15613,15.1818891 1172.46838,15.4941452 C1172.78064,15.8064012 1173.16159,15.9625293 1173.61124,15.9625293 L1173.61124,15.9625293 L1186.38876,15.9625293 Z M1185.97658,3.97189696 L1184.40281,3.97189696 C1184.12802,3.97189696 1183.99063,3.84699454 1183.99063,3.5971897 L1183.99063,3.5971897 L1183.99063,1.98594848 C1183.99063,1.71116315 1184.12802,1.57377049 1184.40281,1.57377049 L1184.40281,1.57377049 L1185.97658,1.57377049 C1186.25137,1.57377049 1186.38876,1.71116315 1186.38876,1.98594848 L1186.38876,1.98594848 L1186.38876,3.5971897 C1186.38876,3.84699454 1186.25137,3.97189696 1185.97658,3.97189696 L1185.97658,3.97189696 Z M1180,11.1662763 C1179.11319,11.1662763 1178.35753,10.8540203 1177.73302,10.2295082 C1177.10851,9.6049961 1176.79625,8.85558158 1176.79625,7.98126464 C1176.79625,7.1069477 1177.10851,6.35753318 1177.73302,5.73302108 C1178.35753,5.10850898 1179.11319,4.79625293 1180,4.79625293 C1180.88681,4.79625293 1181.64247,5.10850898 1182.26698,5.73302108 C1182.89149,6.35753318 1183.20375,7.1069477 1183.20375,7.98126464 C1183.20375,8.85558158 1182.89149,9.6049961 1182.26698,10.2295082 C1181.64247,10.8540203 1180.88681,11.1662763 1180,11.1662763 Z M1185.97658,14.3887588 L1173.98595,14.3887588 C1173.73614,14.3887588 1173.61124,14.2513661 1173.61124,13.9765808 L1173.61124,13.9765808 L1173.61124,7.19437939 L1175.25995,7.19437939 C1175.20999,7.44418423 1175.18501,7.70647931 1175.18501,7.98126464 C1175.18501,9.30523029 1175.6534,10.4355972 1176.59016,11.3723653 C1177.52693,12.3091335 1178.6573,12.7775176 1179.98126,12.7775176 C1181.30523,12.7775176 1182.4356,12.3091335 1183.37237,11.3723653 C1184.30913,10.4355972 1184.77752,9.30523029 1184.77752,7.98126464 C1184.77752,7.75644028 1184.75254,7.4941452 1184.70258,7.19437939 L1184.70258,7.19437939 L1186.38876,7.19437939 L1186.38876,13.9765808 C1186.38876,14.2513661 1186.25137,14.3887588 1185.97658,14.3887588 L1185.97658,14.3887588 Z" id="ï"></path>
                    </g>
                </g>
            </g>
        </g>
    </g>
</svg>