<?xml version="1.0" encoding="UTF-8"?>
<svg width="16px" height="16px" viewBox="0 0 16 16" version="1.1" xmlns="http://www.w3.org/2000/svg" xmlns:xlink="http://www.w3.org/1999/xlink">
    <!-- Generator: sketchtool 63.1 (101010) - https://sketch.com -->
    <title>AA45E914-B8D2-483E-A5D6-297E7BB0C740</title>
    <desc>Created with sketchtool.</desc>
    <g id="Page-1" stroke="none" stroke-width="1" fill="none" fill-rule="evenodd">
        <g id="1-Food-Future-Foundation---Home" transform="translate(-1298.000000, -4353.000000)" fill="#D0D0D0" fill-rule="nonzero">
            <g id="Group-Copy-8" transform="translate(0.000000, 4313.000000)">
                <g id="Group-9" transform="translate(90.000000, 40.000000)">
                    <g id="Group-7" transform="translate(0.000000, -0.000000)">
                        <path d="M1209.92974,3.8969555 C1210.46682,3.8969555 1210.92272,3.70335675 1211.29742,3.31615925 C1211.67213,2.92896175 1211.85948,2.47306792 1211.85948,1.94847775 C1211.85948,1.3989071 1211.67213,0.93676815 1211.29742,0.56206089 C1210.92272,0.18735363 1210.46682,-4.54747351e-13 1209.92974,-4.54747351e-13 C1209.39266,-4.54747351e-13 1208.93677,0.18735363 1208.56206,0.56206089 C1208.18735,0.93676815 1208,1.39266198 1208,1.92974239 C1208,2.46682279 1208.18735,2.92896175 1208.56206,3.31615925 C1208.93677,3.70335675 1209.39266,3.8969555 1209.92974,3.8969555 Z M1216.5808,15.9625293 C1216.7057,15.9625293 1216.80562,15.9250585 1216.88056,15.8501171 C1216.9555,15.7751756 1216.99297,15.6752537 1216.99297,15.5503513 L1216.99297,15.5503513 L1216.99297,10.0796253 C1216.99297,9.35519126 1217.13037,8.79313037 1217.40515,8.39344262 C1217.67994,7.99375488 1218.15457,7.79391101 1218.82904,7.79391101 C1219.37861,7.79391101 1219.75332,7.92505855 1219.95316,8.18735363 C1220.15301,8.44964871 1220.25293,8.85558158 1220.25293,9.40515222 L1220.25293,9.40515222 L1220.25293,15.5503513 C1220.25293,15.6752537 1220.29664,15.7751756 1220.38407,15.8501171 C1220.47151,15.9250585 1220.56518,15.9625293 1220.66511,15.9625293 L1220.66511,15.9625293 L1223.58782,15.9625293 C1223.68774,15.9625293 1223.78142,15.9250585 1223.86885,15.8501171 C1223.95628,15.7751756 1224,15.6752537 1224,15.5503513 L1224,15.5503513 L1224,8.73067916 C1224,7.43169399 1223.62529,6.44496487 1222.87588,5.7704918 C1222.12646,5.09601874 1221.08977,4.7587822 1219.76581,4.7587822 C1218.56674,4.7587822 1217.61749,5.09601874 1216.91803,5.7704918 C1216.91803,5.64558938 1216.90554,5.55815769 1216.88056,5.50819672 L1216.88056,5.50819672 L1216.88056,5.32084309 C1216.85558,5.22092116 1216.81187,5.1459797 1216.74941,5.09601874 C1216.68696,5.04605777 1216.60578,5.02107728 1216.50585,5.02107728 L1216.50585,5.02107728 L1213.73302,5.02107728 C1213.6331,5.02107728 1213.53942,5.06479313 1213.45199,5.15222482 C1213.36456,5.23965652 1213.32084,5.33333333 1213.32084,5.43325527 L1213.32084,5.43325527 L1213.32084,15.5503513 C1213.32084,15.6752537 1213.36456,15.7751756 1213.45199,15.8501171 C1213.53942,15.9250585 1213.6331,15.9625293 1213.73302,15.9625293 L1213.73302,15.9625293 L1216.5808,15.9625293 Z M1211.37237,15.9625293 C1211.47229,15.9625293 1211.56596,15.9250585 1211.6534,15.8501171 C1211.74083,15.7751756 1211.78454,15.6752537 1211.78454,15.5503513 L1211.78454,15.5503513 L1211.78454,5.43325527 C1211.78454,5.33333333 1211.74083,5.23965652 1211.6534,5.15222482 C1211.56596,5.06479313 1211.47229,5.02107728 1211.37237,5.02107728 L1211.37237,5.02107728 L1208.52459,5.02107728 C1208.39969,5.02107728 1208.29977,5.06479313 1208.22482,5.15222482 C1208.14988,5.23965652 1208.11241,5.33333333 1208.11241,5.43325527 L1208.11241,5.43325527 L1208.11241,15.5503513 C1208.11241,15.6752537 1208.14988,15.7751756 1208.22482,15.8501171 C1208.29977,15.9250585 1208.39969,15.9625293 1208.52459,15.9625293 L1208.52459,15.9625293 L1211.37237,15.9625293 Z" id="ï¸"></path>
                    </g>
                </g>
            </g>
        </g>
    </g>
</svg>