<?xml version="1.0" encoding="UTF-8"?>
<svg width="69px" height="71px" viewBox="0 0 69 71" version="1.1" xmlns="http://www.w3.org/2000/svg" xmlns:xlink="http://www.w3.org/1999/xlink">
    <!-- Generator: sketchtool 63.1 (101010) - https://sketch.com -->
    <title>BFAE0EEE-FDA0-4BF4-B4CC-A7C84B8F9E5D</title>
    <desc>Created with sketchtool.</desc>
    <defs>
        <polygon id="path-1" points="0 0.354 68.331 0.354 68.331 70.9998 0 70.9998"></polygon>
    </defs>
    <g id="Page-1" stroke="none" stroke-width="1" fill="none" fill-rule="evenodd">
        <g id="2B-Food-Future-Foundation---Vision-2030-UN-Food-Systems-Summit-2021" transform="translate(-944.000000, -1439.000000)">
            <g id="Group-4-Copy" transform="translate(0.000000, 1160.000000)">
                <g id="Group-13-Copy-6" transform="translate(864.000000, 245.000000)">
                    <g id="Group-13" transform="translate(16.000000, 33.000000)">
                        <g id="Group-8" transform="translate(64.000000, 0.000000)">
                            <path d="M19.9861,62.8046 C19.6111,62.4296 19.4081,61.9216 19.4139707,61.3756 C19.4191,60.7866 19.6621,60.2316 20.0971,59.8126 L37.4581,43.0946 C38.4331,42.1556 38.9191,40.8006 38.7901,39.3766 C38.5381,36.5846 39.9721,33.2546 42.5331,30.6876 C44.9011,28.3146 47.9071,26.8976 50.5751,26.8976 C52.1361,26.8976 53.4521,27.3896 54.3801,28.3196 C56.9971,30.9436 55.9371,36.2736 52.0181,40.2026 C49.4581,42.7696 46.1441,44.2076 43.3561,43.9546 C41.9301,43.8286 40.5791,44.3106 39.6411,45.2896 L22.9621,62.6926 C22.5451,63.1276 21.9931,63.3706 21.4071,63.3766 C20.8631,63.3676 20.3601,63.1786 19.9861,62.8046 L19.9861,62.8046 Z M41.3191,46.8986 C41.7641,46.4336 42.4271,46.2046 43.1451,46.2696 C46.6491,46.5816 50.5821,44.9326 53.6631,41.8446 C58.4861,37.0096 59.5451,30.2076 56.0251,26.6776 C54.6521,25.3016 52.7671,24.5736 50.5751,24.5736 C47.3041,24.5736 43.6821,26.2456 40.8881,29.0456 C37.8081,32.1336 36.1581,36.0736 36.4751,39.5856 C36.5401,40.3036 36.3111,40.9726 35.8461,41.4206 L18.4841,58.1386 C17.5971,58.9936 17.1021,60.1346 17.0901,61.3526 C17.0821,62.0746 17.2661,62.7586 17.5851,63.3766 L12.9601,63.3766 C12.3181,63.3766 11.7971,63.8966 11.7971,64.5386 C11.7971,65.1806 12.3181,65.7006 12.9601,65.7006 L21.3841,65.7006 L21.4311,65.7006 L55.3711,65.7006 C56.0131,65.7006 56.5331,65.1806 56.5331,64.5386 C56.5331,63.8966 56.0131,63.3766 55.3711,63.3766 L51.0211,63.3766 C51.2831,62.8216 51.4321,62.2136 51.4261,61.5726 C51.4141,60.3906 50.9071,59.2316 50.0351,58.3916 L41.1681,49.8626 C40.7051,49.4196 39.9691,49.4316 39.5251,49.8956 C39.0801,50.3576 39.0941,51.0926 39.5561,51.5386 L48.4241,60.0676 C48.8491,60.4756 49.0961,61.0336 49.1021,61.5956 C49.1071,62.0886 48.9271,62.5416 48.5971,62.8716 C48.2661,63.2026 47.7911,63.3406 47.3211,63.3766 C46.7591,63.3706 46.2011,63.1236 45.7921,62.6986 L37.8341,54.4186 C37.3881,53.9556 36.6521,53.9416 36.1901,54.3856 C35.7281,54.8306 35.7131,55.5656 36.1581,56.0286 L43.2201,63.3766 L25.5261,63.3766 L41.3191,46.8986 Z" id="Fill-1" fill="#6BB46D"></path>
                            <path d="M17.2667,40.9688 L20.1507,43.8528 C21.5977,45.3008 23.5697,46.0798 25.5557,45.9788 C26.1157,45.9648 26.7357,46.2268 27.2027,46.7128 C27.4307,46.9498 27.7357,47.0688 28.0407,47.0688 C28.3297,47.0688 28.6207,46.9608 28.8457,46.7448 C29.3077,46.2998 29.3227,45.5648 28.8777,45.1018 C27.9377,44.1228 26.6807,43.6088 25.4437,43.6578 C24.1127,43.7268 22.7787,43.1938 21.7937,42.2098 L21.0427,41.4588 C21.2307,41.3428 21.4097,41.2098 21.5727,41.0478 C22.0527,40.5678 22.3287,39.9448 22.3947,39.2688 C23.0497,39.2038 23.6807,38.9408 24.1737,38.4478 C24.6657,37.9548 24.9297,37.3228 24.9947,36.6678 C25.6497,36.6038 26.2807,36.3398 26.7747,35.8468 C26.9347,35.6868 27.0687,35.5078 27.1847,35.3188 L27.9347,36.0688 C28.9227,37.0558 29.4527,38.3858 29.3887,39.7158 C29.3297,40.9578 29.8547,42.2078 30.8317,43.1468 C31.0577,43.3628 31.3477,43.4718 31.6377,43.4718 C31.9427,43.4718 32.2467,43.3518 32.4747,43.1148 C32.9197,42.6528 32.9057,41.9158 32.4427,41.4708 C31.9577,41.0048 31.6837,40.3898 31.7107,39.8268 C31.8057,37.8438 31.0277,35.8748 29.5777,34.4248 L19.9747,24.8218 C19.5207,24.3678 18.7857,24.3678 18.3317,24.8218 C17.8777,25.2758 17.8777,26.0108 18.3317,26.4648 L25.0447,33.1798 C25.2027,33.3378 25.2937,33.5378 25.3007,33.7458 C25.3047,33.8728 25.2777,34.0558 25.1307,34.2038 C24.8717,34.4628 24.4117,34.4238 24.1047,34.1178 L17.3917,27.4048 C16.9377,26.9508 16.2027,26.9508 15.7487,27.4048 C15.7457,27.4078 15.7447,27.4118 15.7407,27.4158 C15.7377,27.4188 15.7337,27.4198 15.7307,27.4228 C15.2767,27.8768 15.2767,28.6118 15.7307,29.0658 L22.4437,35.7788 C22.7497,36.0858 22.7877,36.5458 22.5297,36.8048 C22.2707,37.0638 21.8117,37.0248 21.5047,36.7188 L14.7917,30.0058 C14.3367,29.5518 13.6017,29.5518 13.1477,30.0058 C13.1447,30.0088 13.1437,30.0128 13.1407,30.0168 C13.1377,30.0198 13.1327,30.0208 13.1297,30.0238 C12.6757,30.4778 12.6757,31.2128 13.1297,31.6668 L19.8427,38.3798 C20.0007,38.5378 20.0917,38.7408 20.0987,38.9478 C20.1027,39.0748 20.0767,39.2568 19.9287,39.4048 C19.6707,39.6628 19.2107,39.6248 18.9047,39.3208 L12.1907,32.6058 C11.7367,32.1518 11.0007,32.1518 10.5477,32.6058 C10.0937,33.0598 10.0937,33.7948 10.5477,34.2488 L17.2607,40.9638 C17.2627,40.9658 17.2647,40.9668 17.2667,40.9688" id="Fill-3" fill="#6BB46D"></path>
                            <g id="Group-7" transform="translate(0.000000, 0.646500)">
                                <mask id="mask-2" fill="white">
                                    <use xlink:href="#path-1"></use>
                                </mask>
                                <g id="Clip-6"></g>
                                <path d="M6.845,68.6758 L6.845,23.5808 L34.165,12.0078 L61.486,23.5808 L61.486,68.6758 L6.845,68.6758 Z M2.324,16.4688 L34.165,2.7798 L66.007,16.4688 L66.007,23.0438 L63.124,21.7498 C63.119,21.7478 63.114,21.7478 63.109,21.7458 C63.106,21.7438 63.104,21.7418 63.101,21.7398 L34.618,9.6748 C34.329,9.5538 34.002,9.5538 33.712,9.6748 L5.23,21.7398 C5.227,21.7418 5.225,21.7438 5.222,21.7458 C5.217,21.7478 5.212,21.7478 5.207,21.7498 L2.324,23.0438 L2.324,16.4688 Z M66.693,25.8988 C67.053,26.0608 67.469,26.0298 67.8,25.8138 C68.131,25.6008 68.331,25.2328 68.331,24.8388 L68.331,15.7038 C68.331,15.2388 68.054,14.8198 67.627,14.6358 L34.624,0.4478 C34.331,0.3218 34,0.3218 33.706,0.4478 L0.703,14.6358 C0.276,14.8198 0,15.2388 0,15.7038 L0,24.8388 C0,25.2328 0.2,25.6008 0.531,25.8138 C0.862,26.0298 1.278,26.0598 1.638,25.8988 L4.521,24.6058 L4.521,68.6758 L1.162,68.6758 C0.52,68.6758 0,69.1958 0,69.8378 C0,70.4798 0.52,70.9998 1.162,70.9998 L5.683,70.9998 L62.648,70.9998 L67.169,70.9998 C67.811,70.9998 68.331,70.4798 68.331,69.8378 C68.331,69.1958 67.811,68.6758 67.169,68.6758 L63.81,68.6758 L63.81,24.6058 L66.693,25.8988 Z" id="Fill-5" fill="#6BB46D" mask="url(#mask-2)"></path>
                            </g>
                        </g>
                    </g>
                </g>
            </g>
        </g>
    </g>
</svg>