<?xml version="1.0" encoding="UTF-8"?>
<svg width="70px" height="70px" viewBox="0 0 70 70" version="1.1" xmlns="http://www.w3.org/2000/svg" xmlns:xlink="http://www.w3.org/1999/xlink">
    <!-- Generator: sketchtool 63.1 (101010) - https://sketch.com -->
    <title>1D7833AF-6A4E-4467-96C3-DFAE6F45CCF0</title>
    <desc>Created with sketchtool.</desc>
    <g id="Page-1" stroke="none" stroke-width="1" fill="none" fill-rule="evenodd">
        <g id="1-Food-Future-Foundation---Home" transform="translate(-943.000000, -1844.000000)" fill="#6BB46D">
            <g id="Group-4" transform="translate(0.000000, 1565.000000)">
                <g id="Group-13-Copy-6" transform="translate(864.000000, 246.000000)">
                    <g id="Group-13" transform="translate(16.000000, 33.000000)">
                        <path d="M115.385517,39.821626 C118.057197,39.250066 122.311557,37.0179461 122.311557,31.9927064 C122.311557,26.7800266 115.997997,13.0401473 115.266717,11.4693474 C115.068717,11.0443074 114.631797,10.7816275 114.124917,10.7816275 C113.618037,10.7816275 113.179797,11.0456274 112.983117,11.4693474 C112.262398,13.0150673 105.938278,26.7272266 105.938278,31.9927064 C105.938278,37.0179461 110.189998,39.248746 112.862997,39.821626 L112.862997,43.1163458 C110.947678,43.0358258 109.033678,42.9935858 107.171158,42.9935858 C102.448198,42.9935858 98.0473182,43.2615458 94.4199584,43.7697458 L94.4199584,38.913466 C97.6961982,38.4237461 102.947158,35.9949462 102.947158,29.7447465 C102.947158,23.0431068 95.0720384,12.1227474 94.1744384,10.8977874 C93.9460784,10.5889075 93.5672385,10.4054275 93.1593585,10.4054275 C92.7527985,10.4054275 92.3726385,10.5889075 92.1469185,10.8977874 C92.1086385,10.9466274 88.5485987,15.7619872 85.9838388,21.0274669 C83.8507189,17.2403871 81.3994791,14.0631473 81.1169991,13.7014673 C80.8833591,13.4031473 80.5229991,13.2315473 80.1230391,13.2315473 C79.7243992,13.2315473 79.3627192,13.4031473 79.1277592,13.7014673 C78.3067192,14.7587873 71.0995196,24.1928268 71.0995196,30.0311865 C71.0995196,35.9447862 76.5207593,38.718106 78.8611192,39.376786 L78.8611192,42.5342258 C73.8767994,41.8082259 69.8045997,41.6537859 67.2451198,41.6537859 C66.8913598,41.6537859 66.5613598,41.6577459 66.2577598,41.6630259 C65.7693599,39.403186 65.5225199,37.1063861 65.5225199,34.8359862 C65.5225199,17.0186271 80.0174391,2.52238787 97.8361182,2.52238787 C115.653477,2.52238787 130.149717,17.0186271 130.149717,34.8359862 C130.149717,38.2138661 129.619077,41.5600659 128.573637,44.7861457 C124.786557,44.0720258 120.239157,43.5400658 115.385517,43.2470258 L115.385517,39.821626 Z M93.1593585,23.2384668 C92.4650385,23.2384668 91.8987585,23.8034268 91.8987585,24.5003868 L91.8987585,36.3421062 C90.1523986,35.9857062 85.8940788,34.6115862 85.8940788,29.7447465 C85.8940788,24.9557867 91.1938786,16.7282272 93.1593585,13.8413873 C95.1248384,16.7282272 100.424638,24.9557867 100.424638,29.7447465 C100.424638,34.6115862 96.1663183,35.9857062 94.4199584,36.3421062 L94.4199584,24.5003868 C94.4199584,23.8034268 93.8536784,23.2384668 93.1593585,23.2384668 L93.1593585,23.2384668 Z M91.8987585,38.912146 L91.8987585,44.1815858 C91.0328386,44.3479058 90.2038786,44.5353457 89.4316787,44.7412657 C86.8075188,44.0218658 84.1015189,43.4159858 81.3836391,42.9381458 L81.3836391,39.374146 C82.781519,38.993986 84.7430389,38.0475461 86.3653188,36.4450662 C88.3875587,38.1848261 90.7569586,38.739226 91.8987585,38.912146 L91.8987585,38.912146 Z M81.3836391,36.7447061 L81.3836391,27.5495866 C81.3836391,26.8552666 80.8186791,26.2889867 80.1217191,26.2889867 C79.4273992,26.2889867 78.8611192,26.8552666 78.8611192,27.5495866 L78.8611192,36.7486661 C76.7662793,35.9579862 73.6220395,33.7905463 73.6220395,30.0311865 C73.6220395,26.0263067 78.3436792,19.069907 80.1217191,16.5922672 C81.1262391,17.9888271 83.172239,20.9561869 84.6902389,23.9657868 C83.8150789,26.2216667 83.371559,28.1660266 83.371559,29.7447465 C83.371559,31.5518264 83.8229989,33.1714663 84.7113589,34.5614263 C83.672519,35.6372262 82.378919,36.3685062 81.3836391,36.7447061 L81.3836391,36.7447061 Z M114.124917,27.5020666 C113.429277,27.5020666 112.862997,28.0683466 112.862997,28.7626665 L112.862997,37.2146261 C111.500758,36.8093861 108.460798,35.5065462 108.460798,31.9927064 C108.460798,28.3825066 112.243918,19.341827 114.124917,15.0703072 C116.007237,19.339187 119.789037,28.3759066 119.789037,31.9927064 C119.789037,35.5052262 116.747757,36.8080661 115.385517,37.2146261 L115.385517,28.7626665 C115.385517,28.0683466 114.819237,27.5020666 114.124917,27.5020666 L114.124917,27.5020666 Z M68.1466797,47.5819056 C68.0423997,47.3337456 67.6939198,46.4665057 67.6226398,46.2817057 C67.4787598,45.9028657 67.3427998,45.5213857 67.2160798,45.1319857 C67.2160798,45.1319857 66.9890398,44.4389858 66.9085198,44.1763058 L67.2965998,44.1736658 C70.5965996,44.1736658 77.2480793,44.4548258 85.2947989,46.2962257 C84.8103589,46.5641856 84.3892789,46.8427056 84.0381589,47.1291456 C83.9774389,47.1766656 83.9233189,47.2294656 83.8111189,47.3443056 C83.659319,47.4815856 83.511479,47.6162256 83.386079,47.7561456 C83.331959,47.8168656 83.284439,47.8775856 83.173559,48.0201456 C83.054759,48.1693056 82.946519,48.3237456 82.854119,48.4808255 C82.802639,48.5692655 82.752479,48.6577055 82.708919,48.7487855 C82.623119,48.9243455 82.557119,49.0999055 82.469999,49.3678655 C82.454159,49.4219855 82.435679,49.4774255 82.425119,49.5289055 C82.356479,49.8166655 82.322159,50.0859455 82.322159,50.3486255 C82.322159,53.3423853 87.1309188,53.4823053 93.8035184,53.6750253 C98.2043982,53.8030653 106.397638,54.0393453 106.397638,56.0431052 C106.397638,56.2622252 106.359358,56.4628651 106.286758,56.6780251 C106.264318,56.7202651 106.240558,56.7625051 106.190398,56.8799851 C106.144198,56.9948251 106.099318,57.1109851 106.026718,57.2205451 L106.248478,57.3644251 C106.248478,57.3644251 106.247158,57.3644251 106.247158,57.3644251 L105.939598,57.3208651 L105.764038,57.5320651 C105.695398,57.6205051 105.626758,57.7089451 105.536998,57.7947451 C105.490798,57.8396251 105.434038,57.8818651 105.370678,57.9293851 L105.110638,58.1392651 C105.022198,58.2145051 104.933758,58.2897451 104.834758,58.358385 C104.770078,58.399305 104.251318,58.700265 104.251318,58.700265 C104.137798,58.768905 104.025598,58.838865 103.897558,58.903545 C103.799878,58.952385 103.690318,58.998585 103.575478,59.047425 L103.172878,59.229585 C103.034278,59.292945 102.895678,59.357625 102.747838,59.417025 L101.851558,59.729865 C101.701078,59.785305 101.547958,59.840745 101.377678,59.890905 C101.229838,59.937105 101.070118,59.980665 100.883998,60.032145 L100.379758,60.170745 C100.192318,60.223545 100.007518,60.277665 99.8042381,60.3265049 C99.6286781,60.3700649 99.4399182,60.4109849 99.2485182,60.4519049 C99.2485182,60.4519049 98.2136382,60.6829049 98.0275182,60.7185449 C97.8268782,60.7594649 97.6103982,60.7964249 97.3925983,60.8320649 C97.3925983,60.8320649 96.2903983,61.0287449 96.0541183,61.0670249 C95.8257583,61.1026649 93.8893184,61.3679849 93.8893184,61.3679849 C93.6279585,61.3996649 91.8155985,61.5937049 91.5331186,61.6201049 C91.2361186,61.6465049 89.3168387,61.8009449 88.9934387,61.8247049 C88.6607987,61.8471449 86.5857588,61.9633049 86.2729188,61.9765049 C85.8808788,61.9963049 85.4716789,62.0108249 85.0624789,62.0227049 C85.0624789,62.0227049 83.696279,62.0728649 83.372879,62.0807849 C82.992719,62.0913449 80.9929191,62.1230249 80.5705191,62.1283049 C75.4502394,58.879785 71.3555996,54.2914653 68.7261597,48.8596655 L68.7142797,48.8319455 L68.6601597,48.7105055 C68.4806397,48.3382656 68.3103597,47.9594256 68.1466797,47.5819056 L68.1466797,47.5819056 Z M124.253277,53.4136653 L124.109397,53.6129853 C123.873117,53.9429853 123.631557,54.2677053 123.310797,54.6821852 C123.157677,54.8788652 123.003237,55.0795052 122.844837,55.2722252 C122.452797,55.7474252 122.054157,56.2120652 121.638357,56.6635051 C121.527477,56.7823051 121.160517,57.1651051 121.159197,57.1651051 C120.786957,57.5545051 120.406797,57.9346651 120.012117,58.3042651 L119.676837,58.626345 C119.152797,59.105505 118.607637,59.571465 118.061157,60.009705 L117.820917,60.199785 C114.106437,63.1209448 109.704238,65.2369047 105.089518,66.3166646 C103.617718,66.6585446 102.081238,66.8987846 100.523638,67.0281446 L100.086718,67.0624646 C99.2551182,67.1205446 98.5211982,67.1482646 97.8361182,67.1482646 C97.2328783,67.1482646 96.6322783,67.1284646 96.0369583,67.0954646 L95.5775984,67.0624646 C95.1314384,67.0307846 94.6852784,66.9938246 94.2443984,66.9449846 L93.7005584,66.8763446 C93.2873985,66.8222246 92.8729185,66.7641446 92.4650385,66.6928646 L91.9079985,66.5951846 C91.5014386,66.5186246 91.0975186,66.4354646 90.6949186,66.3430646 L90.1523986,66.2189847 C89.7392386,66.1186647 89.3326787,66.0051447 88.9261187,65.8903047 L88.4311187,65.7490647 C87.9651587,65.6065047 87.5018388,65.4507447 87.0345588,65.2857447 L86.7494388,65.1907047 C86.2253988,64.9979847 85.7066389,64.7881047 85.1944789,64.5716247 C85.1733589,64.5623847 85.1535589,64.5544647 85.1337589,64.5452247 C85.6485589,64.5267447 86.2438788,64.5056247 86.5025988,64.4937447 L87.9044387,64.4185047 C88.4165987,64.3881447 88.9327187,64.3604247 89.4237587,64.3247847 C89.7326386,64.3049847 91.7363985,64.1399848 92.1469185,64.1017048 C92.4953985,64.0660648 93.4919985,63.9538648 93.4919985,63.9538648 C93.8893184,63.9089848 94.2839984,63.8654248 94.6628384,63.8152648 C95.0456384,63.7664248 95.4165584,63.7136248 95.7848383,63.6608248 C96.1913983,63.5987848 96.5939983,63.5380648 96.9794383,63.4733848 C97.3318783,63.4139848 97.6711182,63.3519448 98.0063982,63.2872648 C98.3773182,63.2199448 98.7416382,63.1486648 99.0901182,63.0707848 C99.4108782,63.0034648 99.7223981,62.9348248 100.025998,62.8609048 C100.361278,62.7817048 100.684678,62.6959048 101.001478,62.6127448 C101.286598,62.5335448 101.567758,62.4543448 101.839678,62.3725048 C102.139318,62.2814249 102.425758,62.1863849 102.708238,62.0900249 C102.960358,62.0042249 103.208518,61.9157849 103.447438,61.8247049 C103.714078,61.7217449 103.964878,61.6148249 104.239438,61.4947049 C104.449318,61.4023049 104.659198,61.3085849 104.854558,61.2135449 C105.088198,61.0973849 105.303358,60.9772649 105.609598,60.8043449 C105.764038,60.7159049 105.917158,60.6274649 106.055758,60.5377049 C106.235278,60.4228649 106.396318,60.302745 106.607518,60.144345 L106.723678,60.057225 C106.838518,59.970105 106.955998,59.880345 107.061598,59.789265 C107.216038,59.657265 107.348038,59.517345 107.522278,59.331225 L107.629198,59.219025 C107.712358,59.135865 107.791558,59.051385 107.860198,58.965585 C107.981638,58.815105 108.079318,58.656705 108.281278,58.331985 C108.339358,58.2435451 108.397438,58.1551051 108.442318,58.0627051 C108.538678,57.8713051 108.603358,57.6706651 108.724798,57.3129451 C108.755158,57.2350651 108.781558,57.1598251 108.798718,57.0832651 C108.879238,56.7400651 108.921478,56.3915851 108.921478,56.0431052 C108.921478,51.5881054 101.261518,51.3676654 93.8536784,51.1538254 C85.9627188,50.9254654 84.9489589,50.4304654 84.8446789,50.3486255 C84.8446789,50.2681055 84.8552389,50.1651455 84.9304789,49.9618655 C84.9687589,49.8628655 85.0162789,49.7665055 85.1377189,49.5962255 C85.2182389,49.4879855 85.3172389,49.3797455 85.5046789,49.2002255 C85.6445989,49.0774655 85.8003588,48.9560255 86.0102388,48.8121455 C86.8748388,48.2366256 88.1367587,47.7165456 89.8659586,47.2268256 C90.8453986,46.9588656 91.9568385,46.7199456 93.1672785,46.5113856 C93.2728785,46.5100656 93.3586785,46.4863056 93.4220385,46.4665057 C97.2421183,45.8315857 102.064078,45.4963057 107.367838,45.4963057 C109.582798,45.4963057 111.813598,45.5543857 113.938797,45.6586657 C113.971797,45.6679057 114.007437,45.6771457 114.090597,45.6771457 C114.109077,45.6771457 114.132837,45.6758257 114.156597,45.6758257 C119.044557,45.9292657 123.716037,46.4493457 127.690557,47.1806256 C127.491237,47.6624256 127.282677,48.1363056 127.063557,48.6022655 C126.942117,48.8623055 126.812757,49.1157455 126.682077,49.3705055 C126.469557,49.7902655 126.249117,50.2034255 126.022077,50.6113054 C125.872917,50.8753054 125.726397,51.1366654 125.569317,51.3967054 C125.264397,51.9062254 124.950237,52.4051853 124.618917,52.8949053 C124.500117,53.0704653 124.377357,53.2420653 124.253277,53.4136653 L124.253277,53.4136653 Z M97.8361182,-0.000131999993 C78.6274792,-0.000131999993 63,15.6273472 63,34.8359862 C63,38.806546 63.68112,42.7401458 65.0248799,46.5245856 C65.1595199,46.9021056 65.3060399,47.2743456 65.4525599,47.6465856 L65.6848799,48.2353056 L65.9369999,48.8134655 C66.0967198,49.1804255 66.2603998,49.5447455 66.4623598,49.9697855 C69.3320397,55.9414652 73.8490795,60.9548249 79.5329992,64.4739447 L79.7521192,64.5993447 C80.2827591,64.9227447 80.8239591,65.2316247 81.3730791,65.5259847 C81.5671191,65.6302647 81.7611591,65.7292647 81.956519,65.8256247 L82.121519,65.9114247 C82.530719,66.1173447 82.943879,66.3166646 83.360999,66.5093846 L83.471879,66.2691446 L83.522039,66.5819846 L84.0381589,66.8156246 C84.6677989,67.0888646 85.3053589,67.3462646 85.9574388,67.5825446 L86.2768788,67.6907846 C86.8603188,67.8967046 87.4516788,68.0841446 88.0509587,68.2623445 L88.5683987,68.4088645 C89.2072787,68.5857445 89.8527586,68.7467845 90.5021986,68.8880245 L90.6803986,68.9276245 C91.3997986,69.0781045 92.1297585,69.2048245 92.8702785,69.3117445 L93.3085185,69.3671845 C93.8972384,69.4450645 94.4872784,69.5044645 95.0839184,69.5506645 L95.6356783,69.5942245 C96.3629983,69.6417445 97.0982383,69.6707845 97.8361182,69.6707845 C98.5832382,69.6707845 99.3712782,69.6391045 100.317718,69.5717845 L100.775758,69.5374645 C102.485158,69.3935845 104.203798,69.1190245 105.884158,68.7217045 C110.168878,67.7039846 114.176397,65.9008647 117.795837,63.3598648 L117.917277,63.2727448 C119.239917,62.3368648 120.503157,61.3033049 121.675317,60.202425 L122.132037,59.766825 C122.645517,59.266545 123.148437,58.755705 123.631557,58.2224251 L124.098837,57.6851851 C124.434117,57.2984251 124.762797,56.9063851 125.161437,56.4047851 C125.326437,56.1975452 125.491437,55.9903052 125.652477,55.7777852 C126.044517,55.2590252 126.420717,54.7310252 126.782397,54.1924653 C126.948717,53.9429853 127.107117,53.6921853 127.307757,53.3727453 C127.561197,52.9727853 127.805397,52.5649053 128.044317,52.1530654 L128.173677,51.9273454 C128.289837,51.7240654 128.405997,51.5207854 128.515557,51.3161854 C128.825757,50.7433054 129.114837,50.1611855 129.392037,49.5698255 C129.512157,49.3124255 129.628317,49.0563455 129.739197,48.8002655 C130.066557,48.0571056 130.335837,47.3971056 130.614357,46.6275456 C131.979237,42.8431058 132.672236,38.875186 132.672236,34.8359862 C132.672236,15.6273472 117.044757,-0.000131999993 97.8361182,-0.000131999993 L97.8361182,-0.000131999993 Z" id="Fill-1"></path>
                    </g>
                </g>
            </g>
        </g>
    </g>
</svg>