<?xml version="1.0" encoding="UTF-8"?>
<svg width="82px" height="73px" viewBox="0 0 82 73" version="1.1" xmlns="http://www.w3.org/2000/svg" xmlns:xlink="http://www.w3.org/1999/xlink">
    <!-- Generator: sketchtool 63.1 (101010) - https://sketch.com -->
    <title>3CFDE416-E821-408F-8C5A-2CD4809750CF</title>
    <desc>Created with sketchtool.</desc>
    <g id="Page-1" stroke="none" stroke-width="1" fill="none" fill-rule="evenodd">
        <g id="2B-Food-Future-Foundation---Vision-2030-UN-Food-Systems-Summit-2021" transform="translate(-163.000000, -1443.000000)" fill="#6BB46D">
            <g id="Group-4-Copy" transform="translate(0.000000, 1160.000000)">
                <g id="Group-13-Copy" transform="translate(90.000000, 245.000000)">
                    <g id="Group-13" transform="translate(16.000000, 38.000000)">
                        <g id="Group-29" transform="translate(57.000000, 0.000000)">
                            <path d="M79.2423517,61.2897014 L75.6376516,70.2976015 L73.1912516,69.3197015 L76.7959517,60.3107013 L79.2423517,61.2897014 Z M59.4522513,67.1736015 C58.1817513,67.1736015 57.1257512,66.8865015 56.3942512,66.3431015 C52.9633511,63.7922014 51.5575511,62.6163014 50.1847511,61.4690014 C49.5654511,60.9476013 48.9252511,60.4141013 48.101351,59.7541013 L62.3298514,59.7882013 C62.8479514,59.7882013 63.3099514,59.4593013 63.4782514,58.9687013 C63.6476514,58.4770013 63.4870514,57.9325013 63.0756514,57.6135013 C62.0064513,56.7841013 60.4598513,56.2198012 56.7220512,54.8536012 L55.3756512,54.3630012 L55.2348512,54.3069012 C54.8806512,54.1914012 54.6023512,53.9494012 54.4912512,53.6601012 C54.4021512,53.4280012 54.4318512,53.1805012 54.5792512,52.9264012 C54.7200512,52.6844012 55.0082512,52.5271012 55.3129512,52.5271012 C55.3756512,52.5271012 55.4361512,52.5337012 55.4790512,52.5425012 C56.7814512,52.8978012 58.0387513,53.2927012 59.0881513,53.6216012 C59.9241513,53.8856012 60.5302513,54.0759012 60.8954513,54.1606012 C63.3231514,54.7183012 66.4207514,55.3024012 66.9311515,55.3937012 C69.3951515,55.8337012 71.0616515,56.7599013 72.0252516,58.2262013 L72.7127516,59.2701013 C73.0658516,59.8058013 73.5124516,60.2700013 74.0415516,60.6539013 L71.5720516,66.8282015 C71.0220515,66.7039015 70.4654515,66.6412015 69.9121515,66.6412015 L69.5975515,66.6489015 C68.5393515,66.7270015 63.0800514,67.1208015 59.5831513,67.1725015 L59.4522513,67.1736015 Z M81.7151518,60.2293013 C81.5259518,59.7882013 81.1772518,59.4461013 80.7317517,59.2701013 L77.1116517,57.8214013 C76.9004517,57.7367013 76.6782517,57.6927013 76.4505517,57.6927013 C75.9170516,57.6927013 75.4110516,57.9380013 75.0722516,58.3406013 C74.9457516,58.2108013 74.8346516,58.0755013 74.7422516,57.9336013 L74.0558516,56.8897013 C72.7050516,54.8371012 70.5127515,53.5655012 67.3568515,53.0023012 C66.7397514,52.8912012 63.6883514,52.3093012 61.4410513,51.7934011 C61.1649513,51.7296011 60.5401513,51.5327011 59.8163513,51.3050011 C58.7779513,50.9783011 57.4843512,50.5713011 56.0532512,50.1830011 C55.8068512,50.1291011 55.5560512,50.1016011 55.3063512,50.1016011 C54.1370512,50.1016011 53.0524511,50.7176011 52.4771511,51.7076011 C51.9590511,52.6019012 51.8677511,53.6040012 52.2230511,54.5280012 C52.5816511,55.4707012 53.3648512,56.2187012 54.4164512,56.5960012 C54.4164512,56.5960012 56.4008512,57.3242013 56.4580512,57.3451013 L45.394251,57.3187013 C44.859651,57.3242013 44.420751,57.6300013 44.245851,58.1162013 C44.072051,58.5991013 44.220551,59.1381013 44.569251,59.4175013 C44.601151,59.4593013 44.656151,59.5583013 44.697951,59.6320013 C44.901451,59.9906013 45.244651,60.5912013 45.962951,61.1577013 C47.083851,62.0399014 47.867051,62.6955014 48.6260511,63.3313014 C50.0098511,64.4896014 51.4409511,65.6875014 54.9466512,68.2934015 C56.0983512,69.1503015 57.6603512,69.6024015 59.4632513,69.6024015 L59.6205513,69.6013015 C63.4980514,69.5441015 69.7548515,69.0733015 69.7603515,69.0711015 L69.9220515,69.0678015 C70.1640515,69.0678015 70.4104515,69.0876015 70.6579515,69.1250015 C70.3741515,70.0127015 70.8251515,70.9862016 71.7029516,71.3404016 L75.3208516,72.7869016 C75.5364516,72.8738016 75.7608516,72.9167016 75.9896516,72.9167016 C76.2327517,72.9167016 76.4692517,72.8683016 76.6958517,72.7715016 C77.1369517,72.5845016 77.4779517,72.2336016 77.6572517,71.7881016 L81.7327518,61.6032014 C81.9109518,61.1588013 81.9043518,60.6704013 81.7151518,60.2293013 L81.7151518,60.2293013 Z" id="Fill-1"></path>
                            <path d="M28.5703006,37.9898308 C28.4339006,37.4431308 27.9455006,37.0614308 27.3812006,37.0614308 C27.2822006,37.0614308 27.1832006,37.0735308 27.0842006,37.0966308 C26.4297006,37.2616308 26.0282006,37.9271308 26.1921006,38.5816309 C26.9192006,41.5043309 28.6935006,44.034331 31.1894007,45.707431 C31.2928007,45.775631 31.4061007,45.828431 31.5326007,45.865831 C31.6437007,45.896631 31.7559007,45.912031 31.8692007,45.912031 C32.2795007,45.912031 32.6601007,45.709631 32.8867007,45.369731 C33.0693007,45.099131 33.1342007,44.772431 33.0715007,44.451231 C33.0077007,44.128931 32.8229007,43.851731 32.5512007,43.669131 C30.5635007,42.3359309 29.1500006,40.3196309 28.5703006,37.9898308" id="Fill-3"></path>
                            <path d="M48.9611111,36.4698508 L37.0503108,36.4698508 C36.3749108,36.4698508 35.8249108,37.0187508 35.8249108,37.6941508 C35.8249108,38.3706509 36.3749108,38.9206509 37.0503108,38.9206509 L48.9611111,38.9206509 C49.6365111,38.9206509 50.1854111,38.3706509 50.1854111,37.6941508 C50.1854111,37.0187508 49.6365111,36.4698508 48.9611111,36.4698508" id="Fill-5"></path>
                            <path d="M27.6142906,28.7258506 C27.9618906,28.1637506 28.4161906,27.9668506 29.1718906,27.6379506 L29.2873906,27.5862506 C29.4468906,27.5169506 29.6096906,27.4454506 29.7757906,27.3673506 C30.2553907,27.1407506 30.6898907,26.8767506 31.1100907,26.6226506 C31.7436907,26.2376506 32.3431907,25.8735506 32.9646907,25.7239506 C33.0449907,25.7052506 33.1329907,25.6953506 33.2297907,25.6953506 C33.5278907,25.6953506 33.8765907,25.7811506 34.2879907,25.8823506 C34.7301908,25.9923506 35.3329908,26.1397506 36.0347908,26.1397506 L36.0402908,26.1397506 C37.2788908,26.1078506 38.1478908,25.4687506 38.8463908,24.9550506 C39.3105909,24.6140506 39.7120909,24.3192505 40.1212909,24.2565505 C40.1608909,24.2499505 40.2004909,24.2466505 40.2400909,24.2466505 C40.5425909,24.2466505 40.8670909,24.4303506 41.3653909,24.7339506 C41.8042909,25.0001506 42.3036909,25.3026506 42.9119909,25.4676506 C43.1209909,25.5248506 43.3376909,25.5534506 43.5565909,25.5534506 C44.185791,25.5534506 44.731391,25.3235506 45.168091,25.1398506 C45.399091,25.0430506 45.617991,24.9495506 45.812691,24.9099506 C45.884191,24.8956506 45.961191,24.8879506 46.040391,24.8879506 C46.534291,24.8879506 47.118391,25.1684506 47.776191,25.5061506 C48.267891,25.7602506 48.7903911,25.9857506 49.3425911,26.2233506 C50.9254911,26.9031506 52.5644911,27.6060506 53.0869912,28.9469506 C53.3498912,29.6190507 53.7084912,30.1789507 54.0604912,30.7300507 C54.7798912,31.8542507 55.2297912,32.5560507 54.7017912,33.7968508 C54.6258912,33.7891508 54.5477912,33.7858508 54.4718912,33.7858508 L24.9093905,33.7858508 C24.7784905,33.7858508 24.6431905,33.7990508 24.4979905,33.8276508 C24.0579905,33.2963507 23.9204905,32.8849507 23.9490905,32.7870507 C24.0106905,32.6572507 24.4979905,32.4108507 24.7388905,32.2876507 C25.0666905,32.1215507 25.4043906,31.9510507 25.7101906,31.7090507 C26.5285906,31.0655507 26.8992906,30.2317507 27.1962906,29.5618507 C27.3304906,29.2637507 27.4558906,28.9810506 27.6142906,28.7258506 M45.526691,48.5335511 C45.281391,48.5951511 45.028391,48.6567511 44.770991,48.7150511 C44.748991,48.7205511 42.5896909,49.1990511 39.8561909,49.1990511 C38.4030908,49.1990511 37.0478908,49.0648511 35.8279908,48.8008511 C30.7316907,47.6942511 28.9001906,45.020151 28.8495906,44.951951 C26.6176906,42.5264509 25.2481905,39.4134509 24.9775905,36.2355508 L54.3816912,36.2355508 C53.9361912,41.6684509 50.5305911,46.381951 45.526691,48.5335511 M56.8324912,36.3411508 C56.8621912,35.9451508 56.7884912,35.5469508 56.6201912,35.1784508 C57.9786913,32.5384507 56.8478912,30.7718507 56.0118912,29.4683507 C55.7126912,29.0008507 55.4299912,28.5597506 55.2506912,28.1021506 C54.3761912,25.8581506 52.1904911,24.9176506 50.2423911,24.0794505 C49.7385911,23.8627505 49.2644911,23.6603505 48.8365911,23.4381505 C48.163391,23.0905505 47.145891,22.5647505 46.030491,22.5647505 C45.807191,22.5647505 45.580591,22.5867505 45.352891,22.6329505 C44.948091,22.7132505 44.589491,22.8639505 44.270491,22.9970505 C44.000991,23.1092505 43.7248909,23.2258505 43.5301909,23.2258505 L43.5213909,23.2258505 C43.2331909,23.1477505 42.9174909,22.9574505 42.5698909,22.7462505 C41.9956909,22.3986505 41.2102909,21.9212505 40.2389909,21.9212505 C40.0849909,21.9212505 39.9265909,21.9333505 39.7637909,21.9586505 C38.7935908,22.1104505 38.0906908,22.6263505 37.4702908,23.0817505 C36.9224908,23.4843505 36.4890908,23.8022505 35.9104908,23.8176505 C35.6178908,23.8176505 35.2636908,23.7307505 34.8335908,23.6229505 C34.3528907,23.5063505 33.8083907,23.3721505 33.2242907,23.3721505 C32.9415907,23.3721505 32.6786907,23.4018505 32.4201907,23.4645505 C31.4466907,23.6999505 30.6634907,24.1751505 29.9033906,24.6360506 C29.5194906,24.8692506 29.1564906,25.0892506 28.7835906,25.2641506 C28.5987906,25.3532506 28.4172906,25.4313506 28.2412906,25.5072506 C27.3623906,25.8911506 26.3679906,26.3234506 25.6375906,27.5048506 C25.3999906,27.8876506 25.2283905,28.2737506 25.0710905,28.6235506 C24.8279905,29.1680507 24.6343905,29.5981507 24.2724905,29.8841507 C24.1393905,29.9875507 23.8863905,30.1151507 23.6762905,30.2196507 C23.0063905,30.5617507 22.0878905,31.0281507 21.7479905,32.0478507 C21.3387905,33.2699507 22.0108905,34.4711508 22.7082905,35.3104508 C22.5773905,35.6459508 22.5223905,35.9990508 22.5498905,36.3422508 C22.7819905,39.3903509 23.8467905,42.3361509 25.6144906,44.838651 C25.6551906,44.906851 29.7933906,51.6223511 39.8572909,51.6234511 C40.0827909,51.6234511 40.3115909,51.6190511 40.5436909,51.6135511 C46.601391,51.4353511 48.5890911,49.7985511 51.9099911,47.066151 C54.7754912,44.173151 56.5233912,40.3649509 56.8324912,36.3411508" id="Fill-7"></path>
                            <path d="M27.5090206,33.4781807 C27.6707206,33.5606807 27.8456206,33.6013807 28.0282206,33.6013807 C28.4715206,33.6013807 28.8697206,33.3560807 29.0688206,32.9600807 C29.3691206,32.3583807 29.7475206,31.8182807 29.9235206,31.6389807 C30.4295207,31.5058807 30.7859207,31.0482807 30.7859207,30.5158807 C30.7859207,29.8756807 30.2656207,29.3542807 29.6254206,29.3542807 C28.7146206,29.3542807 27.8522206,30.1946807 26.9887206,31.9216807 C26.8501206,32.1988807 26.8281206,32.5134807 26.9271206,32.8082807 C27.0250206,33.1019807 27.2318206,33.3406807 27.5090206,33.4781807" id="Fill-9"></path>
                            <path d="M34.7653908,30.6830807 C34.9237908,30.7567807 35.0909908,30.7952807 35.2636908,30.7952807 C35.7102908,30.7952807 36.1216908,30.5345807 36.3119908,30.1319807 C36.5880908,29.5544807 36.3427908,28.8592806 35.7630908,28.5842806 C35.1558908,28.2938806 34.6080908,27.9264806 34.4254907,27.7537806 C34.2846907,27.2719806 33.8259907,26.9243806 33.2880907,26.9133806 C32.9778907,26.9188806 32.6885907,27.0442806 32.4729907,27.2675806 C32.2573907,27.4919806 32.1407907,27.7856806 32.1473907,28.0958806 C32.1638907,29.0077807 33.0196907,29.8525807 34.7653908,30.6830807" id="Fill-11"></path>
                            <path d="M39.8303409,28.1618806 L39.9447409,28.1563806 C40.2054409,28.1299806 40.4815409,28.1178806 40.7367409,28.1178806 C41.1096409,28.1178806 41.3846409,28.1431806 41.5188409,28.1728806 C41.7322409,28.3697806 42.0149409,28.4819806 42.3086409,28.4819806 C42.5275409,28.4819806 42.7409409,28.4192806 42.9301409,28.3015806 C43.4713409,27.9583806 43.6319409,27.2400806 43.2909409,26.6988806 C42.9004409,26.0839806 42.0831409,25.7858806 40.7884409,25.7858806 C40.4606409,25.7858806 40.1020409,25.8045806 39.7115409,25.8441806 C39.0746408,25.9079806 38.6082408,26.4799806 38.6720408,27.1168806 C38.7314408,27.7031806 39.2407409,28.1618806 39.8303409,28.1618806" id="Fill-13"></path>
                            <path d="M44.329121,31.0074707 C44.446821,31.0360707 44.567821,31.0514707 44.688821,31.0514707 C45.496221,31.0514707 46.420221,30.4343707 47.514721,29.1649707 C47.931621,28.6820706 47.878821,27.9472706 47.392621,27.5270706 C47.182521,27.3455706 46.913021,27.2454706 46.634721,27.2454706 C46.297021,27.2454706 45.976921,27.3917706 45.755821,27.6469706 C45.316921,28.1540706 44.819721,28.5841706 44.603021,28.7172706 L44.592021,28.7172706 C44.073921,28.7172706 43.6196209,29.0780707 43.4876209,29.5961707 C43.3314209,30.2165707 43.7087209,30.8490707 44.329121,31.0074707" id="Fill-15"></path>
                            <path d="M51.0053511,33.3449707 C51.1901511,33.4593707 51.4024511,33.5198707 51.6191511,33.5198707 C52.0228511,33.5198707 52.3913511,33.3174707 52.6036511,32.9753707 C52.9446511,32.4341707 52.7785511,31.7158707 52.2362511,31.3737707 C51.6664511,31.0162707 51.1659511,30.5883707 51.0042511,30.3958707 C50.9206511,29.8799707 50.4993511,29.4795707 49.9746511,29.4300707 L49.8448511,29.4234707 C49.2508511,29.4234707 48.7591511,29.8744707 48.7008511,30.4728707 C48.6128511,31.3803707 49.3663511,32.3186707 51.0053511,33.3449707" id="Fill-17"></path>
                            <path d="M39.3673509,32.8551407 C39.5829509,33.0520407 39.8623509,33.1598407 40.1538509,33.1598407 C40.4772509,33.1598407 40.7885509,33.0234407 41.0085509,32.7858407 C41.4419509,32.3139407 41.4100509,31.5769407 40.9403509,31.1435407 C40.4585509,30.7013407 40.0350509,30.1766407 39.9085509,29.9533407 C39.9206509,29.4319407 39.5807509,28.9622406 39.0692508,28.8148406 C38.9658508,28.7851406 38.8580508,28.7697406 38.7491508,28.7697406 C38.2343508,28.7697406 37.7745508,29.1151407 37.6315508,29.6079407 C37.3774508,30.4824407 37.9450508,31.5450407 39.3673509,32.8551407" id="Fill-19"></path>
                            <path d="M22.4086505,67.1731615 L22.2777505,67.1720615 C18.7819504,67.1203615 13.3226503,66.7276615 12.2226503,66.6462615 L11.9498503,66.6418615 C11.3954502,66.6418615 10.8377502,66.7034615 10.2888502,66.8288615 L7.81825017,60.6534613 C8.34955018,60.2717613 8.79505019,59.8064613 9.1481502,59.2696613 L9.83565021,58.2257613 C10.8003502,56.7594613 12.4668503,55.8332612 14.9319503,55.3932612 C15.4456503,55.3008612 18.5597504,54.7145612 20.9654505,54.1601612 C21.3339505,54.0754612 21.9697505,53.8752612 22.8310505,53.6035612 C23.8430505,53.2867612 25.0904505,52.8962612 26.3664506,52.5464612 C26.4247506,52.5332612 26.4863506,52.5277612 26.5490506,52.5277612 C26.8537506,52.5277612 27.1419506,52.6839612 27.2827506,52.9270612 C27.4290506,53.1800612 27.4598506,53.4275612 27.3696506,53.6618612 C27.2596506,53.9500612 26.9813506,54.1909612 26.6304506,54.3064612 L25.1388505,54.8542612 C21.4010505,56.2204612 19.8544504,56.7858613 18.7863504,57.6141613 C18.3749504,57.9331613 18.2143504,58.4776613 18.3826504,58.9682613 C18.5509504,59.4577613 19.0129504,59.7877613 19.5343504,59.7877613 L33.7584507,59.7536613 C32.9345507,60.4136613 32.2943507,60.9504613 31.6651507,61.4784614 C30.3055507,62.6158614 28.8975506,63.7928614 25.4666506,66.3426615 C24.7362505,66.8860615 23.6780505,67.1731615 22.4086505,67.1731615 L22.4086505,67.1731615 Z M8.66965019,69.3192615 L6.22435013,70.2982615 L2.61965006,61.2892614 L5.06495011,60.3113613 L8.66965019,69.3192615 Z M36.4633508,57.3182613 L25.4028506,57.3446613 C25.5238506,57.3006613 27.4906506,56.5790612 27.4906506,56.5790612 C28.4949506,56.2193612 29.2781506,55.4713612 29.6389506,54.5286612 C29.9942507,53.6035612 29.9018506,52.6014612 29.3848506,51.7071611 C28.8084506,50.7160611 27.7238506,50.1011611 26.5545506,50.1011611 C26.3048506,50.1011611 26.0529506,50.1286611 25.7427506,50.1990611 C24.3897505,50.5675611 23.0972505,50.9734611 22.0445505,51.3045611 C21.3218505,51.5322611 20.6970504,51.7291611 20.4198504,51.7940611 C18.1857504,52.3066612 15.1266503,52.8907612 14.5040503,53.0018612 C11.3481502,53.5650612 9.1569502,54.8366612 7.80615017,56.8892613 L7.11865015,57.9353613 C7.02625015,58.0750613 6.91625015,58.2125613 6.78975015,58.3412613 C6.45095014,57.9375613 5.94495013,57.6933613 5.41145012,57.6933613 C5.18375011,57.6933613 4.96155011,57.7362613 4.7492501,57.8209613 L1.12915002,59.2696613 C0.684750015,59.4467613 0.336050007,59.7877613 0.146850003,60.2299613 C-0.0423500009,60.6699613 -0.0489500011,61.1583613 0.129250003,61.6038614 L4.20365009,71.7865616 C4.38075009,72.2342616 4.7228501,72.5829616 5.16505011,72.7710616 C5.38945012,72.8678616 5.62815012,72.9173616 5.87235013,72.9173616 C6.10115013,72.9173616 6.32555014,72.8744616 6.54115014,72.7875616 L10.1590502,71.3399616 C11.0368502,70.9868616 11.4867502,70.0133615 11.2029502,69.1245615 C11.4504502,69.0871615 11.6979503,69.0684615 11.9388503,69.0684615 L12.0730503,69.0695615 C12.1071503,69.0739615 18.3650504,69.5436615 22.2425505,69.6008615 L22.3987505,69.6019615 C24.2005505,69.6019615 25.7625506,69.1498615 26.9153506,68.2940615 C30.4111507,65.6947614 31.8455507,64.4935614 33.2755507,63.2978614 C34.0213507,62.6741614 34.7968508,62.0251614 35.8990508,61.1572613 C36.6173508,60.5918613 36.9605508,59.9912613 37.1640508,59.6315613 C37.2058508,59.5578613 37.2608508,59.4588613 37.2498508,59.4588613 C37.6414508,59.1376613 37.7888508,58.5986613 37.6161508,58.1168613 C37.4412508,57.6295613 37.0023508,57.3237613 36.4633508,57.3182613 L36.4633508,57.3182613 Z" id="Fill-21"></path>
                            <path d="M2.61932006,11.7273303 L6.22402013,2.72053008 L8.66932019,3.6973301 L5.06572011,12.7074303 L2.61932006,11.7273303 Z M22.4083205,5.84343015 C23.6799205,5.84343015 24.7359205,6.13163015 25.4674206,6.67503017 C28.8873206,9.21603022 30.2920207,10.3919302 31.6857207,11.5579303 C32.3028207,12.0738303 32.9386207,12.6073303 33.7592207,13.2629303 L19.5307204,13.2288303 C19.0115204,13.2288303 18.5506204,13.5588303 18.3834204,14.0483303 C18.2140204,14.5400303 18.3746204,15.0845303 18.7860204,15.4035304 C19.8530204,16.2318304 21.4007205,16.7961304 25.1385205,18.1645304 L26.6268206,18.7101304 C26.9810206,18.8256304 27.2593206,19.0665304 27.3693206,19.3569304 C27.4595206,19.5890304 27.4298206,19.8365305 27.2824206,20.0917305 C27.1427206,20.3326305 26.8534206,20.4899305 26.5487206,20.4899305 C26.4860206,20.4899305 26.4255206,20.4833305 26.3826206,20.4745305 C25.0648205,20.1159305 23.7943205,19.7166304 22.7724205,19.3954304 C21.9694205,19.1413304 21.3347205,18.9422304 20.9662205,18.8564304 C18.4967204,18.2888304 15.3980203,17.7080304 14.9305203,17.6244304 C12.4676203,17.1844304 10.8011202,16.2582304 9.83642021,14.7908303 L9.1489202,13.7469303 C8.79472019,13.2112303 8.34922018,12.7459303 7.81902017,12.3631303 L10.2896202,6.18883016 C10.8374202,6.31313016 11.3951202,6.37693016 11.9495203,6.37693016 L12.2641203,6.36813016 C13.3223203,6.29113016 18.7794204,5.89733015 22.2774205,5.84453015 L22.4083205,5.84343015 Z M1.12992002,13.7480303 L4.7500201,15.1956304 C4.96122011,15.2803304 5.18342011,15.3254304 5.41112012,15.3254304 C5.94462013,15.3254304 6.45062014,15.0790303 6.78942015,14.6764303 C6.91482015,14.8051303 7.02592015,14.9415303 7.11832015,15.0834303 L7.80582017,16.1273304 C9.1566202,18.1799304 11.3489202,19.4515304 14.5048203,20.0147305 C15.2814203,20.1555305 18.2481204,20.7253305 20.4195204,21.2236305 C20.6978204,21.2874305 21.3215205,21.4843305 22.0563205,21.7153305 C23.0969205,22.0431305 24.3894205,22.4490305 25.8073206,22.8351305 C26.0537206,22.8890305 26.3045206,22.9165305 26.5542206,22.9165305 C27.7224206,22.9165305 28.8081206,22.3016305 29.3845206,21.3105305 C29.9026206,20.4162305 29.9939207,19.4141304 29.6386206,18.4879304 C29.2778206,17.5463304 28.4946206,16.7983304 27.4452206,16.4199304 C27.4452206,16.4199304 25.5851206,15.7390304 25.4003206,15.6730304 L36.4685208,15.6994304 C37.0020208,15.6917304 37.4409208,15.3870304 37.6158208,14.9008303 C37.7918208,14.4102303 37.6477208,13.8844303 37.2913208,13.5973303 C37.2594208,13.5566303 37.2055208,13.4587303 37.1637208,13.3850303 C36.9591208,13.0264303 36.6170208,12.4258303 35.8987208,11.8604303 C34.7767208,10.9760303 33.9924207,10.3215302 33.2345207,9.68793023 C31.8584207,8.53403021 30.4339207,7.34163018 26.9150206,4.72473012 C25.7622206,3.86783011 24.2013205,3.4146301 22.3984205,3.4146301 L22.2411205,3.4157301 C18.3592204,3.4729301 12.1409203,3.94263011 12.1013203,3.94593011 L11.9396203,3.94923011 C11.6976203,3.94923011 11.4512202,3.92943011 11.2037202,3.89203011 C11.4875202,3.00323009 11.0376202,2.03083007 10.1587202,1.67773006 L6.54082014,0.230130027 C6.32522014,0.144330025 6.10082013,0.100330024 5.87202013,0.100330024 C5.62782012,0.100330024 5.39022012,0.149830025 5.16472011,0.245530027 C4.7225201,0.434730031 4.38152009,0.785630039 4.20442009,1.23003005 L0.128920003,11.4138303 C-0.238480005,12.3345303 0.211420005,13.3806303 1.12992002,13.7480303 L1.12992002,13.7480303 Z" id="Fill-24"></path>
                            <path d="M59.4520313,5.84387015 L59.5829313,5.84497015 C63.0809314,5.89777015 68.5402315,6.29047016 69.6391315,6.37077016 L69.9119315,6.37627016 C70.4674315,6.37627016 71.0240315,6.31357016 71.5729316,6.18817016 L74.0435316,12.3635703 C73.5122316,12.7463703 73.0656316,13.2105703 72.7136316,13.7473703 L72.0261316,14.7912703 C71.0614315,16.2586704 69.3938315,17.1848704 66.9309315,17.6248704 C66.5393314,17.6930704 63.3779314,18.2859704 60.8952313,18.8568704 C60.5289313,18.9404704 59.9250313,19.1318704 59.0879313,19.3947704 C58.1276313,19.6972704 56.8120312,20.1119705 55.4953312,20.4705705 C55.4370312,20.4837705 55.3754312,20.4892705 55.3127312,20.4892705 C55.0080312,20.4892705 54.7187312,20.3330705 54.5790312,20.0910705 C54.4327312,19.8369705 54.4019312,19.5894704 54.4910312,19.3562704 C54.6021312,19.0669704 54.8804312,18.8260704 55.2313312,18.7105704 L56.7218312,18.1638704 C60.4607313,16.7965704 62.0073313,16.2311704 63.0754314,15.4028704 C63.4868314,15.0838703 63.6474314,14.5393703 63.4780314,14.0487703 C63.3097314,13.5581703 62.8466314,13.2292703 62.3274314,13.2292703 L48.102231,13.2633703 C48.9272311,12.6033703 49.5707311,12.0643703 50.2109311,11.5286703 C51.5694311,10.3923702 52.9741311,9.21537022 56.3951312,6.67437017 C57.1255312,6.13207015 58.1826313,5.84387015 59.4520313,5.84387015 L59.4520313,5.84387015 Z M73.1910316,3.6977701 L75.6374316,2.71987008 L79.2421317,11.7277703 L76.7968317,12.7067703 L73.1910316,3.6977701 Z M45.398431,15.6998704 L56.4600312,15.6734704 C56.2785312,15.7394704 54.3711312,16.4390704 54.3711312,16.4390704 C53.3657312,16.7998704 52.5814311,17.5478704 52.2228311,18.4883704 C51.8675311,19.4145704 51.9588311,20.4166705 52.4769311,21.3109705 C53.0533311,22.3009705 54.1368312,22.9169705 55.3072312,22.9169705 C55.5569312,22.9169705 55.8077312,22.8894705 56.1190312,22.8179705 C57.4841312,22.4450705 58.7777313,22.0391705 59.8161313,21.7124705 C60.5399313,21.4847705 61.1658313,21.2878705 61.4408313,21.2229705 C63.8080314,20.6795705 66.8891314,20.0998705 67.3577315,20.0151705 C70.5136315,19.4519704 72.7048316,18.1803704 74.0556316,16.1277704 L74.7409316,15.0827703 C74.8355316,14.9419703 74.9455316,14.8044703 75.0720316,14.6757703 C75.4108316,15.0794703 75.9168316,15.3247704 76.4503317,15.3247704 C76.6769317,15.3247704 76.9002317,15.2807704 77.1125317,15.1960704 L80.7326317,13.7484703 C81.6511318,13.3810703 82.0999318,12.3327703 81.7325318,11.4131703 L77.6570317,1.23047005 C77.4799317,0.783870039 77.1378317,0.435170031 76.6967317,0.245970027 C76.4701317,0.148070025 76.2325317,0.0996700238 75.9894316,0.0996700238 C75.7606316,0.0996700238 75.5362316,0.143670025 75.3206316,0.229470027 L71.7038316,1.67817006 C70.8249315,2.03017007 70.3750315,3.00367009 70.6588315,3.89247011 C70.4102315,3.92987011 70.1638315,3.94857011 69.9229315,3.94857011 L69.7755315,3.94637011 C69.7205315,3.94197011 63.5066314,3.4733701 59.6192313,3.4161701 L59.4630313,3.4150701 C57.6590312,3.4150701 56.0981312,3.86827011 54.9464312,4.72407012 C51.4176311,7.34757018 49.9986311,8.53667021 48.6258311,9.68617023 C47.869031,10.3208702 47.084731,10.9764703 45.962731,11.8608703 C45.244431,12.4251703 44.902331,13.0257703 44.697731,13.3854703 C44.655931,13.4591703 44.602031,13.5570703 44.611931,13.5581703 C44.213731,13.8848703 44.070731,14.4106703 44.245631,14.9012703 C44.420531,15.3874704 44.859431,15.6921704 45.398431,15.6998704 L45.398431,15.6998704 Z" id="Fill-26"></path>
                        </g>
                    </g>
                </g>
            </g>
        </g>
    </g>
</svg>