<?xml version="1.0" encoding="UTF-8"?>
<svg width="86px" height="72px" viewBox="0 0 86 72" version="1.1" xmlns="http://www.w3.org/2000/svg" xmlns:xlink="http://www.w3.org/1999/xlink">
    <!-- Generator: sketchtool 63.1 (101010) - https://sketch.com -->
    <title>92A14E5C-0D0B-4600-B1FD-E44FF84486EA</title>
    <desc>Created with sketchtool.</desc>
    <defs>
        <polygon id="path-1" points="0.257783259 0.4483 35.257 0.4483 35.257 43.8133 0.257783259 43.8133"></polygon>
        <polygon id="path-3" points="0.000113807047 0.021 64.2740862 0.021 64.2740862 72 0.000113807047 72"></polygon>
    </defs>
    <g id="Page-1" stroke="none" stroke-width="1" fill="none" fill-rule="evenodd">
        <g id="2B-Food-Future-Foundation---Vision-2030-UN-Food-Systems-Summit-2021" transform="translate(-677.000000, -1438.000000)">
            <g id="Group-4-Copy" transform="translate(0.000000, 1160.000000)">
                <g id="Group-13-Copy-5" transform="translate(606.000000, 245.000000)">
                    <g id="Group-13" transform="translate(16.000000, 32.000000)">
                        <g id="Group-15" transform="translate(55.000000, 0.000000)">
                            <g id="Group-3" transform="translate(50.000000, 13.979100)">
                                <mask id="mask-2" fill="white">
                                    <use xlink:href="#path-1"></use>
                                </mask>
                                <g id="Clip-2"></g>
                                <path d="M28.8162,37.5033 C28.5152,37.3813 28.2412,37.1973 28.0212,36.9453 C27.6772,36.5653 27.4892,36.0703 27.4892,35.5523 C27.4892,34.9873 27.7102,34.4553 28.1122,34.0543 C28.5092,33.6563 29.0382,33.4383 29.6032,33.4383 C29.7242,33.4383 29.8332,33.4413 29.9322,33.4593 C30.0422,33.4783 30.1522,33.5023 30.2632,33.5363 C30.3912,33.5783 30.5242,33.5993 30.6572,33.5993 C31.2042,33.5993 31.6872,33.2493 31.8582,32.7283 C31.9622,32.4043 31.9362,32.0613 31.7842,31.7593 C31.6292,31.4543 31.3662,31.2293 31.0442,31.1263 C30.8262,31.0543 30.5842,30.9973 30.3202,30.9523 C30.0732,30.9213 29.8342,30.8973 29.6032,30.8973 C28.3682,30.8973 27.2012,31.3803 26.3142,32.2593 C25.4392,33.1423 24.9562,34.3123 24.9562,35.5523 C24.9562,36.6883 25.3722,37.7803 26.1272,38.6283 C26.3132,38.8383 26.5162,39.0293 26.7342,39.2013 C25.3842,40.0883 23.8782,40.7333 22.2742,41.0803 L19.1752,14.8673 C19.2772,14.8643 19.3782,14.8633 19.4802,14.8633 C21.0552,14.8633 22.6142,15.1603 24.0842,15.7093 C24.1502,15.7493 24.2272,15.7673 24.3012,15.7953 C25.5052,16.2683 26.6482,16.9073 27.6742,17.7173 C30.4562,19.9133 32.2162,23.0553 32.6292,26.5633 C33.0482,30.0803 32.0692,33.5493 29.8702,36.3323 C29.5442,36.7483 29.1862,37.1333 28.8162,37.5033 M17.7592,8.0713 C19.2972,8.0713 20.7422,8.6693 21.8272,9.7553 C22.6802,10.6073 23.2212,11.6793 23.4222,12.8393 C22.1382,12.5063 20.8122,12.3313 19.4802,12.3313 C18.9082,12.3313 18.3312,12.3703 17.7582,12.4333 C17.1862,12.3703 16.6092,12.3313 16.0372,12.3313 C14.7052,12.3313 13.3802,12.5063 12.0972,12.8393 C12.2982,11.6793 12.8392,10.6063 13.6912,9.7543 C14.7692,8.6693 16.2142,8.0713 17.7592,8.0713 M13.4602,39.2593 L13.2442,41.0803 C10.2382,40.4303 7.5522,38.7573 5.6392,36.3313 C3.4462,33.5463 2.4692,30.0773 2.8902,26.5623 C2.9782,25.8083 3.1412,25.0773 3.3502,24.3643 C3.3802,24.3893 3.4062,24.4193 3.4372,24.4433 C4.2482,25.0733 5.2592,25.4203 6.2852,25.4203 C7.5292,25.4203 8.6962,24.9383 9.5732,24.0613 C10.4532,23.1803 10.9392,22.0123 10.9392,20.7733 C10.9392,20.2363 10.8402,19.6943 10.6462,19.1623 C10.4552,18.6473 10.1792,18.1753 9.8232,17.7533 C9.5792,17.4713 9.2272,17.3103 8.8552,17.3103 C8.5532,17.3103 8.2612,17.4183 8.0392,17.6103 C7.7792,17.8303 7.6202,18.1393 7.5942,18.4793 C7.5672,18.8173 7.6752,19.1463 7.8982,19.4033 C8.0532,19.5803 8.1792,19.7953 8.2692,20.0343 C8.3542,20.2713 8.3992,20.5263 8.3992,20.7733 C8.3992,21.3383 8.1802,21.8673 7.7862,22.2623 C7.3762,22.6653 6.8432,22.8883 6.2852,22.8883 C5.8132,22.8883 5.3642,22.7333 4.9862,22.4403 C4.7472,22.2563 4.5712,22.0073 4.4302,21.7393 C5.2742,20.2033 6.4232,18.8353 7.8432,17.7173 C10.1762,15.8773 13.0862,14.8633 16.0372,14.8633 C16.1392,14.8633 16.2412,14.8643 16.3422,14.8673 L13.4622,39.2443 C13.4612,39.2463 13.4602,39.2483 13.4592,39.2503 C13.4592,39.2533 13.4602,39.2563 13.4602,39.2593 M17.7592,38.4363 C17.2782,38.4363 16.8032,38.4143 16.3362,38.3803 C16.2622,38.3733 16.1922,38.3603 16.1182,38.3533 L17.7592,24.4843 L19.3992,38.3513 C19.3212,38.3583 19.2452,38.3723 19.1662,38.3793 C18.7062,38.4153 18.2332,38.4363 17.7592,38.4363 M35.1462,26.2713 C34.6552,22.0833 32.5582,18.3353 29.2432,15.7183 C28.2562,14.9433 27.1802,14.2983 26.0492,13.7803 C26.0352,11.5823 25.1772,9.5183 23.6252,7.9673 C23.2052,7.5453 22.7452,7.1783 22.2572,6.8613 C22.7152,6.1933 23.2142,5.5503 23.7962,4.9713 C24.6542,4.1213 25.6182,3.3993 26.6622,2.8243 C26.9602,2.6613 27.1762,2.3923 27.2712,2.0653 C27.3652,1.7413 27.3272,1.4013 27.1652,1.1073 C26.9432,0.7013 26.5172,0.4483 26.0542,0.4483 C25.8432,0.4483 25.6332,0.5033 25.4502,0.6043 C24.1972,1.2863 23.0392,2.1493 22.0102,3.1723 C21.2092,3.9663 20.5002,4.8553 19.8882,5.8153 C19.2012,5.6343 18.4892,5.5313 17.7592,5.5313 C17.0292,5.5313 16.3162,5.6343 15.6302,5.8153 C15.0172,4.8553 14.3082,3.9673 13.5062,3.1703 C12.4612,2.1413 11.3052,1.2773 10.0702,0.6053 C9.8842,0.5033 9.6742,0.4483 9.4632,0.4483 C9.0002,0.4483 8.5752,0.7013 8.3522,1.1073 C8.1882,1.4063 8.1512,1.7503 8.2462,2.0753 C8.3422,2.3983 8.5592,2.6653 8.8542,2.8243 C9.9002,3.3993 10.8642,4.1213 11.7202,4.9703 C12.3042,5.5503 12.8032,6.1933 13.2612,6.8603 C12.7732,7.1773 12.3132,7.5443 11.8942,7.9663 C10.3352,9.5233 9.4742,11.5883 9.4622,13.7843 C8.3332,14.3013 7.2582,14.9453 6.2732,15.7193 C4.4932,17.1243 3.0792,18.8633 2.0612,20.8153 C1.9192,20.9843 1.8102,21.1773 1.7712,21.3993 C1.0582,22.9193 0.5732,24.5543 0.3712,26.2703 C-0.1288,30.4443 1.0352,34.5753 3.6492,37.9013 C6.2642,41.2153 10.0112,43.3123 14.1992,43.8043 L14.3522,43.8133 C14.9902,43.8133 15.5282,43.3343 15.6042,42.6983 L15.8212,40.8623 C15.9232,40.8723 16.0262,40.8923 16.1272,40.9003 C16.7362,40.9513 17.2702,40.9763 17.7592,40.9763 C18.2882,40.9763 18.8242,40.9523 19.3702,40.9083 C19.4772,40.8993 19.5882,40.8783 19.6972,40.8673 L19.9132,42.6993 C19.9902,43.3343 20.5292,43.8133 21.1652,43.8133 L21.3182,43.8043 C24.5912,43.4193 27.5872,42.0433 29.9922,39.8823 C30.0252,39.8553 30.0542,39.8263 30.0842,39.7963 C30.7212,39.2153 31.3252,38.5913 31.8702,37.9003 C34.4762,34.5823 35.6402,30.4523 35.1462,26.2713" id="Fill-1" fill="#6BB46D" mask="url(#mask-2)"></path>
                            </g>
                            <path d="M61.0904,47.6933 C60.6804,48.0963 60.1474,48.3193 59.5894,48.3193 C59.0294,48.3193 58.4994,48.0973 58.0984,47.6963 C57.6964,47.2943 57.4754,46.7633 57.4754,46.2053 C57.4754,45.6403 57.6964,45.1083 58.0984,44.7073 C58.4944,44.3093 59.0244,44.0903 59.5894,44.0903 C60.1524,44.0903 60.6854,44.3103 61.0874,44.7073 C61.4854,45.1043 61.7034,45.6363 61.7034,46.2053 C61.7034,46.7683 61.4854,47.2973 61.0904,47.6933 M62.8784,42.9203 C62.0044,42.0373 60.8364,41.5503 59.5894,41.5503 C58.3424,41.5503 57.1744,42.0373 56.3024,42.9183 C55.4254,43.7953 54.9434,44.9623 54.9434,46.2053 C54.9434,47.4403 55.4254,48.6073 56.3024,49.4923 C57.1794,50.3693 58.3464,50.8513 59.5894,50.8513 C60.8324,50.8513 61.9994,50.3693 62.8764,49.4923 C63.7574,48.6123 64.2424,47.4453 64.2424,46.2053 C64.2424,44.9573 63.7574,43.7893 62.8784,42.9203" id="Fill-4" fill="#6BB46D"></path>
                            <path d="M77.2242,39.7802 C76.8272,40.1772 76.2972,40.3962 75.7332,40.3962 C75.1632,40.3962 74.6312,40.1772 74.2342,39.7802 C73.8372,39.3842 73.6192,38.8532 73.6192,38.2892 C73.6192,37.7202 73.8372,37.1882 74.2342,36.7912 C74.6322,36.3932 75.1642,36.1752 75.7332,36.1752 C76.2962,36.1752 76.8262,36.3932 77.2242,36.7912 C77.6202,37.1882 77.8392,37.7202 77.8392,38.2892 C77.8392,38.8532 77.6202,39.3842 77.2242,39.7802 M75.7332,33.6352 C74.4892,33.6352 73.3222,34.1182 72.4452,34.9952 C71.5642,35.8762 71.0782,37.0462 71.0782,38.2892 C71.0782,39.5272 71.5642,40.6952 72.4452,41.5772 C73.3222,42.4542 74.4892,42.9362 75.7332,42.9362 C76.9682,42.9362 78.1352,42.4542 79.0222,41.5752 C79.8972,40.6902 80.3792,39.5232 80.3792,38.2892 C80.3792,37.0502 79.8972,35.8802 79.0182,34.9932 C78.1352,34.1182 76.9682,33.6352 75.7332,33.6352" id="Fill-6" fill="#6BB46D"></path>
                            <g id="Group-10" transform="translate(0.000000, 0.979100)">
                                <mask id="mask-4" fill="white">
                                    <use xlink:href="#path-3"></use>
                                </mask>
                                <g id="Clip-9"></g>
                                <path d="M58.6981,57.6962 C58.6661,59.1372 58.5631,60.6142 58.3841,62.1282 L58.3071,62.7972 L58.7951,63.2342 C60.4531,64.7382 62.0341,67.0132 61.6491,67.8742 C61.5721,68.0412 60.6971,69.4552 53.5511,68.5812 L53.4351,68.5682 L42.8951,69.1332 C35.4021,69.5322 27.8181,69.5192 20.3371,69.1082 L10.9541,68.5682 L10.8391,68.5682 L10.7231,68.5812 C3.5771,69.4552 2.7021,68.0412 2.6251,67.8742 C2.2401,67.0132 3.8211,64.7382 5.4791,63.2342 L5.9671,62.7972 L5.8901,62.1282 C3.5121,42.0512 14.7331,28.4012 21.9061,21.8712 C23.6791,23.5422 26.8031,25.8042 30.9541,26.1642 C31.3271,26.2032 31.7001,26.2162 32.0731,26.2162 C35.5691,26.2162 39.0651,24.7892 42.5101,21.9872 C44.9631,24.2342 47.8671,27.3002 50.5341,31.1582 L52.3091,29.2322 C47.0821,21.8462 41.1051,17.3152 38.9361,15.8042 L42.1241,5.5342 L42.1761,5.1492 C42.1761,3.8762 41.5841,3.1692 41.0961,2.8092 C39.9781,1.9612 38.3581,2.1282 37.2401,2.3852 C35.4791,0.6502 33.6671,-0.1338 31.8291,0.0462 C29.6311,0.2522 28.0371,1.8332 27.1371,2.9892 C26.4811,2.6422 25.7871,2.4882 25.0681,2.5522 C23.1401,2.7192 21.6611,4.3002 21.1091,4.9952 C20.7231,5.4572 20.6591,6.0872 20.9161,6.6402 L25.2221,15.8942 C20.5431,19.1722 0.4401,34.9432 3.2681,61.7942 C1.9441,63.0922 -0.9089,66.3312 0.2861,68.9412 C1.3141,71.1902 4.6951,71.8972 10.9161,71.1392 L20.1831,71.6662 C24.0651,71.8842 27.9721,72.0002 31.8801,72.0002 C35.6071,72.0002 39.3351,71.8972 43.0371,71.7042 L53.3451,71.1392 C59.5791,71.8972 62.9601,71.1902 63.9881,68.9412 C65.1831,66.3312 62.3301,63.0922 61.0061,61.7942 C61.1201,60.7142 61.1971,59.6512 61.2391,58.6072 L58.6981,57.6962 Z M26.2631,18.3112 C27.7281,19.3902 29.7981,20.3422 32.1761,20.3422 C33.9881,20.3422 35.9671,19.7762 37.9851,18.2852 C38.6281,18.7482 39.5021,19.4162 40.5431,20.2642 C37.3941,22.7322 34.2581,23.8632 31.1991,23.6062 C27.9471,23.3362 25.3891,21.5502 23.8591,20.1622 C24.8231,19.3782 25.6461,18.7482 26.2631,18.3112 L26.2631,18.3112 Z M23.5121,6.1512 C24.0261,5.6372 24.6951,5.1622 25.2861,5.1102 C25.4921,5.0972 25.8261,5.1102 26.2631,5.4962 C26.6361,5.8302 27.1241,5.9712 27.6131,5.9072 C28.0751,5.8302 28.4991,5.5732 28.7441,5.1622 C29.1041,4.6092 30.3761,2.7712 32.0731,2.6042 C33.2041,2.5012 34.4381,3.1442 35.7491,4.5322 C36.1601,4.9822 36.8291,5.1742 37.4071,4.9952 C38.5511,4.6602 39.3611,4.7252 39.5531,4.8662 C39.5661,4.8792 39.5791,4.9172 39.5921,4.9952 L36.0321,16.5112 C32.8441,18.6062 30.0681,17.6812 28.4221,16.6532 L23.5121,6.1512 Z" id="Fill-8" fill="#6BB46D" mask="url(#mask-4)"></path>
                            </g>
                            <path d="M18.3581,35.8582 C18.2291,35.9352 11.8031,40.1512 11.0571,58.3522 C11.0321,59.0462 10.4661,59.5862 9.7721,59.5862 L9.7201,59.5862 C9.0141,59.5602 8.4611,58.9562 8.4871,58.2492 C9.3091,38.3132 16.7381,33.8142 17.0601,33.6342 C17.6771,33.2742 18.4611,33.4932 18.8081,34.1102 C19.1681,34.7142 18.9621,35.4982 18.3581,35.8582" id="Fill-11" fill="#6BB46D"></path>
                            <path d="M40.6461,39.0716 C40.6201,38.0566 40.7751,36.6806 41.5331,35.8966 C42.2911,35.1126 43.6671,34.9066 44.6821,34.8946 C44.7081,35.9096 44.5531,37.2976 43.7951,38.0816 C43.0371,38.8656 41.6611,39.0716 40.6461,39.0716 M40.6071,45.1646 C39.5661,45.3446 38.3201,44.7526 37.4581,44.2006 C37.9471,43.4546 38.7311,42.5546 39.6951,42.3746 C39.8231,42.3496 39.9651,42.3366 40.1061,42.3366 C41.0441,42.3366 42.0981,42.8506 42.8441,43.3266 C42.3431,44.0846 41.5591,44.9846 40.6071,45.1646 M36.2501,50.8966 C34.8881,51.1536 33.2301,50.3056 32.1761,49.6116 C32.7671,48.6476 33.8081,47.3876 35.0931,47.1566 C36.4561,46.8996 38.1141,47.7346 39.1681,48.4416 C38.5771,49.4056 37.5481,50.6526 36.2501,50.8966 M31.4811,57.8246 C29.5791,58.1846 27.2911,56.9506 25.9541,56.0256 C26.2761,55.4856 26.7391,54.7786 27.3551,54.1356 C27.4331,54.0586 27.5101,53.9816 27.5871,53.8916 C28.2421,53.2746 29.0261,52.7476 29.9391,52.5806 C31.8411,52.2336 34.1291,53.4546 35.4531,54.3806 C34.7981,55.5366 33.4091,57.4646 31.4811,57.8246 M23.6411,53.7116 C22.7151,52.3876 21.4811,50.0996 21.8411,48.1846 C22.2011,46.2436 24.1421,44.8686 25.2861,44.2126 C26.2121,45.5366 27.4451,47.8246 27.0861,49.7396 C26.7261,51.6806 24.7981,53.0566 23.6411,53.7116 M28.7691,43.4156 C29.0141,42.1176 30.2601,41.0896 31.2241,40.4986 C31.8671,41.4626 32.7801,43.1336 32.5101,44.5726 C32.2661,45.8586 31.0191,46.8996 30.0551,47.4906 C29.4121,46.5266 28.4991,44.8556 28.7691,43.4156 M34.4891,39.0456 C34.6691,38.0946 35.5691,37.3106 36.3271,36.8096 C36.8671,37.6706 37.4711,38.9306 37.2781,39.9586 C37.0981,40.9226 36.1991,41.7066 35.4531,42.1946 C34.9001,41.3336 34.2961,40.0866 34.4891,39.0456 M43.9621,40.9996 C44.5661,40.7426 45.1451,40.3826 45.6461,39.8686 C47.8051,37.6316 47.2011,33.8786 47.1371,33.4546 L46.9701,32.5416 L46.0441,32.4136 C45.6331,32.3496 41.8541,31.8736 39.6821,34.1106 C39.2321,34.5856 38.8981,35.1256 38.6541,35.7036 C38.2041,34.9456 37.7671,34.4316 37.6641,34.3156 L37.0601,33.6086 L36.1991,33.9686 C36.0701,34.0206 33.2681,35.2286 32.2531,37.6446 L31.9571,37.2976 L31.0961,37.6576 C30.9541,37.7216 27.8181,39.0586 26.6231,41.7326 L26.0191,41.0386 L25.1581,41.3976 C24.9521,41.4876 20.0931,43.5576 19.3091,47.7096 C18.7561,50.7426 20.5821,53.8406 21.6361,55.3056 L18.0751,58.8656 C17.3171,59.6246 17.3171,60.8456 18.0751,61.5906 C18.4481,61.9636 18.9361,62.1566 19.4381,62.1566 C19.9261,62.1566 20.4151,61.9636 20.8001,61.5906 L24.3611,58.0306 C25.6331,58.9436 28.1521,60.4596 30.7871,60.4596 C31.1731,60.4596 31.5711,60.4346 31.9571,60.3566 C36.1221,59.5856 38.1911,54.7146 38.2811,54.5086 L38.6281,53.6606 L37.9341,53.0436 C40.6071,51.8226 41.9441,48.7116 41.9961,48.5576 L42.3561,47.7096 L42.0081,47.4006 C44.4251,46.3856 45.6331,43.5836 45.6851,43.4546 L46.0441,42.5936 L45.3381,41.9896 C45.2221,41.8866 44.7081,41.4496 43.9621,40.9996" id="Fill-13" fill="#6BB46D"></path>
                        </g>
                    </g>
                </g>
            </g>
        </g>
    </g>
</svg>