<?xml version="1.0" encoding="UTF-8"?>
<svg width="71px" height="71px" viewBox="0 0 71 71" version="1.1" xmlns="http://www.w3.org/2000/svg" xmlns:xlink="http://www.w3.org/1999/xlink">
    <!-- Generator: sketchtool 63.1 (101010) - https://sketch.com -->
    <title>C30D0BC4-D350-49A2-A039-D77A400F03DB</title>
    <desc>Created with sketchtool.</desc>
    <g id="Page-1" stroke="none" stroke-width="1" fill="none" fill-rule="evenodd">
        <g id="1-Food-Future-Foundation---Home" transform="translate(-1201.000000, -1844.000000)" fill="#6BB46D">
            <g id="Group-4" transform="translate(0.000000, 1565.000000)">
                <g id="Group-13-Copy-7" transform="translate(1122.000000, 246.000000)">
                    <g id="Group-13" transform="translate(16.000000, 33.000000)">
                        <g id="Group-10" transform="translate(63.000000, 0.000000)">
                            <path d="M9.22571051,45.8127426 C9.0827105,45.4864426 9.0736105,45.1237425 9.19971051,44.7922425 C9.32971051,44.4607425 9.57931053,44.1981425 9.90561055,44.0525425 C10.0785106,43.9771425 10.2605106,43.9394425 10.4464106,43.9394425 C10.7870106,43.9394425 11.1120106,44.0681425 11.3629106,44.3060425 C11.5345106,44.4685425 11.7555106,44.5673425 11.9895107,44.5894425 C11.8517107,44.7740425 11.7737106,45.0028425 11.7789106,45.2472425 C11.7880106,45.7854426 11.4760106,46.2742426 10.9846106,46.4926426 C10.8143106,46.5680426 10.6336106,46.6057426 10.4477106,46.6057426 C9.91861055,46.6057426 9.43891052,46.2950426 9.22571051,45.8127426 M60.5315133,23.7322414 C60.8643133,23.8544414 61.1308134,24.1027414 61.2790134,24.4251414 C61.5845134,25.0933414 61.2907134,25.8863415 60.6238133,26.1931415 C60.4457133,26.2737415 60.2585133,26.3153415 60.0648133,26.3153415 C59.7320133,26.3153415 59.4109133,26.1892415 59.1639133,25.9643415 C58.9884132,25.8018415 58.7661132,25.7056415 58.5308132,25.6874415 C58.6673132,25.5002415 58.7414132,25.2688414 58.7336132,25.0257414 C58.7154132,24.4875414 59.0222132,23.9935414 59.5123133,23.7686414 C59.6878133,23.6867414 59.8750133,23.6464414 60.0648133,23.6464414 C60.2234133,23.6464414 60.3794133,23.6750414 60.5315133,23.7322414 M46.1080125,8.99804055 C46.7996126,9.24894056 47.1597126,10.0146406 46.9088126,10.7049406 C46.7268126,11.2119407 46.2614125,11.5564407 45.7193125,11.5850407 C45.4788125,11.5993407 45.2565125,11.6916407 45.0836125,11.8411407 C45.0459125,11.6136407 44.9341125,11.3991407 44.7534125,11.2327407 C44.3556124,10.8687407 44.2191124,10.3071406 44.4011124,9.80014059 C44.5922125,9.27364057 45.0979125,8.91874055 45.6582125,8.91874055 C45.8116125,8.91874055 45.9637125,8.94604055 46.1080125,8.99804055 M24.8361114,9.08774056 C25.1728114,9.20344056 25.4445114,9.44264057 25.6005114,9.76374059 C25.8371114,10.2473406 25.7617114,10.8219407 25.4068114,11.2275407 C25.2456114,11.4134407 25.1585114,11.6383407 25.1455114,11.8684407 C24.9713114,11.7488407 24.7620114,11.6786407 24.5423114,11.6786407 L24.4084113,11.6825407 C23.8910113,11.6825407 23.4321113,11.3965407 23.2059113,10.9337407 C23.0486113,10.6152406 23.0252113,10.2525406 23.1409113,9.9184406 C23.2579113,9.58044058 23.4984113,9.30874057 23.8182113,9.15144056 C24.0015113,9.06044055 24.1991113,9.01494055 24.4006113,9.01494055 C24.5475114,9.01494055 24.6931114,9.03964055 24.8361114,9.08774056 M11.4682106,25.6393415 C11.2160106,25.9058415 10.8637106,26.0579415 10.4997106,26.0579415 C10.3385106,26.0579415 10.1799106,26.0280415 10.0291106,25.9708415 C9.34141051,25.7108415 8.99301049,24.9386414 9.25301051,24.2522414 C9.44671052,23.7361414 9.94981055,23.3890413 10.5010106,23.3890413 C10.6609106,23.3890413 10.8195106,23.4176413 10.9703106,23.4748413 C11.4734106,23.6659414 11.8127106,24.1365414 11.8335107,24.6734414 C11.8426107,24.9191414 11.9323107,25.1440414 12.0818107,25.3208414 C11.8517107,25.3559415 11.6346106,25.4677415 11.4682106,25.6393415 M24.7789114,61.3945434 C24.4461113,61.2697434 24.1835113,61.0214434 24.0366113,60.6964434 C23.8884113,60.3727434 23.8767113,60.0100434 24.0015113,59.6772433 C24.1913113,59.1728433 24.6606114,58.8361433 25.1975114,58.8153433 C25.4419114,58.8062433 25.6681114,58.7139433 25.8462114,58.5618433 C25.8813114,58.7906433 25.9892114,59.0103433 26.1647114,59.1780433 C26.5560115,59.5485433 26.6873115,60.1140434 26.4962115,60.6184434 C26.3025114,61.1332434 25.8007114,61.4816434 25.2469114,61.4816434 C25.0883114,61.4816434 24.9310114,61.4517434 24.7789114,61.3945434 M45.5581125,60.3831434 C45.3150125,59.9047434 45.3826125,59.3288433 45.7323125,58.9167433 C45.8909125,58.7308433 45.9754125,58.5033433 45.9845125,58.2732433 C46.1561125,58.3889433 46.3615126,58.4552433 46.5760126,58.4552433 L46.7450126,58.4487433 C47.2520126,58.4487433 47.7083126,58.7295433 47.9371126,59.1806433 C48.0970126,59.4978433 48.1256126,59.8592433 48.0138126,60.1972434 C47.9033126,60.5352434 47.6667126,60.8108434 47.3495126,60.9720434 C47.1623126,61.0669434 46.9595126,61.1150434 46.7515126,61.1150434 C46.2445125,61.1150434 45.7869125,60.8355434 45.5581125,60.3831434 M59.1717133,44.4425425 C59.4226133,44.1682425 59.7801133,44.0109425 60.1506133,44.0109425 C60.3053133,44.0109425 60.4587133,44.0395425 60.6056133,44.0915425 C61.2972134,44.3411425 61.6560134,45.1081425 61.4077134,45.7997426 C61.2166134,46.3262426 60.7109133,46.6785426 60.1519133,46.6785426 C59.9972133,46.6785426 59.8451133,46.6525426 59.6982133,46.5979426 C59.1925133,46.4172426 58.8480132,45.9505426 58.8194132,45.4136426 C58.8090132,45.1718425 58.7128132,44.9469425 58.5594132,44.7701425 C58.7934132,44.7324425 59.0092132,44.6180425 59.1717133,44.4425425 M65.6405136,37.8151421 C64.6642136,37.8151421 63.7867135,37.2314421 63.4084135,36.3318421 C63.2446135,35.939242 62.8676135,35.685742 62.3359134,35.685742 C62.3320134,35.685742 53.832613,36.5593421 53.832613,36.5593421 C53.3360129,36.6087421 52.9473129,36.9896421 52.8875129,37.4823421 C52.7432129,38.6263422 52.4871129,39.7612422 52.1270129,40.8532423 C51.9593129,41.3563423 52.1946129,41.9114424 52.6730129,42.1428424 L56.7953131,44.1318425 L52.1972129,42.9852424 L52.0178129,42.9527424 L51.9359129,42.9527424 C51.5394128,42.9527424 51.1780128,43.1724424 50.9960128,43.5234424 C50.4617128,44.5452425 49.8247127,45.5189426 49.1071127,46.4185426 C48.7951127,46.8072426 48.7990127,47.3688427 49.1136127,47.7497427 L54.550213,54.4369431 C54.753013,54.6865431 55.054613,54.8308431 55.375713,54.8308431 C55.5135131,54.8308431 55.6487131,54.8035431 55.7761131,54.7515431 C56.0699131,54.6319431 56.3780131,54.5708431 56.6939131,54.5708431 C57.3400132,54.5708431 57.9484132,54.8243431 58.4060132,55.2819431 C59.3498133,56.2270431 59.3498133,57.7610432 58.4060132,58.7061433 C57.9484132,59.1637433 57.3413132,59.4146433 56.6939131,59.4146433 C56.0465131,59.4146433 55.4381131,59.1637433 54.981813,58.7061433 C54.290213,58.0145432 54.082213,56.9823432 54.451413,56.0775431 C54.629513,55.6407431 54.503413,55.1480431 54.138113,54.8516431 L47.4275126,49.3942428 C47.2377126,49.2408428 47.0011126,49.1550428 46.7567126,49.1550428 C46.5214126,49.1550428 46.2900125,49.2356428 46.1041125,49.3799428 C45.4073125,49.9233428 44.6663125,50.4186428 43.9006124,50.8502429 C43.4443124,51.1076429 43.2441124,51.6692429 43.4313124,52.1554429 L45.1317125,56.5910432 L42.5473123,52.5636429 C42.3601123,52.2230429 42.0026123,52.0098429 41.6126123,52.0098429 C41.4696123,52.0098429 41.3305123,52.0384429 41.1966123,52.0943429 C39.6756122,52.745643 38.9541121,52.828843 37.210812,53.035543 C36.716812,53.091443 36.324212,53.489243 36.276112,53.981943 L35.3856119,62.6178435 C35.3362119,63.0858435 35.593612,63.5226436 36.030412,63.7085436 C36.931312,64.0868436 37.5150121,64.9617436 37.5150121,65.9406437 C37.5150121,67.2770438 36.428212,68.3625438 35.0918119,68.3625438 C33.7567119,68.3625438 32.6712118,67.2770438 32.6712118,65.9406437 C32.6712118,64.9617436 33.2536118,64.0868436 34.1584119,63.7072436 C34.5926119,63.5226436 34.8500119,63.0858435 34.8006119,62.6204435 L33.9101119,53.979343 C33.8581119,53.482743 33.4746118,53.095343 32.9780118,53.035543 C31.8808118,52.906843 30.7875117,52.674143 29.7306116,52.3439429 L29.5135116,52.2958429 L29.4147116,52.2958429 C29.0104116,52.2958429 28.6451116,52.5207429 28.4644116,52.882143 L26.5079115,56.8068432 L27.6415115,52.4986429 C27.7689115,52.0150429 27.5362115,51.5015429 27.0890115,51.2779429 C26.0295114,50.7488428 25.0168114,50.1105428 24.0808113,49.3812428 C23.8949113,49.2356428 23.6622113,49.1550428 23.4282113,49.1550428 C23.1838113,49.1550428 22.9472113,49.2408428 22.7574113,49.3942428 L16.0481109,54.8503431 C15.6815109,55.1480431 15.5554109,55.6407431 15.7335109,56.0775431 C16.1040109,56.9823432 15.8960109,58.0145432 15.2044108,58.7061433 C14.7468108,59.1637433 14.1384108,59.4146433 13.4923107,59.4146433 C12.8449107,59.4146433 12.2365107,59.1637433 11.7802106,58.7061433 C11.3226106,58.2472433 11.0704106,57.6401432 11.0704106,56.9940432 C11.0704106,56.3479432 11.3226106,55.7408431 11.7815106,55.2819431 C12.2378107,54.8230431 12.8449107,54.5708431 13.4897107,54.5708431 C13.8043108,54.5708431 14.1150108,54.6319431 14.4075108,54.7515431 C14.5362108,54.8035431 14.6701108,54.8308431 14.8092108,54.8308431 C15.1303108,54.8308431 15.4306108,54.6865431 15.6334109,54.4382431 L21.0726112,47.7497427 C21.3859112,47.3649427 21.3885112,46.8059426 21.0791112,46.4172426 C20.2562111,45.3889426 19.5451111,44.2683425 18.966611,43.0840424 C18.785911,42.7174424 18.421911,42.4886424 18.013711,42.4886424 L17.783611,42.5094424 L13.7094108,43.8302425 L17.444311,41.6969423 C17.878511,41.4512423 18.081311,40.9429423 17.935711,40.4632423 C17.639311,39.4973422 17.424811,38.4937422 17.297411,37.4862421 C17.2376109,36.9896421 16.8489109,36.6087421 16.3523109,36.5593421 L7.75411043,35.679242 C7.3290104,35.679242 6.94551038,35.934042 6.77781037,36.3305421 C6.39951035,37.2314421 5.5220103,37.8151421 4.54441025,37.8151421 C3.20931018,37.8151421 2.12381012,36.7283421 2.12381012,35.391942 C2.12381012,34.0568419 3.20931018,32.9713419 4.54441025,32.9713419 C5.5233103,32.9713419 6.39951035,33.5537419 6.77911037,34.459842 C6.94551038,34.847242 7.3238104,35.100742 7.84901043,35.100742 C7.85551043,35.100742 16.3159109,34.2310419 16.3159109,34.2310419 C16.8112109,34.1790419 17.2090109,33.7812419 17.2610109,33.2872419 C17.410511,31.8910418 17.723811,30.5169417 18.193111,29.2026417 C18.375111,28.6956416 18.147611,28.1340416 17.667911,27.8961416 L13.8446108,25.9851415 L18.152811,27.1213415 L18.342611,27.1577415 L18.429711,27.1577415 C18.814511,27.1577415 19.1694111,26.9484415 19.3592111,26.6078415 C19.8220111,25.7628415 20.3576111,24.9503414 20.9530112,24.1911414 C21.2559112,23.7985414 21.2507112,23.2564413 20.9374112,22.8690413 L15.6334109,16.345641 C15.4306108,16.0986409 15.1303108,15.9556409 14.8105108,15.9556409 C14.6714108,15.9556409 14.5362108,15.9829409 14.4088108,16.0349409 C14.1150108,16.1545409 13.8056108,16.2143409 13.4910107,16.2143409 C12.8462107,16.2143409 12.2378107,15.9634409 11.7802106,15.5058409 C10.8364106,14.5607409 10.8364106,13.0228408 11.7802106,12.0803407 C12.2352107,11.6240407 12.8436107,11.3731407 13.4910107,11.3731407 C14.1397108,11.3731407 14.7481108,11.6240407 15.2044108,12.0803407 C15.8960109,12.7719408 16.1040109,13.8041408 15.7348109,14.7089409 C15.5567109,15.1444409 15.6828109,15.6358409 16.0468109,15.9348409 L22.5455112,21.2193412 C22.7353113,21.3727412 22.9732113,21.4585412 23.2176113,21.4585412 C23.4581113,21.4585412 23.6947113,21.3740412 23.8806113,21.2232412 C24.8595114,20.4393412 25.9229114,19.7555411 27.0409115,19.1913411 C27.5245115,18.9495411 27.7481115,18.3827411 27.5609115,17.878341 L25.9710114,13.5545408 L28.4384116,17.514341 C28.5359116,17.735341 28.7036116,17.917341 28.9220116,18.031741 C29.0741116,18.1097411 29.2431116,18.1526411 29.4134116,18.1526411 C29.5252116,18.1526411 29.6357116,18.1344411 29.7475116,18.0993411 C30.8109117,17.747041 31.6936117,17.559841 33.0092118,17.407741 C33.5084118,17.351841 33.8932119,16.964441 33.9465119,16.461341 L34.8006119,8.1686405 C34.8500119,7.70064048 34.5926119,7.26384045 34.1558119,7.07794044 C33.2536118,6.69964042 32.6712118,5.82344038 32.6712118,4.84454032 C32.6712118,3.50944025 33.7567119,2.42394019 35.0918119,2.42394019 C36.428212,2.42394019 37.5150121,3.50944025 37.5150121,4.84454032 C37.5150121,5.82344038 36.931312,6.69964042 36.027812,7.07924044 C35.593612,7.26384045 35.3362119,7.70064048 35.3856119,8.1660405 L36.239712,16.463941 C36.293012,16.964441 36.677812,17.351841 37.174412,17.407741 C38.5212121,17.563741 39.8498122,17.873141 41.1173123,18.3255411 C41.2330123,18.3684411 41.3539123,18.3879411 41.4761123,18.3879411 C41.8804123,18.3879411 42.2561123,18.1526411 42.4316123,17.786041 L44.4427124,13.6143408 L43.2909124,18.2462411 L43.2610124,18.4191411 C43.2025124,18.8676411 43.4339124,19.3057411 43.8343124,19.5072411 C44.7651125,19.9778412 45.1798125,20.3145412 45.9351125,20.9268412 L46.3030125,21.2219412 C46.4915126,21.3740412 46.7281126,21.4585412 46.9686126,21.4585412 C47.2143126,21.4585412 47.4522126,21.3727412 47.6381126,21.2193412 L54.136813,15.9361409 C54.502113,15.6384409 54.629513,15.1457409 54.451413,14.7089409 C54.082213,13.8041408 54.290213,12.7719408 54.981813,12.0803407 C55.4394131,11.6227407 56.0478131,11.3718407 56.6939131,11.3718407 C57.3413132,11.3718407 57.9484132,11.6227407 58.4047132,12.0803407 C59.3498133,13.0241408 59.3498133,14.5607409 58.4060132,15.5045409 C57.9471132,15.9621409 57.3387132,16.2143409 56.6939131,16.2143409 C56.3780131,16.2143409 56.0699131,16.1545409 55.7774131,16.0349409 C55.6487131,15.9829409 55.5135131,15.9556409 55.375713,15.9556409 C55.054613,15.9556409 54.754313,16.0986409 54.551513,16.346941 L49.2449127,22.8716413 C48.9342127,23.2564413 48.9290127,23.7985414 49.2345127,24.1937414 C50.0080128,25.1804414 50.6801128,26.2555415 51.2313128,27.3878416 C51.4068128,27.7505416 51.7812128,27.9845416 52.1855129,27.9845416 C52.3025129,27.9845416 52.4182129,27.9650416 52.5274129,27.9286416 L56.8200131,26.4700415 L52.7562129,28.8659416 C52.3350129,29.1155417 52.1400129,29.6173417 52.2791129,30.0840417 C52.5911129,31.1240418 52.8069129,32.2017418 52.9239129,33.2898419 C52.9798129,33.7916419 53.3698129,34.1790419 53.872913,34.2310419 L62.4282134,35.107242 C62.8572135,35.107242 63.2407135,34.851142 63.4071135,34.457242 C63.7867135,33.5537419 64.6642136,32.9713419 65.6405136,32.9713419 C66.9769137,32.9713419 68.0624137,34.0568419 68.0624137,35.391942 C68.0624137,36.7283421 66.9769137,37.8151421 65.6405136,37.8151421 M65.6405136,30.8471418 C64.0844135,30.8471418 62.6609134,31.6297418 61.8289134,32.9141419 L54.924613,32.2030418 C54.827113,31.5556418 54.698413,30.9121418 54.537213,30.2816417 L58.3930132,28.0092416 C58.9039132,28.2913416 59.4733133,28.4395416 60.0635133,28.4395416 C60.5653133,28.4395416 61.0502134,28.3342416 61.5078134,28.1236416 C62.3463134,27.7401416 62.9859135,27.0498415 63.3070135,26.1840415 C63.6281135,25.3169414 63.5930135,24.3796414 63.2082135,23.5411414 C62.8247135,22.7026413 62.1370134,22.0617413 61.2699134,21.7393413 C60.8799133,21.5950412 60.4756133,21.5222412 60.0648133,21.5222412 C59.5669133,21.5222412 59.0833133,21.6288412 58.6257132,21.8394413 C57.6208132,22.2996413 56.9045131,23.2083413 56.6822131,24.2743414 L52.7094129,25.6237415 C52.3194129,24.9100414 51.8865129,24.2223414 51.4185128,23.5671414 L55.7501131,18.2397411 C56.0595131,18.3060411 56.3767131,18.3385411 56.6952131,18.3385411 C57.9068132,18.3385411 59.0482132,17.865341 59.9075133,17.006041 C60.7655133,16.1493409 61.2374134,15.0079409 61.2374134,13.7911408 C61.2374134,12.5769407 60.7655133,11.4355407 59.9062133,10.5775406 C59.0508132,9.72084059 57.9094132,9.24894056 56.6939131,9.24894056 C55.4784131,9.24894056 54.337013,9.72084059 53.4803129,10.5775406 C52.3779129,11.6786407 51.9255129,13.2373408 52.2466129,14.7362409 L46.9660126,19.0275411 C46.5032126,18.6570411 46.0924125,18.3463411 45.5373125,18.016141 L46.6423126,13.5662408 C47.6862126,13.2555408 48.5325127,12.4664407 48.9082127,11.4264407 C49.5543127,9.63374059 48.6235127,7.64994048 46.8308126,7.00254044 C46.4525126,6.86474043 46.0573125,6.79454043 45.6582125,6.79454043 C44.2048124,6.79454043 42.8970124,7.71234048 42.4030123,9.07864055 C42.0286123,10.1186406 42.1768123,11.2678407 42.7813124,12.1713407 L40.9236123,16.0258409 C40.0578122,15.7632409 39.1673122,15.5591409 38.2664121,15.4148409 L37.5709121,8.65744053 C38.8566121,7.82414049 39.6392122,6.40194041 39.6392122,4.84454032 C39.6392122,2.33944018 37.5995121,0.299740072 35.0918119,0.299740072 C32.5867118,0.299740072 30.5470117,2.33944018 30.5470117,4.84454032 C30.5470117,6.40194041 31.3296117,7.82284049 32.6153118,8.65744053 L31.9198118,15.4083409 C31.1801117,15.5175409 30.5457117,15.6514409 29.8931116,15.8321409 L27.4699115,11.9451407 C27.9730115,10.9818407 27.9951115,9.8235406 27.5089115,8.83034054 C27.1033115,7.9996405 26.3974115,7.37824046 25.5251114,7.07924044 C25.1611114,6.95314044 24.7815114,6.89074043 24.4006113,6.89074043 C23.8728113,6.89074043 23.3619113,7.00904044 22.8848113,7.24304045 C22.0541112,7.64994048 21.4327112,8.35454051 21.1324112,9.22684056 C20.8334111,10.1004406 20.8919111,11.0390407 21.2962112,11.8684407 C21.7837112,12.8616408 22.7106112,13.5558408 23.7805113,13.7508408 L25.2469114,17.743141 C24.5540114,18.1357411 23.8793113,18.5699411 23.2358113,19.0418411 L17.939611,14.7362409 C18.259411,13.2373408 17.807011,11.6786407 16.7059109,10.5775406 C15.8492109,9.72084059 14.7078108,9.24894056 13.4923107,9.24894056 C12.2781107,9.24894056 11.1367106,9.72084059 10.2787106,10.5775406 C8.50681047,12.3520407 8.50681047,15.2354409 10.2787106,17.006041 C11.1380106,17.866641 12.2781107,18.3398411 13.4897107,18.3398411 C13.8082108,18.3398411 14.1254108,18.3060411 14.4361108,18.2397411 L18.766411,23.5671414 C18.466111,23.9857414 18.181411,24.4199414 17.913611,24.8632414 L13.8290108,23.7842414 C13.5326107,22.7364413 12.7552107,21.8784413 11.7204106,21.4884412 C11.3278106,21.3402412 10.9196106,21.2648412 10.5023106,21.2648412 C9.0710105,21.2648412 7.76971043,22.1644413 7.2653104,23.5021413 C6.59191036,25.2857414 7.49541041,27.2838416 9.27901051,27.9585416 C9.67291053,28.1067416 10.0837106,28.1808416 10.5023106,28.1808416 C11.1692106,28.1808416 11.8218107,27.9871416 12.3782107,27.6270416 L15.8973109,29.3846417 C15.6178109,30.3050417 15.4033108,31.2501418 15.2603108,32.2030418 L8.35731046,32.9141419 C7.52401041,31.6297418 6.10181034,30.8471418 4.54441025,30.8471418 C2.03931011,30.8471418 -0.000390000021,32.8868419 -0.000390000021,35.391942 C-0.000390000021,37.8996421 2.03931011,39.9380423 4.54441025,39.9380423 C6.10181034,39.9380423 7.52271041,39.1567422 8.35731046,37.8710421 L15.3149108,38.5860422 C15.4098108,39.1489422 15.5294109,39.7105422 15.6724109,40.2630423 L12.1585107,42.2689424 C11.6385106,41.9751424 11.0444106,41.8152424 10.4464106,41.8152424 C9.96151055,41.8152424 9.49091052,41.9153424 9.0476105,42.1103424 C8.20261045,42.4834424 7.55391042,43.1633424 7.2198104,44.0252425 C6.88701038,44.8871425 6.91041038,45.8270426 7.2835104,46.6707426 C7.83601043,47.9226427 9.0788105,48.7312427 10.4477106,48.7312427 C10.9313106,48.7312427 11.3993106,48.6324427 11.8426107,48.4361427 C12.8540107,47.9889427 13.5833107,47.0880426 13.8199108,46.0272426 L17.484611,44.8390425 C17.904511,45.6086426 18.377711,46.3522426 18.896411,47.0607426 L14.4348108,52.5467429 C14.1254108,52.4804429 13.8069108,52.4466429 13.4884107,52.4466429 C12.2781107,52.4466429 11.1380106,52.919843 10.2787106,53.780443 C9.41941052,54.6371431 8.94621049,55.7785431 8.94621049,56.9940432 C8.94621049,58.2069433 9.41941052,59.3496433 10.2787106,60.2076434 C11.1354106,61.0643434 12.2768107,61.5388434 13.4923107,61.5401434 C14.7065108,61.5401434 15.8479109,61.0656434 16.7059109,60.2076434 C17.807011,59.1078433 18.259411,57.5478432 17.938311,56.0502431 L23.4555113,51.5639429 C24.0678113,52.0007429 24.7100114,52.4063429 25.3730114,52.774243 L24.3083113,56.8211432 C23.2618113,57.1162432 22.4038112,57.8936432 22.0138112,58.9297433 C21.3417112,60.7133434 22.2478112,62.7114435 24.0314113,63.3835435 C24.4240113,63.5317436 24.8361114,63.6071436 25.2508114,63.6071436 C25.7435114,63.6071436 26.2232114,63.5018435 26.6756115,63.2964435 C27.5167115,62.9155435 28.1589115,62.2291435 28.4839116,61.3659434 C28.8726116,60.3311434 28.7426116,59.1806433 28.1524115,58.2680433 L29.9711116,54.6215431 C30.5990117,54.7879431 31.2412117,54.9244431 31.8834118,55.0271431 L32.6153118,62.1290435 C31.3296117,62.9623435 30.5470117,64.3858436 30.5470117,65.9406437 C30.5470117,68.4470438 32.5867118,70.4854439 35.0918119,70.4854439 C37.5995121,70.4854439 39.6392122,68.4470438 39.6392122,65.9406437 C39.6392122,64.3845436 38.8566121,62.9610435 37.5709121,62.1290435 L38.3002121,55.0440431 C39.3168122,54.9127431 40.1293122,54.7684431 41.1875123,54.383643 L43.6575124,58.2290433 C43.1687124,59.2014433 43.1622124,60.3584434 43.6614124,61.3438434 C44.2542124,62.5138435 45.4372125,63.2392435 46.7515126,63.2392435 C47.2884126,63.2392435 47.8266126,63.1118435 48.3076127,62.8674435 C49.1331127,62.4501435 49.7454127,61.7364435 50.0340128,60.8589434 C50.3200128,59.9814434 50.2498128,59.0454433 49.8312127,58.2212433 C49.3320127,57.2345432 48.3960127,56.5546432 47.3235126,56.3726432 L45.7349125,52.2308429 C46.0716125,52.0176429 46.4044126,51.7966429 46.7294126,51.5639429 L52.2466129,56.0502431 C51.9255129,57.5478432 52.3779129,59.1078433 53.4803129,60.2076434 C54.335713,61.0643434 55.4771131,61.5375434 56.6939131,61.5375434 C57.9081132,61.5375434 59.0495132,61.0643434 59.9075133,60.2076434 C61.6794134,58.4344433 61.6794134,55.5510431 59.9075133,53.780443 C59.0469132,52.919843 57.9068132,52.4466429 56.6952131,52.4466429 C56.3767131,52.4466429 56.0595131,52.4804429 55.7501131,52.5467429 L51.2885128,47.0607426 C51.7149128,46.4783426 52.1114129,45.8699426 52.4741129,45.2433425 L56.8369131,46.3314426 C57.1476131,47.3740427 57.9367132,48.2216427 58.9767132,48.5973427 C59.3550133,48.7338427 59.7489133,48.8040427 60.1493133,48.8040427 C61.6014134,48.8040427 62.9092135,47.8862427 63.4032135,46.5212426 C63.7178135,45.6541426 63.6749135,44.7155425 63.2810135,43.8783425 C62.8884135,43.0411424 62.1955134,42.4080424 61.3284134,42.0960424 C60.9488134,41.9569424 60.5510133,41.8867424 60.1493133,41.8867424 C59.4655133,41.8867424 58.7986132,42.0921424 58.2344132,42.4691424 L54.416313,40.6257423 C54.602213,39.9549423 54.754313,39.2724422 54.870013,38.5860422 L61.8289134,37.8710421 C62.6609134,39.1567422 64.0844135,39.9380423 65.6405136,39.9380423 C68.1469137,39.9380423 70.1866139,37.8996421 70.1866139,35.391942 C70.1866139,32.8868419 68.1469137,30.8471418 65.6405136,30.8471418" id="Fill-1"></path>
                            <path d="M26.7554315,29.4954017 C29.4373316,29.4954017 31.6200317,31.6781018 31.6200317,34.3600019 C31.6200317,37.0432021 29.4373316,39.2246022 26.7554315,39.2246022 C24.0735313,39.2246022 21.8908312,37.0432021 21.8908312,34.3600019 C21.8908312,31.6781018 24.0735313,29.4954017 26.7554315,29.4954017 M26.7554315,27.3712016 C22.9022313,27.3712016 19.7666311,30.5068017 19.7666311,34.3600019 C19.7666311,38.2132022 22.9022313,41.3488023 26.7554315,41.3488023 C30.6086317,41.3488023 33.7442319,38.2132022 33.7442319,34.3600019 C33.7442319,30.5068017 30.6086317,27.3712016 26.7554315,27.3712016" id="Fill-4"></path>
                            <path d="M39.9496522,28.5699316 C39.0292521,28.5699316 38.2817521,27.8224316 38.2817521,26.9033315 C38.2817521,25.9829315 39.0292521,25.2354314 39.9496522,25.2354314 C40.8687522,25.2354314 41.6162523,25.9829315 41.6162523,26.9033315 C41.6162523,27.8224316 40.8687522,28.5699316 39.9496522,28.5699316 M39.9496522,30.6941317 C42.0400523,30.6941317 43.7417524,28.9924317 43.7417524,26.9033315 C43.7417524,24.8116314 42.0400523,23.1112313 39.9496522,23.1112313 C37.8592521,23.1112313 36.157552,24.8116314 36.157552,26.9033315 C36.157552,28.9924317 37.8592521,30.6941317 39.9496522,30.6941317" id="Fill-6"></path>
                            <path d="M41.8844423,46.0272426 C40.1879422,46.0272426 38.8086421,44.6466425 38.8086421,42.9527424 C38.8086421,41.2562423 40.1879422,39.8769422 41.8844423,39.8769422 C43.5809424,39.8769422 44.9602425,41.2562423 44.9602425,42.9527424 C44.9602425,44.6466425 43.5809424,46.0272426 41.8844423,46.0272426 M41.8844423,37.7527421 C39.0166421,37.7527421 36.684442,40.0849423 36.684442,42.9527424 C36.684442,45.8205426 39.0166421,48.1527427 41.8844423,48.1527427 C44.7522425,48.1527427 47.0844426,45.8205426 47.0844426,42.9527424 C47.0844426,40.0849423 44.7522425,37.7527421 41.8844423,37.7527421" id="Fill-8"></path>
                        </g>
                    </g>
                </g>
            </g>
        </g>
    </g>
</svg>