<?xml version="1.0" encoding="UTF-8"?>
<svg width="88px" height="67px" viewBox="0 0 88 67" version="1.1" xmlns="http://www.w3.org/2000/svg" xmlns:xlink="http://www.w3.org/1999/xlink">
    <!-- Generator: sketchtool 63.1 (101010) - https://sketch.com -->
    <title>BB088574-2345-446E-BB25-54E7B5830863</title>
    <desc>Created with sketchtool.</desc>
    <defs>
        <polygon id="path-1" points="0.446 0.7003 55.417 0.7003 55.417 67 0.446 67"></polygon>
        <polygon id="path-3" points="0 0.1651 61.9134803 0.1651 61.9134803 49.5611 0 49.5611"></polygon>
    </defs>
    <g id="Page-1" stroke="none" stroke-width="1" fill="none" fill-rule="evenodd">
        <g id="2B-Food-Future-Foundation---Vision-2030-UN-Food-Systems-Summit-2021" transform="translate(-1192.000000, -1439.000000)">
            <g id="Group-4-Copy" transform="translate(0.000000, 1160.000000)">
                <g id="Group-13-Copy-7" transform="translate(1122.000000, 245.000000)">
                    <g id="Group-13" transform="translate(16.000000, 33.000000)">
                        <g id="Group-15" transform="translate(54.000000, 0.000000)">
                            <g id="Group-3" transform="translate(32.000000, 0.299800)">
                                <mask id="mask-2" fill="white">
                                    <use xlink:href="#path-1"></use>
                                </mask>
                                <g id="Clip-2"></g>
                                <path d="M8.376,55.2803 C9.004,58.8023 9.199,62.8013 9.258,64.6993 L32.949,64.6993 C33.418,64.6993 33.799,64.3183 33.799,63.8493 L33.799,60.0783 C33.799,57.4683 35.61,55.7163 38.306,55.7163 C42.831,55.7163 46.174,54.7573 46.437,53.3833 C47.096,49.9253 46.339,44.1293 46.331,44.0703 C46.261,43.5423 46.559,43.0393 47.059,42.8453 C47.087,42.8353 49.957,41.7183 52.344,40.3353 C52.801,40.0693 53.05,39.7903 53.104,39.4803 C53.197,38.9383 52.766,38.1943 52.33,37.6783 C47.4,31.8373 46.538,27.9303 46.504,27.7673 C46.488,27.6913 46.48,27.6113 46.48,27.5313 C46.48,20.9153 43.885,14.7123 39.173,10.0643 C34.555,5.5093 28.438,3.0003 21.95,3.0003 L21.599,3.0033 C15.133,3.0923 8.803,5.8923 4.232,10.6873 L4.18,10.7433 L0.933,12.2233 L0.446,11.6203 C5.469,4.8973 13.364,0.8163 21.565,0.7023 L21.944,0.7003 C29.043,0.7003 35.735,3.4433 40.788,8.4263 C45.918,13.4843 48.756,20.2373 48.767,27.3413 C48.865,27.7183 49.845,31.1683 54.088,36.1953 C54.683,36.9003 55.641,38.3153 55.37,39.8743 C55.194,40.8813 54.564,41.7053 53.497,42.3243 C51.717,43.3573 49.719,44.2343 48.714,44.6553 C48.923,46.6223 49.26,50.8523 48.694,53.8143 C47.999,57.4703 41.887,58.0163 38.306,58.0163 C37.299,58.0163 36.1,58.3743 36.1,60.0783 L36.1,63.8493 C36.1,65.5873 34.687,67.0003 32.949,67.0003 L8.133,67.0003 C7.505,67.0003 6.989,66.4883 6.982,65.8583 C6.98,65.6403 6.907,60.4683 6.18,56.0803 L6.13,55.7823 L8.284,54.7653 L8.376,55.2803 Z" id="Fill-1" fill="#6BB46D" mask="url(#mask-2)"></path>
                            </g>
                            <path d="M61.1133,48.1475 C61.1133,48.6165 60.7323,48.9975 60.2633,48.9975 C59.7953,48.9975 59.4143,48.6165 59.4143,48.1475 C59.4143,47.6785 59.7953,47.2975 60.2633,47.2975 C60.7323,47.2975 61.1133,47.6785 61.1133,48.1475 M63.4143,48.1475 C63.4143,46.4105 62.0013,44.9975 60.2633,44.9975 C58.5263,44.9975 57.1133,46.4105 57.1133,48.1475 C57.1133,49.8845 58.5263,51.2975 60.2633,51.2975 C62.0013,51.2975 63.4143,49.8845 63.4143,48.1475" id="Fill-4" fill="#6BB46D"></path>
                            <path d="M67.4151,35.1465 C67.4151,34.6775 67.7961,34.2965 68.2651,34.2965 C68.7331,34.2965 69.1141,34.6775 69.1141,35.1465 C69.1141,35.6155 68.7331,35.9965 68.2651,35.9965 C67.7961,35.9965 67.4151,35.6155 67.4151,35.1465 M65.1141,35.1465 C65.1141,36.8835 66.5271,38.2965 68.2651,38.2965 C70.0021,38.2965 71.4151,36.8835 71.4151,35.1465 C71.4151,33.4095 70.0021,31.9965 68.2651,31.9965 C66.5271,31.9965 65.1141,33.4095 65.1141,35.1465" id="Fill-6" fill="#6BB46D"></path>
                            <path d="M64.4151,16.1445 C64.4151,15.6755 64.7961,15.2945 65.2651,15.2945 C65.7331,15.2945 66.1141,15.6755 66.1141,16.1445 C66.1141,16.6135 65.7331,16.9945 65.2651,16.9945 C64.7961,16.9945 64.4151,16.6135 64.4151,16.1445 M62.1141,16.1445 C62.1141,17.8815 63.5271,19.2945 65.2651,19.2945 C67.0021,19.2945 68.4151,17.8815 68.4151,16.1445 C68.4151,14.4075 67.0021,12.9945 65.2651,12.9945 C63.5271,12.9945 62.1141,14.4075 62.1141,16.1445" id="Fill-8" fill="#6BB46D"></path>
                            <g id="Group-12" transform="translate(0.000000, 9.299800)">
                                <mask id="mask-4" fill="white">
                                    <use xlink:href="#path-3"></use>
                                </mask>
                                <g id="Clip-11"></g>
                                <path d="M5.5,8.4111 C7.408,5.8981 10.199,4.0421 13.36,3.1821 C14.682,2.8221 16.045,2.6401 17.413,2.6401 C19.236,2.6401 20.994,2.9581 22.637,3.5861 C25.756,4.7761 28.255,7.0111 29.862,10.0491 L30.957,12.1141 L32.051,10.0491 C33.659,7.0111 36.158,4.7761 39.276,3.5861 C40.919,2.9581 42.677,2.6401 44.5,2.6401 C45.868,2.6401 47.231,2.8221 48.553,3.1821 C51.713,4.0421 54.505,5.8981 56.414,8.4111 C58.559,11.2341 59.598,14.8621 59.418,18.9001 C59.205,23.6941 56.941,28.4111 52.691,32.9211 C52.68,32.9321 50.097,35.4071 46.265,38.3581 C43.421,40.5491 38.682,43.2551 38.634,43.2821 C35.016,45.2431 31.997,46.4981 30.957,46.9121 C29.92,46.4991 26.912,45.2501 23.307,43.2981 C23.277,43.2791 18.658,40.4741 16.992,39.3791 C13.55,37.1161 9.283,32.9831 9.24,32.9411 C4.982,28.4341 2.709,23.7071 2.496,18.9001 C2.316,14.8601 3.355,11.2331 5.5,8.4111 M0.022,19.0111 C0.289,25.0171 3.323,30.8151 9.041,36.2441 L10.545,37.6731 C10.754,37.8341 14.888,40.9701 16.355,41.9691 C17.592,42.8111 21.328,45.0301 21.486,45.1241 L21.809,45.3011 C26.663,47.9581 30.37,49.3441 30.526,49.4011 L30.957,49.5611 L31.388,49.4011 C31.424,49.3881 35.221,47.9771 40.14,45.2811 L40.45,45.1111 L40.442,45.0991 C41.508,44.4541 45.019,42.3231 46.299,41.4491 C47.594,40.5661 51.213,37.7921 51.366,37.6741 L52.904,36.2141 C58.601,30.7961 61.624,25.0081 61.891,19.0111 C62.097,14.3851 60.884,10.2011 58.385,6.9131 C56.15,3.9701 52.89,1.7961 49.204,0.7931 C47.672,0.3761 46.09,0.1651 44.502,0.1651 C42.373,0.1651 40.318,0.5371 38.394,1.2711 C35.374,2.4251 32.814,4.4311 30.957,7.0941 C29.099,4.4311 26.539,2.4251 23.52,1.2711 C21.596,0.5371 19.541,0.1651 17.412,0.1651 C15.823,0.1651 14.241,0.3761 12.709,0.7931 C9.025,1.7951 5.765,3.9691 3.528,6.9131 C1.029,10.2021 -0.184,14.3851 0.022,19.0111" id="Fill-10" fill="#6BB46D" mask="url(#mask-4)"></path>
                            </g>
                            <polygon id="Fill-13" fill="#6BB46D" points="31.0567 36.9697 36.7967 22.2277 42.9177 30.3727 56.1047 30.3727 56.1047 32.8497 41.6807 32.8497 37.4907 27.2717 31.6817 42.1867 25.1567 32.8497 14.6757 32.8497 14.6757 30.3727 26.4457 30.3727"></polygon>
                        </g>
                    </g>
                </g>
            </g>
        </g>
    </g>
</svg>