<?xml version="1.0" encoding="UTF-8"?>
<svg width="16px" height="13px" viewBox="0 0 16 13" version="1.1" xmlns="http://www.w3.org/2000/svg" xmlns:xlink="http://www.w3.org/1999/xlink">
    <!-- Generator: sketchtool 63.1 (101010) - https://sketch.com -->
    <title>8423D9B1-288A-467A-8052-D70467494603</title>
    <desc>Created with sketchtool.</desc>
    <g id="Page-1" stroke="none" stroke-width="1" fill="none" fill-rule="evenodd">
        <g id="1-Food-Future-Foundation---Home" transform="translate(-1226.000000, -4354.000000)" fill="#D0D0D0" fill-rule="nonzero">
            <g id="Group-Copy-8" transform="translate(0.000000, 4313.000000)">
                <g id="Group-9" transform="translate(90.000000, 40.000000)">
                    <g id="Group-7" transform="translate(0.000000, -0.000000)">
                        <path d="M1141.02108,13.9648712 C1142.46995,13.9648712 1143.80016,13.6838407 1145.01171,13.1217799 C1146.22326,12.559719 1147.20999,11.8290398 1147.9719,10.9297424 C1148.7338,10.030445 1149.32084,9.03747073 1149.73302,7.95081967 C1150.1452,6.86416862 1150.35129,5.7587822 1150.35129,4.63466042 L1150.35129,4.63466042 L1150.35129,4.22248244 C1151.00078,3.74785324 1151.55035,3.18579235 1152,2.53629977 C1151.40047,2.78610461 1150.76347,2.94847775 1150.08899,3.0234192 C1150.81343,2.59875098 1151.30055,1.99921936 1151.55035,1.22482436 C1150.90086,1.59953162 1150.20141,1.8618267 1149.45199,2.0117096 C1148.8025,1.33723653 1148.00312,1 1147.05386,1 C1146.15457,1 1145.38642,1.31850117 1144.74941,1.95550351 C1144.11241,2.59250585 1143.79391,3.36065574 1143.79391,4.25995316 C1143.79391,4.509758 1143.81889,4.75956284 1143.86885,5.00936768 C1142.51991,4.93442623 1141.26464,4.5971897 1140.10304,3.99765808 C1138.94145,3.39812646 1137.94848,2.59875098 1137.12412,1.59953162 C1136.82436,2.0991413 1136.67447,2.64871194 1136.67447,3.24824356 C1136.67447,4.39734582 1137.16159,5.30913349 1138.13583,5.98360656 C1137.61124,5.95862607 1137.11163,5.82123341 1136.637,5.57142857 L1136.637,5.57142857 L1136.637,5.6088993 C1136.637,6.3832943 1136.88681,7.07025761 1137.38642,7.66978923 C1137.88603,8.26932084 1138.51054,8.6440281 1139.25995,8.79391101 C1138.98517,8.89383294 1138.69789,8.94379391 1138.39813,8.94379391 C1138.19828,8.94379391 1137.99844,8.91881343 1137.79859,8.86885246 C1137.99844,9.51834504 1138.37939,10.0554254 1138.94145,10.4800937 C1139.50351,10.9047619 1140.14676,11.1295863 1140.87119,11.1545667 C1139.67213,12.0788447 1138.31069,12.5409836 1136.78689,12.5409836 C1136.5121,12.5409836 1136.2498,12.5284934 1136,12.5035129 C1137.52381,13.4777518 1139.1975,13.9648712 1141.02108,13.9648712 Z" id="ï "></path>
                    </g>
                </g>
            </g>
        </g>
    </g>
</svg>