<?xml version="1.0" encoding="UTF-8"?>
<svg width="16px" height="12px" viewBox="0 0 16 12" version="1.1" xmlns="http://www.w3.org/2000/svg" xmlns:xlink="http://www.w3.org/1999/xlink">
    <!-- Generator: sketchtool 63.1 (101010) - https://sketch.com -->
    <title>2F7556C2-F75A-48C7-BECA-64EDC7124E04</title>
    <desc>Created with sketchtool.</desc>
    <g id="Page-1" stroke="none" stroke-width="1" fill="none" fill-rule="evenodd">
        <g id="1-Food-Future-Foundation---Home" transform="translate(-1334.000000, -4355.000000)" fill="#D0D0D0" fill-rule="nonzero">
            <g id="Group-Copy-8" transform="translate(0.000000, 4313.000000)">
                <g id="Group-9" transform="translate(90.000000, 40.000000)">
                    <g id="Group-7" transform="translate(0.000000, -0.000000)">
                        <path d="M1252.88056,13.1662763 C1253.48009,13.1662763 1254.24824,13.1537861 1255.18501,13.1288056 C1256.12178,13.1038251 1256.9274,13.0663544 1257.60187,13.0163934 C1258.30133,12.9164715 1258.82592,12.6916472 1259.17564,12.3419204 C1259.50039,12.0171741 1259.71272,11.4925839 1259.81265,10.7681499 L1259.81265,10.7681499 L1260,8.18266979 L1260,6.98360656 C1260,6.1342701 1259.93755,5.2724434 1259.81265,4.39812646 L1259.81265,4.39812646 L1259.81265,4.28571429 C1259.78767,4.21077283 1259.76269,4.1108509 1259.7377,3.98594848 C1259.71272,3.86104606 1259.67525,3.72989852 1259.62529,3.59250585 C1259.57533,3.45511319 1259.51288,3.31772053 1259.43794,3.18032787 C1259.363,3.04293521 1259.27557,2.92427791 1259.17564,2.82435597 C1258.82592,2.44964871 1258.30133,2.22482436 1257.60187,2.1498829 C1256.10304,2.04996097 1254.22951,2 1251.98126,2 L1251.98126,2 L1251.08197,2 C1250.48244,2 1249.72053,2.01249024 1248.79625,2.03747073 C1247.87198,2.06245121 1247.0726,2.09992194 1246.39813,2.1498829 C1245.67369,2.22482436 1245.13661,2.44964871 1244.78689,2.82435597 C1244.46214,3.14910226 1244.2498,3.67369243 1244.14988,4.39812646 L1244.14988,4.39812646 L1244,6.98360656 L1244,8.18266979 C1244,9.03200625 1244.04996,9.89383294 1244.14988,10.7681499 L1244.14988,10.7681499 L1244.22482,11.030445 C1244.2498,11.2302888 1244.3185,11.4613583 1244.43091,11.7236534 C1244.54333,11.9859485 1244.66823,12.1920375 1244.80562,12.3419204 C1244.94301,12.4918033 1245.10539,12.6167057 1245.29274,12.7166276 C1245.48009,12.8165496 1245.63622,12.8790008 1245.76112,12.9039813 C1245.88603,12.9289617 1246.0484,12.9539422 1246.24824,12.9789227 C1246.44809,13.0039032 1246.54801,13.0163934 1246.54801,13.0163934 C1247.39735,13.0913349 1249.20843,13.1412959 1251.98126,13.1662763 L1251.98126,13.1662763 L1252.88056,13.1662763 Z M1250.37002,9.68149883 L1250.37002,5.18501171 L1254.67916,7.43325527 L1254.15457,7.69555035 L1250.37002,9.68149883 Z" id="ïˆ"></path>
                    </g>
                </g>
            </g>
        </g>
    </g>
</svg>